<?xml version="1.0" encoding="utf-8" standalone="no"?>
<!DOCTYPE svg PUBLIC "-//W3C//DTD SVG 1.1//EN"
  "http://www.w3.org/Graphics/SVG/1.1/DTD/svg11.dtd">
<svg xmlns:xlink="http://www.w3.org/1999/xlink" width="432pt" height="504pt" viewBox="0 0 432 504" xmlns="http://www.w3.org/2000/svg" version="1.1">
 <metadata>
  <rdf:RDF xmlns:dc="http://purl.org/dc/elements/1.1/" xmlns:cc="http://creativecommons.org/ns#" xmlns:rdf="http://www.w3.org/1999/02/22-rdf-syntax-ns#">
   <cc:Work>
    <dc:type rdf:resource="http://purl.org/dc/dcmitype/StillImage"/>
    <dc:date>2025-12-09T15:52:42.951778</dc:date>
    <dc:format>image/svg+xml</dc:format>
    <dc:creator>
     <cc:Agent>
      <dc:title>Matplotlib v3.10.0, https://matplotlib.org/</dc:title>
     </cc:Agent>
    </dc:creator>
   </cc:Work>
  </rdf:RDF>
 </metadata>
 <defs>
  <style type="text/css">*{stroke-linejoin: round; stroke-linecap: butt}</style>
 </defs>
 <g id="figure_1">
  <g id="patch_1">
   <path d="M 0 504 
L 432 504 
L 432 0 
L 0 0 
z
" style="fill: #ffffff"/>
  </g>
  <g id="axes_1">
   <g id="patch_2">
    <path d="M 28.766803 156.932885 
L 428.99976 156.932885 
L 428.99976 3.00024 
L 28.766803 3.00024 
z
" style="fill: #ffffff"/>
   </g>
   <g id="matplotlib.axis_1">
    <g id="xtick_1">
     <g id="line2d_1"/>
    </g>
    <g id="xtick_2">
     <g id="line2d_2"/>
    </g>
    <g id="xtick_3">
     <g id="line2d_3"/>
    </g>
    <g id="xtick_4">
     <g id="line2d_4"/>
    </g>
    <g id="xtick_5">
     <g id="line2d_5"/>
    </g>
    <g id="xtick_6">
     <g id="line2d_6"/>
    </g>
    <g id="xtick_7">
     <g id="line2d_7"/>
    </g>
   </g>
   <g id="matplotlib.axis_2">
    <g id="ytick_1">
     <g id="line2d_8"/>
     <g id="text_1">
      <text style="font-size: 8px; font-family: 'Arial', 'Liberation Sans', 'DejaVu Sans', 'Bitstream Vera Sans', sans-serif; text-anchor: end" x="25.266803" y="145.86399" transform="rotate(-0 25.266803 145.86399)">−2</text>
     </g>
    </g>
    <g id="ytick_2">
     <g id="line2d_9"/>
     <g id="text_2">
      <text style="font-size: 8px; font-family: 'Arial', 'Liberation Sans', 'DejaVu Sans', 'Bitstream Vera Sans', sans-serif; text-anchor: end" x="25.266803" y="124.535815" transform="rotate(-0 25.266803 124.535815)">−1</text>
     </g>
    </g>
    <g id="ytick_3">
     <g id="line2d_10"/>
     <g id="text_3">
      <text style="font-size: 8px; font-family: 'Arial', 'Liberation Sans', 'DejaVu Sans', 'Bitstream Vera Sans', sans-serif; text-anchor: end" x="25.266803" y="103.207639" transform="rotate(-0 25.266803 103.207639)">0</text>
     </g>
    </g>
    <g id="ytick_4">
     <g id="line2d_11"/>
     <g id="text_4">
      <text style="font-size: 8px; font-family: 'Arial', 'Liberation Sans', 'DejaVu Sans', 'Bitstream Vera Sans', sans-serif; text-anchor: end" x="25.266803" y="81.879464" transform="rotate(-0 25.266803 81.879464)">1</text>
     </g>
    </g>
    <g id="ytick_5">
     <g id="line2d_12"/>
     <g id="text_5">
      <text style="font-size: 8px; font-family: 'Arial', 'Liberation Sans', 'DejaVu Sans', 'Bitstream Vera Sans', sans-serif; text-anchor: end" x="25.266803" y="60.551288" transform="rotate(-0 25.266803 60.551288)">2</text>
     </g>
    </g>
    <g id="ytick_6">
     <g id="line2d_13"/>
     <g id="text_6">
      <text style="font-size: 8px; font-family: 'Arial', 'Liberation Sans', 'DejaVu Sans', 'Bitstream Vera Sans', sans-serif; text-anchor: end" x="25.266803" y="39.223113" transform="rotate(-0 25.266803 39.223113)">3</text>
     </g>
    </g>
    <g id="ytick_7">
     <g id="line2d_14"/>
     <g id="text_7">
      <text style="font-size: 8px; font-family: 'Arial', 'Liberation Sans', 'DejaVu Sans', 'Bitstream Vera Sans', sans-serif; text-anchor: end" x="25.266803" y="17.894937" transform="rotate(-0 25.266803 17.894937)">4</text>
     </g>
    </g>
    <g id="text_8">
     <text style="font-size: 10px; font-family: 'Arial', 'Liberation Sans', 'DejaVu Sans', 'Bitstream Vera Sans', sans-serif; text-anchor: middle" x="10.158053" y="79.966563" transform="rotate(-90 10.158053 79.966563)">roi1</text>
    </g>
   </g>
   <g id="line2d_15">
    <path d="M 28.766803 122.169213 
L 164.183969 122.169213 
L 165.187059 121.776688 
L 180.23341 102.224489 
L 181.236501 101.829806 
L 196.282852 119.417286 
L 197.285943 119.35367 
L 212.332294 94.115139 
L 213.335384 91.967599 
L 228.381736 50.662008 
L 229.384826 50.481052 
L 244.431178 86.35795 
L 245.434268 87.086191 
L 260.48062 78.868931 
L 261.48371 79.129399 
L 276.530062 90.101646 
L 278.536242 91.928732 
L 292.579504 105.29125 
L 294.585684 107.867204 
L 308.628946 126.726526 
L 309.632036 127.043399 
L 428.99976 127.043399 
L 428.99976 127.043399 
" clip-path="url(#pd7da73d7d7)" style="fill: none; stroke: #808080; stroke-opacity: 0.4; stroke-width: 0.6; stroke-linecap: round"/>
   </g>
   <g id="line2d_16">
    <path d="M 28.766803 92.559243 
L 164.183969 92.559243 
L 165.187059 92.928821 
L 180.23341 111.337952 
L 181.236501 112.30344 
L 196.282852 120.014113 
L 197.285943 120.732023 
L 212.332294 135.505741 
L 213.335384 133.917919 
L 228.381736 59.790795 
L 229.384826 58.955146 
L 244.431178 108.012813 
L 245.434268 110.291481 
L 260.48062 133.059308 
L 261.48371 132.694519 
L 276.530062 110.766477 
L 277.533152 110.10051 
L 292.579504 107.034086 
L 294.585684 106.172957 
L 308.628946 99.583876 
L 310.635126 99.473167 
L 428.99976 99.473167 
L 428.99976 99.473167 
" clip-path="url(#pd7da73d7d7)" style="fill: none; stroke: #808080; stroke-opacity: 0.4; stroke-width: 0.6; stroke-linecap: round"/>
   </g>
   <g id="line2d_17">
    <path d="M 28.766803 115.527515 
L 164.183969 115.527515 
L 165.187059 115.214248 
L 180.23341 99.610016 
L 181.236501 99.187373 
L 196.282852 108.824153 
L 197.285943 108.823329 
L 212.332294 96.173394 
L 213.335384 94.245036 
L 228.381736 44.101967 
L 229.384826 45.10848 
L 244.431178 125.446942 
L 245.434268 127.281381 
L 261.48371 113.358861 
L 276.530062 98.919958 
L 277.533152 99.599664 
L 292.579504 124.080608 
L 293.582594 123.873557 
L 308.628946 108.880826 
L 309.632036 108.645713 
L 428.99976 108.645713 
L 428.99976 108.645713 
" clip-path="url(#pd7da73d7d7)" style="fill: none; stroke: #808080; stroke-opacity: 0.4; stroke-width: 0.6; stroke-linecap: round"/>
   </g>
   <g id="line2d_18">
    <path d="M 28.766803 119.617556 
L 164.183969 119.617556 
L 165.187059 119.502762 
L 180.23341 113.78475 
L 181.236501 114.055962 
L 196.282852 135.000023 
L 197.285943 133.901301 
L 212.332294 68.404669 
L 213.335384 65.168066 
L 228.381736 38.712984 
L 229.384826 39.38836 
L 244.431178 86.104718 
L 246.437358 93.571901 
L 260.48062 148.245158 
L 261.48371 147.794724 
L 276.530062 91.153157 
L 277.533152 91.872077 
L 292.579504 141.755331 
L 293.582594 142.318244 
L 308.628946 132.905883 
L 309.632036 132.75828 
L 428.99976 132.75828 
L 428.99976 132.75828 
" clip-path="url(#pd7da73d7d7)" style="fill: none; stroke: #808080; stroke-opacity: 0.4; stroke-width: 0.6; stroke-linecap: round"/>
   </g>
   <g id="line2d_19">
    <path d="M 28.766803 149.935947 
L 99.986201 149.935947 
L 100.989291 149.549754 
L 116.035643 92.908187 
L 117.038733 90.326452 
L 132.085085 140.209706 
L 133.088175 142.609885 
L 148.134527 133.197524 
L 149.137617 131.546444 
L 164.183969 70.954636 
L 165.187059 68.753505 
L 181.236501 101.645732 
L 196.282852 126.475383 
L 197.285943 125.561687 
L 212.332294 61.386406 
L 213.335384 58.639544 
L 228.381736 47.384861 
L 229.384826 48.712993 
L 244.431178 99.811634 
L 245.434268 101.27566 
L 260.48062 100.885039 
L 261.48371 101.940794 
L 276.530062 130.166822 
L 277.533152 128.898856 
L 292.579504 82.482075 
L 293.582594 82.56165 
L 308.628946 104.270342 
L 309.632036 103.492387 
L 324.678388 81.556731 
L 325.681478 81.349568 
L 340.72783 83.996741 
L 341.73092 86.268383 
L 356.777271 126.6972 
L 357.780362 126.972851 
L 428.99976 126.972851 
L 428.99976 126.972851 
" clip-path="url(#pd7da73d7d7)" style="fill: none; stroke: #808080; stroke-opacity: 0.4; stroke-width: 0.6; stroke-linecap: round"/>
   </g>
   <g id="line2d_20">
    <path d="M 28.766803 100.388128 
L 148.134527 100.388128 
L 149.137617 100.980512 
L 164.183969 138.7557 
L 165.187059 139.600229 
L 180.23341 94.000383 
L 181.236501 91.647521 
L 196.282852 74.128418 
L 197.285943 74.099078 
L 212.332294 96.027531 
L 213.335384 94.99051 
L 228.381736 30.568945 
L 229.384826 29.448611 
L 244.431178 60.260181 
L 245.434268 63.028121 
L 260.48062 112.76064 
L 261.48371 114.099037 
L 276.530062 111.531393 
L 277.533152 110.827379 
L 292.579504 95.632331 
L 293.582594 95.327279 
L 428.99976 95.327279 
L 428.99976 95.327279 
" clip-path="url(#pd7da73d7d7)" style="fill: none; stroke: #808080; stroke-opacity: 0.4; stroke-width: 0.6; stroke-linecap: round"/>
   </g>
   <g id="line2d_21">
    <path d="M 28.766803 116.603661 
L 149.137617 116.532716 
L 166.190149 111.316001 
L 180.23341 106.130732 
L 181.236501 105.541812 
L 196.282852 91.054978 
L 197.285943 90.705627 
L 212.332294 101.33292 
L 213.335384 99.959147 
L 228.381736 38.634013 
L 229.384826 37.177899 
L 244.431178 54.819603 
L 245.434268 56.944368 
L 260.48062 99.731046 
L 261.48371 101.761615 
L 276.530062 122.807281 
L 277.533152 123.222315 
L 293.582594 120.80617 
L 428.99976 120.80617 
L 428.99976 120.80617 
" clip-path="url(#pd7da73d7d7)" style="fill: none; stroke: #808080; stroke-opacity: 0.4; stroke-width: 0.6; stroke-linecap: round"/>
   </g>
   <g id="line2d_22">
    <path d="M 28.766803 94.915332 
L 148.134527 94.915332 
L 149.137617 94.699986 
L 164.183969 80.96778 
L 165.187059 81.040648 
L 180.23341 116.539349 
L 181.236501 117.540308 
L 196.282852 97.230349 
L 197.285943 96.390993 
L 212.332294 97.047918 
L 213.335384 96.274828 
L 228.381736 68.704307 
L 229.384826 67.891173 
L 244.431178 71.067679 
L 245.434268 71.659103 
L 260.48062 84.898796 
L 261.48371 86.767421 
L 276.530062 126.089131 
L 277.533152 125.889253 
L 292.579504 98.350126 
L 293.582594 97.797257 
L 428.99976 97.797257 
L 428.99976 97.797257 
" clip-path="url(#pd7da73d7d7)" style="fill: none; stroke: #808080; stroke-opacity: 0.4; stroke-width: 0.6; stroke-linecap: round"/>
   </g>
   <g id="line2d_23">
    <path d="M 28.766803 105.545787 
L 148.134527 105.545787 
L 149.137617 105.739217 
L 164.183969 118.073884 
L 165.187059 118.308266 
L 180.23341 101.357394 
L 181.236501 101.177111 
L 196.282852 123.040573 
L 197.285943 123.851241 
L 212.332294 119.35966 
L 213.335384 117.124569 
L 228.381736 45.746556 
L 229.384826 44.082686 
L 245.434268 67.09299 
L 260.48062 91.671584 
L 261.48371 92.941794 
L 276.530062 107.776124 
L 277.533152 108.013188 
L 292.579504 105.028917 
L 293.582594 104.017887 
L 308.628946 83.603638 
L 309.632036 83.195353 
L 428.99976 83.195353 
L 428.99976 83.195353 
" clip-path="url(#pd7da73d7d7)" style="fill: none; stroke: #808080; stroke-opacity: 0.4; stroke-width: 0.6; stroke-linecap: round"/>
   </g>
   <g id="line2d_24">
    <path d="M 28.766803 105.026417 
L 148.134527 105.026417 
L 149.137617 105.266544 
L 164.183969 120.578997 
L 165.187059 120.889966 
L 180.23341 100.843285 
L 181.236501 99.979489 
L 196.282852 103.387572 
L 197.285943 103.73567 
L 212.332294 112.069035 
L 213.335384 110.719381 
L 228.381736 53.218208 
L 229.384826 52.524326 
L 244.431178 89.209054 
L 245.434268 91.268846 
L 260.48062 116.404138 
L 261.48371 116.69161 
L 276.530062 105.104598 
L 277.533152 105.105495 
L 292.579504 111.84595 
L 293.582594 112.010376 
L 428.99976 112.010376 
L 428.99976 112.010376 
" clip-path="url(#pd7da73d7d7)" style="fill: none; stroke: #808080; stroke-opacity: 0.4; stroke-width: 0.6; stroke-linecap: round"/>
   </g>
   <g id="line2d_25">
    <path d="M 28.766803 95.42964 
L 148.134527 95.42964 
L 149.137617 95.824979 
L 164.183969 121.034939 
L 165.187059 122.152432 
L 180.23341 119.310074 
L 181.236501 118.933929 
L 197.285943 106.077206 
L 212.332294 96.219091 
L 213.335384 95.048798 
L 228.381736 67.461043 
L 229.384826 66.9597 
L 244.431178 79.507138 
L 245.434268 80.689475 
L 261.48371 105.227141 
L 276.530062 131.086183 
L 277.533152 130.612393 
L 292.579504 104.38886 
L 293.582594 103.951754 
L 308.628946 108.744189 
L 310.635126 108.840037 
L 428.99976 108.840037 
L 428.99976 108.840037 
" clip-path="url(#pd7da73d7d7)" style="fill: none; stroke: #808080; stroke-opacity: 0.4; stroke-width: 0.6; stroke-linecap: round"/>
   </g>
   <g id="line2d_26">
    <path d="M 28.766803 74.231541 
L 148.134527 74.231541 
L 149.137617 74.843094 
L 165.187059 107.261106 
L 180.23341 127.967234 
L 181.236501 128.727771 
L 196.282852 124.101676 
L 197.285943 122.700773 
L 212.332294 80.224374 
L 213.335384 78.216063 
L 228.381736 64.193939 
L 229.384826 65.539212 
L 244.431178 119.919513 
L 245.434268 120.945002 
L 260.48062 106.413235 
L 262.4868 103.7786 
L 276.530062 84.235221 
L 277.533152 85.428329 
L 292.579504 125.845624 
L 293.582594 125.220513 
L 308.628946 94.387916 
L 309.632036 93.904405 
L 428.99976 93.904405 
L 428.99976 93.904405 
" clip-path="url(#pd7da73d7d7)" style="fill: none; stroke: #808080; stroke-opacity: 0.4; stroke-width: 0.6; stroke-linecap: round"/>
   </g>
   <g id="line2d_27">
    <path d="M 28.766803 112.491237 
L 148.134527 112.491237 
L 149.137617 112.808325 
L 164.183969 133.02841 
L 165.187059 133.192581 
L 180.23341 94.444285 
L 181.236501 93.089578 
L 196.282852 104.546743 
L 197.285943 104.096132 
L 213.335384 63.300379 
L 228.381736 16.924748 
L 229.384826 17.981052 
L 244.431178 96.045803 
L 245.434268 99.018695 
L 260.48062 117.93726 
L 261.48371 118.251899 
L 276.530062 112.130184 
L 277.533152 110.595592 
L 292.579504 77.778168 
L 293.582594 77.33986 
L 308.628946 82.073128 
L 310.635126 82.167794 
L 428.99976 82.167794 
L 428.99976 82.167794 
" clip-path="url(#pd7da73d7d7)" style="fill: none; stroke: #808080; stroke-opacity: 0.4; stroke-width: 0.6; stroke-linecap: round"/>
   </g>
   <g id="line2d_28">
    <path d="M 28.766803 82.167794 
L 132.085085 82.167794 
L 133.088175 82.524294 
L 148.134527 114.106863 
L 149.137617 115.600518 
L 164.183969 108.166587 
L 165.187059 108.409558 
L 180.23341 137.764579 
L 181.236501 138.768147 
L 196.282852 120.80995 
L 197.285943 119.305676 
L 213.335384 86.572963 
L 228.381736 48.037982 
L 229.384826 48.650403 
L 244.431178 105.558015 
L 245.434268 106.746742 
L 260.48062 85.678178 
L 261.48371 85.734707 
L 276.530062 103.316484 
L 277.533152 103.553301 
L 292.579504 98.969947 
L 293.582594 100.102348 
L 308.628946 129.535208 
L 309.632036 129.66243 
L 324.678388 119.774523 
L 325.681478 119.620212 
L 428.99976 119.620212 
L 428.99976 119.620212 
" clip-path="url(#pd7da73d7d7)" style="fill: none; stroke: #808080; stroke-opacity: 0.4; stroke-width: 0.6; stroke-linecap: round"/>
   </g>
   <g id="line2d_29">
    <path d="M 28.766803 112.607979 
L 148.134527 112.607979 
L 149.137617 112.450538 
L 164.183969 102.410803 
L 165.187059 102.240507 
L 181.236501 117.935759 
L 196.282852 128.27298 
L 197.285943 127.258327 
L 212.332294 78.566221 
L 213.335384 75.720378 
L 228.381736 40.860528 
L 229.384826 42.201016 
L 244.431178 117.275529 
L 245.434268 118.61226 
L 260.48062 96.456418 
L 261.48371 95.489158 
L 276.530062 86.818896 
L 277.533152 86.820295 
L 293.582594 92.114093 
L 308.628946 94.930441 
L 310.635126 94.986768 
L 428.99976 94.986768 
L 428.99976 94.986768 
" clip-path="url(#pd7da73d7d7)" style="fill: none; stroke: #808080; stroke-opacity: 0.4; stroke-width: 0.6; stroke-linecap: round"/>
   </g>
   <g id="line2d_30">
    <path d="M 28.766803 94.986768 
L 133.088175 95.050046 
L 148.134527 100.655913 
L 149.137617 100.683377 
L 164.183969 84.20884 
L 165.187059 83.811218 
L 180.23341 102.238481 
L 181.236501 103.260593 
L 196.282852 113.254083 
L 197.285943 113.770106 
L 212.332294 117.643931 
L 213.335384 116.222896 
L 228.381736 62.068925 
L 229.384826 60.685858 
L 244.431178 73.347819 
L 245.434268 75.371316 
L 260.48062 123.334036 
L 261.48371 124.235914 
L 276.530062 111.472385 
L 277.533152 111.268786 
L 292.579504 113.845278 
L 293.582594 113.023627 
L 308.628946 92.129483 
L 324.678388 89.623591 
L 329.693838 89.597073 
L 428.99976 89.597073 
L 428.99976 89.597073 
" clip-path="url(#pd7da73d7d7)" style="fill: none; stroke: #808080; stroke-opacity: 0.4; stroke-width: 0.6; stroke-linecap: round"/>
   </g>
   <g id="line2d_31">
    <path d="M 28.766803 60.263793 
L 36.791523 60.29161 
L 52.840965 73.877931 
L 67.887317 121.840651 
L 68.890407 124.633324 
L 83.936759 111.869795 
L 84.939849 111.188563 
L 99.986201 113.765056 
L 100.989291 113.675115 
L 116.035643 92.751421 
L 117.038733 92.046013 
L 132.085085 89.696739 
L 133.088175 90.575896 
L 148.134527 130.952348 
L 149.137617 132.835765 
L 164.183969 102.077686 
L 165.187059 101.053676 
L 180.23341 94.932302 
L 181.236501 95.230038 
L 196.282852 113.626856 
L 197.285943 114.220205 
L 212.332294 92.821819 
L 213.335384 90.181864 
L 228.381736 42.526381 
L 229.384826 42.018198 
L 245.434268 76.800162 
L 260.48062 119.541236 
L 261.48371 120.318811 
L 277.533152 122.431947 
L 292.579504 125.924103 
L 308.628946 82.025884 
L 309.632036 83.106255 
L 324.678388 111.098153 
L 325.681478 112.118111 
L 340.72783 120.046729 
L 356.777271 107.880964 
L 361.792722 102.169318 
L 372.826713 89.51596 
L 373.829803 90.172428 
L 388.876155 111.530472 
L 404.925597 148.824516 
L 407.934868 136.021483 
L 419.971949 83.899206 
L 420.975039 81.381937 
L 428.99976 81.381937 
L 428.99976 81.381937 
" clip-path="url(#pd7da73d7d7)" style="fill: none; stroke: #808080; stroke-opacity: 0.4; stroke-width: 0.6; stroke-linecap: round"/>
   </g>
   <g id="line2d_32">
    <path d="M 28.766803 120.56287 
L 132.085085 120.56287 
L 133.088175 119.701174 
L 148.134527 84.156221 
L 149.137617 82.909692 
L 164.183969 146.200599 
L 165.187059 146.180846 
L 180.23341 107.732227 
L 181.236501 106.582181 
L 196.282852 117.223498 
L 197.285943 115.125195 
L 212.332294 78.251195 
L 213.335384 74.515429 
L 228.381736 9.997178 
L 229.384826 10.247152 
L 244.431178 82.264599 
L 246.437358 85.891886 
L 260.48062 110.310219 
L 261.48371 109.942063 
L 276.530062 94.488662 
L 277.533152 94.265085 
L 292.579504 100.086766 
L 308.628946 91.892522 
L 309.632036 92.504466 
L 323.675297 104.305353 
L 324.678388 104.908807 
L 428.99976 104.908807 
L 428.99976 104.908807 
" clip-path="url(#pd7da73d7d7)" style="fill: none; stroke: #808080; stroke-opacity: 0.4; stroke-width: 0.6; stroke-linecap: round"/>
   </g>
   <g id="line2d_33">
    <path d="M 28.766803 115.888073 
L 148.134527 115.888073 
L 149.137617 115.580246 
L 164.183969 88.491446 
L 165.187059 88.420237 
L 182.239591 104.761464 
L 196.282852 116.945097 
L 197.285943 117.161909 
L 212.332294 89.141964 
L 214.338475 84.65669 
L 228.381736 52.309337 
L 229.384826 53.653108 
L 244.431178 128.624119 
L 245.434268 125.483065 
L 260.48062 72.553608 
L 261.48371 72.855356 
L 276.530062 95.390076 
L 277.533152 96.539011 
L 292.579504 109.711892 
L 308.628946 100.833283 
L 310.635126 100.738695 
L 428.99976 100.738695 
L 428.99976 100.738695 
" clip-path="url(#pd7da73d7d7)" style="fill: none; stroke: #808080; stroke-opacity: 0.4; stroke-width: 0.6; stroke-linecap: round"/>
   </g>
   <g id="line2d_34">
    <path d="M 28.766803 100.738695 
L 117.038733 100.738695 
L 119.044913 102.249084 
L 133.088175 113.325269 
L 134.091265 112.677739 
L 148.134527 95.619614 
L 149.137617 94.629132 
L 165.187059 96.53156 
L 171.205599 89.334447 
L 181.236501 77.289128 
L 182.239591 77.922042 
L 196.282852 93.866321 
L 197.285943 94.797091 
L 213.335384 98.962929 
L 228.381736 68.945565 
L 229.384826 68.115508 
L 244.431178 73.231136 
L 245.434268 74.007425 
L 262.4868 104.099249 
L 276.530062 130.974149 
L 277.533152 130.906331 
L 292.579504 107.232079 
L 293.582594 106.111215 
L 308.628946 100.733729 
L 309.632036 100.680408 
L 324.678388 120.480121 
L 325.681478 120.960114 
L 428.99976 120.960114 
L 428.99976 120.960114 
" clip-path="url(#pd7da73d7d7)" style="fill: none; stroke: #808080; stroke-opacity: 0.4; stroke-width: 0.6; stroke-linecap: round"/>
   </g>
   <g id="line2d_35">
    <path d="M 28.766803 124.281903 
L 117.038733 124.281903 
L 119.044913 126.189574 
L 132.085085 139.179911 
L 133.088175 138.801222 
L 148.134527 96.949784 
L 149.137617 95.173214 
L 165.187059 145.667919 
L 168.196329 137.43479 
L 180.23341 103.961789 
L 181.236501 103.339483 
L 196.282852 136.776841 
L 197.285943 137.884782 
L 213.335384 98.286992 
L 228.381736 31.74295 
L 229.384826 32.291157 
L 244.431178 115.281418 
L 245.434268 118.242545 
L 260.48062 75.512243 
L 261.48371 77.348098 
L 276.530062 126.910258 
L 277.533152 128.452683 
L 292.579504 131.505474 
L 293.582594 131.17028 
L 308.628946 112.674535 
L 311.638216 109.859271 
L 324.678388 97.89053 
L 325.681478 97.55574 
L 428.99976 97.55574 
L 428.99976 97.55574 
" clip-path="url(#pd7da73d7d7)" style="fill: none; stroke: #808080; stroke-opacity: 0.4; stroke-width: 0.6; stroke-linecap: round"/>
   </g>
   <g id="line2d_36">
    <path d="M 28.766803 105.520909 
L 38.797704 105.602627 
L 52.840965 106.169201 
L 68.890407 108.586125 
L 86.946029 107.962257 
L 100.989291 108.045915 
L 117.038733 104.195801 
L 133.088175 107.885196 
L 138.103626 107.47555 
L 149.137617 106.570373 
L 165.187059 110.69634 
L 180.23341 106.306002 
L 181.236501 106.283636 
L 187.255041 108.990506 
L 196.282852 113.08695 
L 197.285943 112.835811 
L 212.332294 93.754778 
L 213.335384 91.762024 
L 228.381736 46.790153 
L 229.384826 46.76729 
L 244.431178 91.05326 
L 245.434268 92.650439 
L 260.48062 104.406261 
L 261.48371 104.949385 
L 276.530062 109.213373 
L 277.533152 109.303655 
L 292.579504 108.548755 
L 308.628946 103.4225 
L 310.635126 103.411633 
L 344.74019 104.84267 
L 356.777271 105.948324 
L 364.801992 105.525138 
L 373.829803 105.118187 
L 390.882335 106.357225 
L 404.925597 107.911143 
L 415.959588 105.646799 
L 420.975039 104.699592 
L 428.99976 104.699592 
L 428.99976 104.699592 
" clip-path="url(#pd7da73d7d7)" style="fill: none; stroke: #000000; stroke-width: 1.8; stroke-linecap: round"/>
   </g>
   <g id="patch_3">
    <path d="M 28.766803 156.932885 
L 28.766803 3.00024 
" style="fill: none; stroke: #000000; stroke-width: 0.8; stroke-linejoin: miter; stroke-linecap: square"/>
   </g>
   <g id="patch_4">
    <path d="M 28.766803 156.932885 
L 428.99976 156.932885 
" style="fill: none; stroke: #000000; stroke-width: 0.8; stroke-linejoin: miter; stroke-linecap: square"/>
   </g>
  </g>
  <g id="axes_2">
   <g id="patch_5">
    <path d="M 28.766803 316.86601 
L 428.99976 316.86601 
L 428.99976 162.933365 
L 28.766803 162.933365 
z
" style="fill: #ffffff"/>
   </g>
   <g id="matplotlib.axis_3">
    <g id="xtick_8">
     <g id="line2d_37"/>
    </g>
    <g id="xtick_9">
     <g id="line2d_38"/>
    </g>
    <g id="xtick_10">
     <g id="line2d_39"/>
    </g>
    <g id="xtick_11">
     <g id="line2d_40"/>
    </g>
    <g id="xtick_12">
     <g id="line2d_41"/>
    </g>
    <g id="xtick_13">
     <g id="line2d_42"/>
    </g>
    <g id="xtick_14">
     <g id="line2d_43"/>
    </g>
   </g>
   <g id="matplotlib.axis_4">
    <g id="ytick_8">
     <g id="line2d_44"/>
     <g id="text_9">
      <text style="font-size: 8px; font-family: 'Arial', 'Liberation Sans', 'DejaVu Sans', 'Bitstream Vera Sans', sans-serif; text-anchor: end" x="25.266803" y="308.088618" transform="rotate(-0 25.266803 308.088618)">−2</text>
     </g>
    </g>
    <g id="ytick_9">
     <g id="line2d_45"/>
     <g id="text_10">
      <text style="font-size: 8px; font-family: 'Arial', 'Liberation Sans', 'DejaVu Sans', 'Bitstream Vera Sans', sans-serif; text-anchor: end" x="25.266803" y="288.885594" transform="rotate(-0 25.266803 288.885594)">−1</text>
     </g>
    </g>
    <g id="ytick_10">
     <g id="line2d_46"/>
     <g id="text_11">
      <text style="font-size: 8px; font-family: 'Arial', 'Liberation Sans', 'DejaVu Sans', 'Bitstream Vera Sans', sans-serif; text-anchor: end" x="25.266803" y="269.682571" transform="rotate(-0 25.266803 269.682571)">0</text>
     </g>
    </g>
    <g id="ytick_11">
     <g id="line2d_47"/>
     <g id="text_12">
      <text style="font-size: 8px; font-family: 'Arial', 'Liberation Sans', 'DejaVu Sans', 'Bitstream Vera Sans', sans-serif; text-anchor: end" x="25.266803" y="250.479548" transform="rotate(-0 25.266803 250.479548)">1</text>
     </g>
    </g>
    <g id="ytick_12">
     <g id="line2d_48"/>
     <g id="text_13">
      <text style="font-size: 8px; font-family: 'Arial', 'Liberation Sans', 'DejaVu Sans', 'Bitstream Vera Sans', sans-serif; text-anchor: end" x="25.266803" y="231.276524" transform="rotate(-0 25.266803 231.276524)">2</text>
     </g>
    </g>
    <g id="ytick_13">
     <g id="line2d_49"/>
     <g id="text_14">
      <text style="font-size: 8px; font-family: 'Arial', 'Liberation Sans', 'DejaVu Sans', 'Bitstream Vera Sans', sans-serif; text-anchor: end" x="25.266803" y="212.073501" transform="rotate(-0 25.266803 212.073501)">3</text>
     </g>
    </g>
    <g id="ytick_14">
     <g id="line2d_50"/>
     <g id="text_15">
      <text style="font-size: 8px; font-family: 'Arial', 'Liberation Sans', 'DejaVu Sans', 'Bitstream Vera Sans', sans-serif; text-anchor: end" x="25.266803" y="192.870478" transform="rotate(-0 25.266803 192.870478)">4</text>
     </g>
    </g>
    <g id="ytick_15">
     <g id="line2d_51"/>
     <g id="text_16">
      <text style="font-size: 8px; font-family: 'Arial', 'Liberation Sans', 'DejaVu Sans', 'Bitstream Vera Sans', sans-serif; text-anchor: end" x="25.266803" y="173.667454" transform="rotate(-0 25.266803 173.667454)">5</text>
     </g>
    </g>
    <g id="text_17">
     <text style="font-size: 10px; font-family: 'Arial', 'Liberation Sans', 'DejaVu Sans', 'Bitstream Vera Sans', sans-serif; text-anchor: middle" x="10.158053" y="239.899688" transform="rotate(-90 10.158053 239.899688)">roi2</text>
    </g>
   </g>
   <g id="line2d_52">
    <path d="M 60.863407 261.908804 
L 148.452715 261.908804 
L 149.29492 262.286002 
L 165.296812 275.596582 
L 180.4565 292.476311 
L 181.298705 292.566425 
L 197.300598 278.739398 
L 212.460286 261.421497 
L 213.302491 259.822637 
L 228.462179 221.857148 
L 229.304384 221.346395 
L 246.990686 244.042145 
L 260.465964 260.520739 
L 261.308169 261.933637 
L 276.467857 293.142455 
L 277.310062 293.486669 
L 293.311955 279.695906 
L 308.471643 263.339046 
L 309.313848 262.914733 
L 396.903156 262.914733 
L 396.903156 262.914733 
" clip-path="url(#p435310c791)" style="fill: none; stroke: #808080; stroke-opacity: 0.4; stroke-width: 0.6; stroke-linecap: round"/>
   </g>
   <g id="line2d_53">
    <path d="M 60.863407 266.190969 
L 164.454608 266.190969 
L 165.296812 266.309222 
L 180.4565 270.66227 
L 181.298705 270.465735 
L 197.300598 258.627511 
L 212.460286 243.005369 
L 213.302491 242.417522 
L 228.462179 237.342097 
L 229.304384 237.96926 
L 244.464072 265.622553 
L 245.306277 266.286912 
L 260.465964 263.875877 
L 261.308169 264.196291 
L 276.467857 276.816948 
L 277.310062 276.875153 
L 292.46975 265.828232 
L 293.311955 265.486767 
L 309.313848 263.99176 
L 396.903156 263.99176 
L 396.903156 263.99176 
" clip-path="url(#p435310c791)" style="fill: none; stroke: #808080; stroke-opacity: 0.4; stroke-width: 0.6; stroke-linecap: round"/>
   </g>
   <g id="line2d_54">
    <path d="M 60.863407 264.922841 
L 165.296812 264.883124 
L 180.4565 263.421054 
L 181.298705 263.03199 
L 196.458393 250.726749 
L 197.300598 250.694102 
L 212.460286 260.37051 
L 213.302491 259.407534 
L 228.462179 212.572764 
L 229.304384 212.676514 
L 244.464072 263.246279 
L 245.306277 264.878348 
L 260.465964 274.85265 
L 261.308169 275.087831 
L 276.467857 274.510369 
L 277.310062 275.065472 
L 292.46975 296.103097 
L 293.311955 296.22822 
L 308.471643 280.505278 
L 309.313848 280.09741 
L 396.903156 280.09741 
L 396.903156 280.09741 
" clip-path="url(#p435310c791)" style="fill: none; stroke: #808080; stroke-opacity: 0.4; stroke-width: 0.6; stroke-linecap: round"/>
   </g>
   <g id="line2d_55">
    <path d="M 60.863407 264.58907 
L 84.445143 264.58907 
L 85.287348 264.884454 
L 100.447036 274.858757 
L 101.289241 275.087478 
L 116.448929 274.510015 
L 117.291134 275.078353 
L 132.450822 296.115978 
L 133.293027 296.218593 
L 148.452715 280.495651 
L 149.29492 280.208356 
L 164.454608 283.878828 
L 165.296812 283.425312 
L 180.4565 262.894824 
L 181.298705 262.62952 
L 196.458393 272.929514 
L 197.300598 272.674203 
L 212.460286 255.030769 
L 213.302491 253.653342 
L 228.462179 221.049933 
L 229.304384 221.565911 
L 244.464072 272.744538 
L 245.306277 274.252643 
L 260.465964 279.395211 
L 261.308169 279.879083 
L 276.467857 292.661065 
L 277.310062 292.243679 
L 292.46975 263.520961 
L 293.311955 263.129454 
L 309.313848 277.530057 
L 325.315741 289.97244 
L 340.475429 298.142505 
L 341.317633 298.342037 
L 356.477321 297.355116 
L 357.319526 295.740322 
L 372.479214 240.965833 
L 373.321419 239.343709 
L 396.903156 239.343709 
L 396.903156 239.343709 
" clip-path="url(#p435310c791)" style="fill: none; stroke: #808080; stroke-opacity: 0.4; stroke-width: 0.6; stroke-linecap: round"/>
   </g>
   <g id="line2d_56">
    <path d="M 60.863407 299.867999 
L 164.454608 299.867999 
L 165.296812 299.07751 
L 180.4565 273.943835 
L 181.298705 273.358099 
L 196.458393 276.775971 
L 197.300598 277.375811 
L 212.460286 294.63679 
L 213.302491 292.410104 
L 228.462179 206.372815 
L 229.304384 205.256196 
L 244.464072 251.095196 
L 245.306277 252.819819 
L 262.150374 272.111856 
L 276.467857 286.997529 
L 277.310062 286.779243 
L 292.46975 262.272049 
L 293.311955 261.916117 
L 308.471643 272.829042 
L 309.313848 273.112134 
L 396.903156 273.112134 
L 396.903156 273.112134 
" clip-path="url(#p435310c791)" style="fill: none; stroke: #808080; stroke-opacity: 0.4; stroke-width: 0.6; stroke-linecap: round"/>
   </g>
   <g id="line2d_57">
    <path d="M 60.863407 270.759814 
L 100.447036 270.759814 
L 101.289241 271.245879 
L 116.448929 287.007179 
L 117.291134 286.764238 
L 132.450822 262.257044 
L 133.293027 261.922799 
L 148.452715 272.835724 
L 149.29492 273.119173 
L 164.454608 273.352033 
L 165.296812 272.487655 
L 180.4565 244.826212 
L 181.298705 244.930232 
L 196.458393 275.062513 
L 197.300598 275.779082 
L 212.460286 273.581129 
L 213.302491 271.167753 
L 228.462179 194.672406 
L 229.304384 194.930534 
L 244.464072 280.718482 
L 245.306277 283.034366 
L 260.465964 284.342392 
L 261.308169 283.482321 
L 276.467857 253.932398 
L 277.310062 253.723657 
L 292.46975 276.92157 
L 293.311955 277.538037 
L 309.313848 277.136836 
L 324.473536 280.326114 
L 326.157946 280.318079 
L 340.475429 279.36852 
L 341.317633 277.331252 
L 356.477321 204.994995 
L 357.319526 204.461312 
L 372.479214 252.287768 
L 373.321419 253.49915 
L 396.903156 253.49915 
L 396.903156 253.49915 
" clip-path="url(#p435310c791)" style="fill: none; stroke: #808080; stroke-opacity: 0.4; stroke-width: 0.6; stroke-linecap: round"/>
   </g>
   <g id="line2d_58">
    <path d="M 60.863407 282.186812 
L 149.29492 282.266194 
L 164.454608 285.326321 
L 165.296812 286.027442 
L 180.4565 308.638641 
L 181.298705 307.878806 
L 196.458393 259.47878 
L 197.300598 259.229588 
L 212.460286 307.151064 
L 213.302491 305.610512 
L 228.462179 195.25162 
L 229.304384 193.969708 
L 244.464072 258.179768 
L 245.306277 260.915512 
L 260.465964 296.4561 
L 261.308169 296.560498 
L 276.467857 260.011272 
L 277.310062 259.520813 
L 292.46975 279.663113 
L 293.311955 280.210288 
L 396.903156 280.210288 
L 396.903156 280.210288 
" clip-path="url(#p435310c791)" style="fill: none; stroke: #808080; stroke-opacity: 0.4; stroke-width: 0.6; stroke-linecap: round"/>
   </g>
   <g id="line2d_59">
    <path d="M 60.863407 291.130515 
L 148.452715 291.130515 
L 149.29492 290.856465 
L 164.454608 280.29208 
L 165.296812 280.198369 
L 180.4565 287.789353 
L 181.298705 287.949034 
L 196.458393 286.310028 
L 197.300598 285.957196 
L 212.460286 273.98305 
L 213.302491 271.98439 
L 228.462179 209.793024 
L 229.304384 209.320962 
L 244.464072 254.518105 
L 245.306277 256.071546 
L 260.465964 268.253665 
L 261.308169 268.608135 
L 276.467857 268.365331 
L 277.310062 268.923797 
L 292.46975 289.735476 
L 293.311955 290.300835 
L 396.903156 290.300835 
L 396.903156 290.300835 
" clip-path="url(#p435310c791)" style="fill: none; stroke: #808080; stroke-opacity: 0.4; stroke-width: 0.6; stroke-linecap: round"/>
   </g>
   <g id="line2d_60">
    <path d="M 60.863407 208.065486 
L 68.443251 208.065486 
L 69.285455 209.348635 
L 84.445143 254.545778 
L 85.287348 256.079004 
L 100.447036 268.261124 
L 101.289241 268.607987 
L 116.448929 268.365182 
L 117.291134 268.93654 
L 132.450822 289.748218 
L 133.293027 290.383632 
L 148.452715 293.238465 
L 149.29492 293.099165 
L 164.454608 284.470156 
L 165.296812 284.903383 
L 180.4565 309.869072 
L 181.298705 309.60622 
L 196.458393 276.458777 
L 197.300598 275.806445 
L 212.460286 289.609411 
L 213.302491 287.857019 
L 228.462179 206.785538 
L 229.304384 205.784775 
L 245.306277 252.994187 
L 260.465964 286.416771 
L 261.308169 287.156892 
L 277.310062 277.081142 
L 292.46975 270.537478 
L 293.311955 270.883206 
L 308.471643 289.322385 
L 309.313848 289.009249 
L 324.473536 254.64132 
L 325.315741 254.031858 
L 340.475429 268.617165 
L 341.317633 268.743398 
L 356.477321 258.702457 
L 357.319526 259.010754 
L 372.479214 284.012376 
L 373.321419 284.052315 
L 388.481107 257.049664 
L 389.323312 256.283057 
L 396.903156 256.283057 
L 396.903156 256.283057 
" clip-path="url(#p435310c791)" style="fill: none; stroke: #808080; stroke-opacity: 0.4; stroke-width: 0.6; stroke-linecap: round"/>
   </g>
   <g id="line2d_61">
    <path d="M 60.863407 271.878752 
L 148.452715 271.878752 
L 149.29492 272.196493 
L 164.454608 284.445146 
L 165.296812 284.555239 
L 181.298705 275.424285 
L 196.458393 270.955293 
L 197.300598 270.449305 
L 212.460286 255.805656 
L 213.302491 254.477058 
L 228.462179 220.436057 
L 229.304384 220.309327 
L 248.675096 258.199428 
L 260.465964 281.829162 
L 261.308169 282.38973 
L 276.467857 269.315604 
L 277.310062 269.015645 
L 292.46975 271.637185 
L 293.311955 271.960501 
L 308.471643 281.953158 
L 309.313848 282.255205 
L 396.903156 282.255205 
L 396.903156 282.255205 
" clip-path="url(#p435310c791)" style="fill: none; stroke: #808080; stroke-opacity: 0.4; stroke-width: 0.6; stroke-linecap: round"/>
   </g>
   <g id="line2d_62">
    <path d="M 60.863407 293.987403 
L 148.452715 293.987403 
L 149.29492 293.564782 
L 165.296812 278.88887 
L 180.4565 267.94324 
L 181.298705 268.114966 
L 196.458393 284.637267 
L 197.300598 283.826444 
L 216.67131 230.671004 
L 228.462179 199.126207 
L 229.304384 199.877946 
L 244.464072 267.498157 
L 245.306277 270.041752 
L 260.465964 295.83485 
L 261.308169 295.861579 
L 276.467857 275.132481 
L 277.310062 274.901846 
L 292.46975 288.075337 
L 293.311955 287.886377 
L 308.471643 268.625249 
L 309.313848 268.125597 
L 396.903156 268.125597 
L 396.903156 268.125597 
" clip-path="url(#p435310c791)" style="fill: none; stroke: #808080; stroke-opacity: 0.4; stroke-width: 0.6; stroke-linecap: round"/>
   </g>
   <g id="line2d_63">
    <path d="M 60.863407 272.603266 
L 148.452715 272.603266 
L 149.29492 273.00721 
L 164.454608 288.578869 
L 165.296812 288.774969 
L 180.4565 279.720125 
L 181.298705 279.031393 
L 196.458393 263.436025 
L 197.300598 262.361058 
L 212.460286 238.531635 
L 213.302491 237.416553 
L 228.462179 221.449628 
L 229.304384 222.511711 
L 244.464072 276.713627 
L 245.306277 278.143332 
L 260.465964 277.814683 
L 261.308169 277.56474 
L 276.467857 268.304867 
L 277.310062 268.653803 
L 292.46975 291.175917 
L 293.311955 291.544944 
L 308.471643 282.992727 
L 309.313848 282.73422 
L 396.903156 282.73422 
L 396.903156 282.73422 
" clip-path="url(#p435310c791)" style="fill: none; stroke: #808080; stroke-opacity: 0.4; stroke-width: 0.6; stroke-linecap: round"/>
   </g>
   <g id="line2d_64">
    <path d="M 60.863407 260.213787 
L 148.452715 260.213787 
L 149.29492 260.632477 
L 164.454608 276.772573 
L 165.296812 277.390244 
L 180.4565 283.259923 
L 181.298705 283.185737 
L 198.142803 271.171603 
L 212.460286 260.043713 
L 213.302491 258.703728 
L 228.462179 221.108859 
L 229.304384 221.290633 
L 244.464072 265.429364 
L 245.306277 266.843206 
L 260.465964 268.973034 
L 261.308169 268.872966 
L 276.467857 262.583969 
L 277.310062 263.028075 
L 292.46975 285.948723 
L 293.311955 286.241024 
L 308.471643 268.46045 
L 309.313848 267.922999 
L 396.903156 267.922999 
L 396.903156 267.922999 
" clip-path="url(#p435310c791)" style="fill: none; stroke: #808080; stroke-opacity: 0.4; stroke-width: 0.6; stroke-linecap: round"/>
   </g>
   <g id="line2d_65">
    <path d="M 60.863407 288.855567 
L 148.452715 288.855567 
L 149.29492 288.385807 
L 164.454608 272.844679 
L 165.296812 272.286475 
L 180.4565 267.979913 
L 181.298705 268.262624 
L 196.458393 282.341544 
L 197.300598 282.421545 
L 212.460286 272.790499 
L 213.302491 270.532636 
L 228.462179 205.037331 
L 229.304384 203.958254 
L 244.464072 230.606802 
L 245.306277 232.42547 
L 260.465964 270.73492 
L 261.308169 271.756135 
L 276.467857 273.439648 
L 277.310062 273.949725 
L 292.46975 290.966978 
L 293.311955 291.236921 
L 308.471643 284.46204 
L 309.313848 284.286293 
L 396.903156 284.286293 
L 396.903156 284.286293 
" clip-path="url(#p435310c791)" style="fill: none; stroke: #808080; stroke-opacity: 0.4; stroke-width: 0.6; stroke-linecap: round"/>
   </g>
   <g id="line2d_66">
    <path d="M 60.863407 277.808774 
L 132.450822 277.808774 
L 133.293027 277.4383 
L 148.452715 262.449291 
L 149.29492 261.857464 
L 164.454608 256.154775 
L 165.296812 256.56892 
L 180.4565 277.7739 
L 181.298705 278.008349 
L 196.458393 265.976113 
L 197.300598 265.062101 
L 212.460286 243.335157 
L 213.302491 242.500255 
L 228.462179 234.788582 
L 229.304384 235.088244 
L 245.306277 254.503295 
L 260.465964 268.462732 
L 261.308169 269.018026 
L 277.310062 274.89587 
L 292.46975 284.202333 
L 293.311955 284.00718 
L 308.471643 263.767763 
L 309.313848 264.011683 
L 324.473536 273.036269 
L 325.315741 273.259325 
L 396.903156 273.259325 
L 396.903156 273.259325 
" clip-path="url(#p435310c791)" style="fill: none; stroke: #808080; stroke-opacity: 0.4; stroke-width: 0.6; stroke-linecap: round"/>
   </g>
   <g id="line2d_67">
    <path d="M 60.863407 271.468508 
L 149.29492 271.362034 
L 164.454608 266.445186 
L 168.665632 264.009473 
L 180.4565 257.112479 
L 181.298705 258.174322 
L 196.458393 296.879527 
L 197.300598 297.672402 
L 212.460286 255.371323 
L 214.986901 246.253473 
L 228.462179 196.780198 
L 229.304384 196.735345 
L 244.464072 250.778075 
L 245.306277 253.26068 
L 260.465964 263.473371 
L 261.308169 263.133497 
L 276.467857 249.962745 
L 277.310062 249.928786 
L 292.46975 267.254582 
L 294.15416 267.240514 
L 310.156053 266.200394 
L 396.903156 266.200394 
L 396.903156 266.200394 
" clip-path="url(#p435310c791)" style="fill: none; stroke: #808080; stroke-opacity: 0.4; stroke-width: 0.6; stroke-linecap: round"/>
   </g>
   <g id="line2d_68">
    <path d="M 60.863407 270.810899 
L 133.293027 270.810899 
L 137.504051 272.155512 
L 148.452715 275.719309 
L 149.29492 275.851851 
L 165.296812 274.065868 
L 181.298705 255.325983 
L 182.14091 255.921184 
L 196.458393 272.073604 
L 197.300598 272.335862 
L 213.302491 247.045177 
L 228.462179 208.784532 
L 229.304384 208.328195 
L 245.306277 231.490794 
L 261.308169 264.964353 
L 264.676989 268.882963 
L 276.467857 282.394309 
L 277.310062 282.466109 
L 293.311955 259.770404 
L 310.156053 264.495241 
L 325.315741 270.509876 
L 396.903156 270.509876 
L 396.903156 270.509876 
" clip-path="url(#p435310c791)" style="fill: none; stroke: #808080; stroke-opacity: 0.4; stroke-width: 0.6; stroke-linecap: round"/>
   </g>
   <g id="line2d_69">
    <path d="M 60.863407 270.509876 
L 132.450822 270.509876 
L 134.135232 270.109432 
L 150.137124 265.64026 
L 165.296812 262.272502 
L 180.4565 264.325885 
L 181.298705 264.740012 
L 196.458393 275.975989 
L 197.300598 276.28155 
L 212.460286 268.500887 
L 213.302491 266.194379 
L 228.462179 215.521624 
L 229.304384 214.334124 
L 244.464072 222.256903 
L 245.306277 222.92933 
L 262.150374 253.327165 
L 276.467857 277.624992 
L 277.310062 278.543635 
L 293.311955 282.082632 
L 308.471643 277.034793 
L 309.313848 277.474925 
L 324.473536 293.68245 
L 325.315741 294.291433 
L 396.903156 294.291433 
L 396.903156 294.291433 
" clip-path="url(#p435310c791)" style="fill: none; stroke: #808080; stroke-opacity: 0.4; stroke-width: 0.6; stroke-linecap: round"/>
   </g>
   <g id="line2d_70">
    <path d="M 60.863407 273.189393 
L 132.450822 273.189393 
L 133.293027 272.170112 
L 148.452715 245.042908 
L 149.29492 244.930266 
L 164.454608 282.195625 
L 165.296812 283.912064 
L 180.4565 259.486675 
L 181.298705 258.653062 
L 196.458393 250.244142 
L 197.300598 250.396965 
L 213.302491 280.45965 
L 228.462179 171.115123 
L 229.304384 169.930303 
L 245.306277 240.15159 
L 260.465964 292.102748 
L 261.308169 292.030356 
L 276.467857 267.727117 
L 277.310062 266.847985 
L 292.46975 263.132832 
L 293.311955 263.200361 
L 308.471643 298.839379 
L 309.313848 298.507617 
L 324.473536 265.955677 
L 325.315741 264.732567 
L 396.903156 264.732567 
L 396.903156 264.732567 
" clip-path="url(#p435310c791)" style="fill: none; stroke: #808080; stroke-opacity: 0.4; stroke-width: 0.6; stroke-linecap: round"/>
   </g>
   <g id="line2d_71">
    <path d="M 60.863407 264.732567 
L 116.448929 264.732567 
L 117.291134 264.946154 
L 133.293027 286.146987 
L 134.135232 285.844276 
L 148.452715 278.163006 
L 149.29492 278.157906 
L 164.454608 290.654596 
L 165.296812 291.036813 
L 181.298705 246.804774 
L 182.14091 247.220908 
L 196.458393 264.764995 
L 197.300598 265.444359 
L 213.302491 262.798612 
L 228.462179 212.440088 
L 229.304384 211.86774 
L 245.306277 243.362483 
L 261.308169 282.580207 
L 263.834784 286.131706 
L 276.467857 303.559499 
L 277.310062 303.49217 
L 292.46975 270.681625 
L 293.311955 269.211199 
L 309.313848 288.015963 
L 310.156053 288.330886 
L 325.315741 291.604349 
L 396.903156 291.604349 
L 396.903156 291.604349 
" clip-path="url(#p435310c791)" style="fill: none; stroke: #808080; stroke-opacity: 0.4; stroke-width: 0.6; stroke-linecap: round"/>
   </g>
   <g id="line2d_72">
    <path d="M 60.863407 267.716487 
L 116.448929 267.716487 
L 117.291134 267.897726 
L 134.135232 286.971928 
L 148.452715 304.461714 
L 149.29492 304.498496 
L 165.296812 275.875073 
L 180.4565 280.778958 
L 181.298705 280.251715 
L 197.300598 259.642457 
L 213.302491 241.938232 
L 228.462179 206.296498 
L 229.304384 207.286932 
L 244.464072 278.584273 
L 245.306277 281.570175 
L 260.465964 270.644363 
L 261.308169 271.462765 
L 276.467857 297.275114 
L 277.310062 297.658966 
L 293.311955 276.572566 
L 308.471643 273.27983 
L 309.313848 274.067981 
L 324.473536 299.42026 
L 325.315741 300.37285 
L 396.903156 300.37285 
L 396.903156 300.37285 
" clip-path="url(#p435310c791)" style="fill: none; stroke: #808080; stroke-opacity: 0.4; stroke-width: 0.6; stroke-linecap: round"/>
   </g>
   <g id="line2d_73">
    <path d="M 60.863407 271.114171 
L 69.285455 271.175273 
L 86.129553 273.47321 
L 105.500266 274.71785 
L 117.291134 275.293199 
L 133.293027 277.933237 
L 150.137124 276.394637 
L 165.296812 277.357889 
L 182.14091 272.654252 
L 196.458393 271.291676 
L 197.300598 271.07636 
L 212.460286 263.256115 
L 213.302491 261.834216 
L 228.462179 210.40867 
L 229.304384 210.20662 
L 244.464072 254.358348 
L 245.306277 256.162183 
L 260.465964 274.688445 
L 261.308169 275.222531 
L 278.994472 275.741515 
L 292.46975 277.07088 
L 294.15416 276.957344 
L 310.156053 276.792669 
L 327.00015 277.319865 
L 340.475429 278.240498 
L 341.317633 278.158998 
L 356.477321 274.189278 
L 357.319526 274.10165 
L 373.321419 274.943688 
L 390.165517 273.621342 
L 396.903156 273.621342 
L 396.903156 273.621342 
" clip-path="url(#p435310c791)" style="fill: none; stroke: #000000; stroke-width: 1.8; stroke-linecap: round"/>
   </g>
   <g id="patch_6">
    <path d="M 28.766803 316.86601 
L 28.766803 162.933365 
" style="fill: none; stroke: #000000; stroke-width: 0.8; stroke-linejoin: miter; stroke-linecap: square"/>
   </g>
   <g id="patch_7">
    <path d="M 28.766803 316.86601 
L 428.99976 316.86601 
" style="fill: none; stroke: #000000; stroke-width: 0.8; stroke-linejoin: miter; stroke-linecap: square"/>
   </g>
  </g>
  <g id="axes_3">
   <g id="patch_8">
    <path d="M 28.766803 476.799135 
L 428.99976 476.799135 
L 428.99976 322.86649 
L 28.766803 322.86649 
z
" style="fill: #ffffff"/>
   </g>
   <g id="matplotlib.axis_5">
    <g id="xtick_15">
     <g id="line2d_74"/>
     <g id="text_18">
      <text style="font-size: 8px; font-family: 'Arial', 'Liberation Sans', 'DejaVu Sans', 'Bitstream Vera Sans', sans-serif; text-anchor: middle" x="33.964633" y="486.025385" transform="rotate(-0 33.964633 486.025385)">−3</text>
     </g>
    </g>
    <g id="xtick_16">
     <g id="line2d_75"/>
     <g id="text_19">
      <text style="font-size: 8px; font-family: 'Arial', 'Liberation Sans', 'DejaVu Sans', 'Bitstream Vera Sans', sans-serif; text-anchor: middle" x="98.937516" y="486.025385" transform="rotate(-0 98.937516 486.025385)">−2</text>
     </g>
    </g>
    <g id="xtick_17">
     <g id="line2d_76"/>
     <g id="text_20">
      <text style="font-size: 8px; font-family: 'Arial', 'Liberation Sans', 'DejaVu Sans', 'Bitstream Vera Sans', sans-serif; text-anchor: middle" x="163.910399" y="486.025385" transform="rotate(-0 163.910399 486.025385)">−1</text>
     </g>
    </g>
    <g id="xtick_18">
     <g id="line2d_77"/>
     <g id="text_21">
      <text style="font-size: 8px; font-family: 'Arial', 'Liberation Sans', 'DejaVu Sans', 'Bitstream Vera Sans', sans-serif; text-anchor: middle" x="228.883281" y="486.025385" transform="rotate(-0 228.883281 486.025385)">0</text>
     </g>
    </g>
    <g id="xtick_19">
     <g id="line2d_78"/>
     <g id="text_22">
      <text style="font-size: 8px; font-family: 'Arial', 'Liberation Sans', 'DejaVu Sans', 'Bitstream Vera Sans', sans-serif; text-anchor: middle" x="293.856164" y="486.025385" transform="rotate(-0 293.856164 486.025385)">1</text>
     </g>
    </g>
    <g id="xtick_20">
     <g id="line2d_79"/>
     <g id="text_23">
      <text style="font-size: 8px; font-family: 'Arial', 'Liberation Sans', 'DejaVu Sans', 'Bitstream Vera Sans', sans-serif; text-anchor: middle" x="358.829047" y="486.025385" transform="rotate(-0 358.829047 486.025385)">2</text>
     </g>
    </g>
    <g id="xtick_21">
     <g id="line2d_80"/>
     <g id="text_24">
      <text style="font-size: 8px; font-family: 'Arial', 'Liberation Sans', 'DejaVu Sans', 'Bitstream Vera Sans', sans-serif; text-anchor: middle" x="423.801929" y="486.025385" transform="rotate(-0 423.801929 486.025385)">3</text>
     </g>
    </g>
    <g id="text_25">
     <text style="font-size: 10px; font-family: 'Arial', 'Liberation Sans', 'DejaVu Sans', 'Bitstream Vera Sans', sans-serif; text-anchor: middle" x="228.883281" y="498.895072" transform="rotate(-0 228.883281 498.895072)">Time (s)</text>
    </g>
   </g>
   <g id="matplotlib.axis_6">
    <g id="ytick_16">
     <g id="line2d_81"/>
     <g id="text_26">
      <text style="font-size: 8px; font-family: 'Arial', 'Liberation Sans', 'DejaVu Sans', 'Bitstream Vera Sans', sans-serif; text-anchor: end" x="25.266803" y="472.295597" transform="rotate(-0 25.266803 472.295597)">−2</text>
     </g>
    </g>
    <g id="ytick_17">
     <g id="line2d_82"/>
     <g id="text_27">
      <text style="font-size: 8px; font-family: 'Arial', 'Liberation Sans', 'DejaVu Sans', 'Bitstream Vera Sans', sans-serif; text-anchor: end" x="25.266803" y="450.994211" transform="rotate(-0 25.266803 450.994211)">−1</text>
     </g>
    </g>
    <g id="ytick_18">
     <g id="line2d_83"/>
     <g id="text_28">
      <text style="font-size: 8px; font-family: 'Arial', 'Liberation Sans', 'DejaVu Sans', 'Bitstream Vera Sans', sans-serif; text-anchor: end" x="25.266803" y="429.692825" transform="rotate(-0 25.266803 429.692825)">0</text>
     </g>
    </g>
    <g id="ytick_19">
     <g id="line2d_84"/>
     <g id="text_29">
      <text style="font-size: 8px; font-family: 'Arial', 'Liberation Sans', 'DejaVu Sans', 'Bitstream Vera Sans', sans-serif; text-anchor: end" x="25.266803" y="408.391439" transform="rotate(-0 25.266803 408.391439)">1</text>
     </g>
    </g>
    <g id="ytick_20">
     <g id="line2d_85"/>
     <g id="text_30">
      <text style="font-size: 8px; font-family: 'Arial', 'Liberation Sans', 'DejaVu Sans', 'Bitstream Vera Sans', sans-serif; text-anchor: end" x="25.266803" y="387.090053" transform="rotate(-0 25.266803 387.090053)">2</text>
     </g>
    </g>
    <g id="ytick_21">
     <g id="line2d_86"/>
     <g id="text_31">
      <text style="font-size: 8px; font-family: 'Arial', 'Liberation Sans', 'DejaVu Sans', 'Bitstream Vera Sans', sans-serif; text-anchor: end" x="25.266803" y="365.788667" transform="rotate(-0 25.266803 365.788667)">3</text>
     </g>
    </g>
    <g id="ytick_22">
     <g id="line2d_87"/>
     <g id="text_32">
      <text style="font-size: 8px; font-family: 'Arial', 'Liberation Sans', 'DejaVu Sans', 'Bitstream Vera Sans', sans-serif; text-anchor: end" x="25.266803" y="344.487281" transform="rotate(-0 25.266803 344.487281)">4</text>
     </g>
    </g>
    <g id="text_33">
     <text style="font-size: 10px; font-family: 'Arial', 'Liberation Sans', 'DejaVu Sans', 'Bitstream Vera Sans', sans-serif; text-anchor: middle" x="10.158053" y="399.832812" transform="rotate(-90 10.158053 399.832812)">roi3</text>
    </g>
   </g>
   <g id="line2d_88">
    <path d="M 76.846736 453.047739 
L 164.48685 453.047739 
L 165.248938 452.884186 
L 181.252785 446.823827 
L 196.494543 442.682325 
L 197.256631 442.110586 
L 212.49839 424.24471 
L 213.260478 422.246653 
L 228.502237 364.807166 
L 229.264325 365.372615 
L 244.506084 445.430038 
L 245.268172 446.933641 
L 260.509931 432.128338 
L 261.272019 431.861174 
L 276.513778 434.140081 
L 277.275866 434.729959 
L 292.517625 453.398622 
L 293.279713 453.847861 
L 321.476967 453.983469 
L 380.919827 453.983469 
L 380.919827 453.983469 
" clip-path="url(#p9377894e0e)" style="fill: none; stroke: #808080; stroke-opacity: 0.4; stroke-width: 0.6; stroke-linecap: round"/>
   </g>
   <g id="line2d_89">
    <path d="M 76.846736 453.983469 
L 148.483003 453.983469 
L 149.245091 453.659332 
L 164.48685 441.562349 
L 165.248938 441.302196 
L 181.252785 441.536739 
L 196.494543 444.664186 
L 197.256631 444.546805 
L 212.49839 437.371358 
L 213.260478 435.285381 
L 228.502237 366.239894 
L 229.264325 365.688722 
L 244.506084 412.687321 
L 245.268172 414.392545 
L 260.509931 436.920533 
L 261.272019 437.719814 
L 276.513778 448.435201 
L 277.275866 448.386348 
L 292.517625 438.969042 
L 293.279713 438.849872 
L 309.28356 442.98739 
L 380.919827 442.98739 
L 380.919827 442.98739 
" clip-path="url(#p9377894e0e)" style="fill: none; stroke: #808080; stroke-opacity: 0.4; stroke-width: 0.6; stroke-linecap: round"/>
   </g>
   <g id="line2d_90">
    <path d="M 76.846736 437.423081 
L 84.467615 437.423081 
L 85.229703 437.698178 
L 100.471462 448.413565 
L 101.23355 448.405364 
L 116.475309 438.988058 
L 117.237397 438.841701 
L 132.479156 442.888047 
L 133.241244 443.221371 
L 148.483003 452.415556 
L 149.245091 452.579358 
L 164.48685 450.730112 
L 165.248938 450.199401 
L 180.490697 429.996679 
L 181.252785 429.290467 
L 196.494543 421.136589 
L 197.256631 420.939552 
L 212.49839 420.713879 
L 213.260478 419.373575 
L 228.502237 362.961669 
L 229.264325 363.290195 
L 244.506084 432.843128 
L 245.268172 434.652264 
L 260.509931 440.874848 
L 261.272019 440.976321 
L 276.513778 439.627991 
L 277.275866 440.069742 
L 292.517625 459.272544 
L 293.279713 458.671719 
L 308.521472 418.117323 
L 309.28356 418.267586 
L 324.525319 457.00501 
L 325.287407 457.469535 
L 340.529166 436.236702 
L 341.291254 435.508163 
L 356.533012 427.13773 
L 357.2951 425.268405 
L 372.536859 363.64495 
L 373.298947 362.062887 
L 380.919827 362.062887 
L 380.919827 362.062887 
" clip-path="url(#p9377894e0e)" style="fill: none; stroke: #808080; stroke-opacity: 0.4; stroke-width: 0.6; stroke-linecap: round"/>
   </g>
   <g id="line2d_91">
    <path d="M 76.846736 421.639655 
L 164.48685 421.639655 
L 165.248938 421.979318 
L 180.490697 434.049361 
L 181.252785 434.850482 
L 196.494543 454.754994 
L 197.256631 454.527023 
L 212.49839 428.395649 
L 213.260478 425.897451 
L 228.502237 357.080836 
L 229.264325 356.82779 
L 244.506084 415.522548 
L 245.268172 417.144329 
L 261.272019 426.393572 
L 276.513778 433.31634 
L 277.275866 433.006913 
L 292.517625 413.469599 
L 293.279713 413.919348 
L 308.521472 448.996013 
L 309.28356 449.786362 
L 380.919827 449.786362 
L 380.919827 449.786362 
" clip-path="url(#p9377894e0e)" style="fill: none; stroke: #808080; stroke-opacity: 0.4; stroke-width: 0.6; stroke-linecap: round"/>
   </g>
   <g id="line2d_92">
    <path d="M 76.846736 433.046116 
L 165.248938 432.972844 
L 180.490697 430.369107 
L 181.252785 430.464002 
L 197.256631 437.157322 
L 212.49839 445.656595 
L 213.260478 442.789465 
L 228.502237 333.362997 
L 229.264325 332.713882 
L 244.506084 416.175751 
L 245.268172 418.827994 
L 260.509931 444.564138 
L 261.272019 444.917285 
L 276.513778 436.937889 
L 277.275866 436.688562 
L 292.517625 434.749104 
L 293.279713 434.48103 
L 308.521472 425.991421 
L 309.28356 425.800133 
L 380.919827 425.800133 
L 380.919827 425.800133 
" clip-path="url(#p9377894e0e)" style="fill: none; stroke: #808080; stroke-opacity: 0.4; stroke-width: 0.6; stroke-linecap: round"/>
   </g>
   <g id="line2d_93">
    <path d="M 76.846736 445.138252 
L 100.471462 445.138252 
L 101.23355 444.922655 
L 116.475309 436.943259 
L 117.237397 436.689867 
L 132.479156 434.75041 
L 133.241244 434.486744 
L 148.483003 425.997136 
L 149.245091 425.834647 
L 166.011026 427.14217 
L 181.252785 427.097917 
L 197.256631 429.863793 
L 212.49839 435.753308 
L 213.260478 433.009424 
L 228.502237 330.06216 
L 229.264325 330.111802 
L 244.506084 435.044767 
L 245.268172 437.675309 
L 260.509931 443.310846 
L 261.272019 442.62111 
L 276.513778 413.174258 
L 277.275866 412.995078 
L 292.517625 435.743159 
L 293.279713 436.314921 
L 308.521472 437.408949 
L 309.28356 437.132939 
L 324.525319 426.187059 
L 325.287407 426.373922 
L 340.529166 440.907151 
L 341.291254 438.455899 
L 356.533012 330.27764 
L 357.2951 329.863428 
L 372.536859 405.020091 
L 373.298947 406.629215 
L 380.919827 406.629215 
L 380.919827 406.629215 
" clip-path="url(#p9377894e0e)" style="fill: none; stroke: #808080; stroke-opacity: 0.4; stroke-width: 0.6; stroke-linecap: round"/>
   </g>
   <g id="line2d_94">
    <path d="M 76.846736 430.50438 
L 148.483003 430.50438 
L 149.245091 430.769942 
L 164.48685 442.555916 
L 165.248938 442.717694 
L 180.490697 436.59943 
L 182.014873 435.616874 
L 197.256631 424.675021 
L 212.49839 418.323392 
L 213.260478 416.55015 
L 228.502237 348.65839 
L 229.264325 348.81265 
L 244.506084 422.874818 
L 245.268172 425.163675 
L 260.509931 445.546219 
L 261.272019 445.846016 
L 277.275866 435.130606 
L 292.517625 429.652923 
L 293.279713 429.522125 
L 380.919827 429.522125 
L 380.919827 429.522125 
" clip-path="url(#p9377894e0e)" style="fill: none; stroke: #808080; stroke-opacity: 0.4; stroke-width: 0.6; stroke-linecap: round"/>
   </g>
   <g id="line2d_95">
    <path d="M 76.846736 436.221003 
L 149.245091 436.329482 
L 164.48685 441.143884 
L 165.248938 441.075818 
L 180.490697 432.958524 
L 181.252785 432.352184 
L 196.494543 416.287216 
L 197.256631 415.828225 
L 212.49839 415.195498 
L 213.260478 413.663222 
L 228.502237 349.588797 
L 229.264325 349.483311 
L 244.506084 409.338301 
L 245.268172 411.706796 
L 260.509931 447.867451 
L 261.272019 448.652541 
L 276.513778 441.152736 
L 277.275866 440.577733 
L 292.517625 425.004966 
L 293.279713 424.633117 
L 380.919827 424.633117 
L 380.919827 424.633117 
" clip-path="url(#p9377894e0e)" style="fill: none; stroke: #808080; stroke-opacity: 0.4; stroke-width: 0.6; stroke-linecap: round"/>
   </g>
   <g id="line2d_96">
    <path d="M 76.846736 440.082861 
L 149.245091 440.119629 
L 164.48685 441.751451 
L 165.248938 442.048689 
L 180.490697 452.711612 
L 181.252785 452.389237 
L 196.494543 429.135685 
L 197.256631 428.381942 
L 212.49839 423.459961 
L 213.260478 421.467337 
L 228.502237 342.708561 
L 229.264325 342.137126 
L 244.506084 398.038492 
L 245.268172 399.700976 
L 261.272019 413.178157 
L 277.275866 423.200449 
L 292.517625 436.815821 
L 293.279713 436.495383 
L 308.521472 411.782317 
L 309.28356 411.120134 
L 380.919827 411.120134 
L 380.919827 411.120134 
" clip-path="url(#p9377894e0e)" style="fill: none; stroke: #808080; stroke-opacity: 0.4; stroke-width: 0.6; stroke-linecap: round"/>
   </g>
   <g id="line2d_97">
    <path d="M 76.846736 418.596962 
L 148.483003 418.596962 
L 149.245091 419.207139 
L 164.48685 446.287536 
L 165.248938 446.464057 
L 180.490697 424.231753 
L 181.252785 423.940936 
L 196.494543 440.865981 
L 197.256631 440.335336 
L 212.49839 395.537376 
L 213.260478 394.107864 
L 228.502237 383.570105 
L 229.264325 384.559825 
L 244.506084 434.686394 
L 245.268172 436.332087 
L 260.509931 447.486518 
L 261.272019 447.224263 
L 276.513778 423.381049 
L 277.275866 423.361957 
L 292.517625 446.866409 
L 293.279713 447.527848 
L 380.919827 447.527848 
L 380.919827 447.527848 
" clip-path="url(#p9377894e0e)" style="fill: none; stroke: #808080; stroke-opacity: 0.4; stroke-width: 0.6; stroke-linecap: round"/>
   </g>
   <g id="line2d_98">
    <path d="M 76.846736 425.893956 
L 148.483003 425.893956 
L 149.245091 426.080919 
L 164.48685 434.378559 
L 165.248938 434.594594 
L 180.490697 434.564677 
L 181.252785 434.430764 
L 200.304983 426.396705 
L 212.49839 420.958377 
L 213.260478 418.802141 
L 228.502237 335.215816 
L 229.264325 335.231863 
L 244.506084 419.46005 
L 245.268172 422.345783 
L 260.509931 446.543339 
L 261.272019 447.306811 
L 276.513778 452.451231 
L 277.275866 451.786134 
L 292.517625 419.703765 
L 293.279713 419.266969 
L 308.521472 440.587014 
L 309.28356 441.158282 
L 380.919827 441.158282 
L 380.919827 441.158282 
" clip-path="url(#p9377894e0e)" style="fill: none; stroke: #808080; stroke-opacity: 0.4; stroke-width: 0.6; stroke-linecap: round"/>
   </g>
   <g id="line2d_99">
    <path d="M 76.846736 445.981381 
L 165.248938 445.931673 
L 180.490697 443.849937 
L 181.252785 443.61737 
L 196.494543 436.442133 
L 197.256631 435.299509 
L 213.260478 396.946818 
L 228.502237 366.932101 
L 229.264325 367.711251 
L 244.506084 428.892 
L 245.268172 430.601788 
L 260.509931 440.570152 
L 261.272019 440.593569 
L 276.513778 433.409094 
L 277.275866 433.652763 
L 292.517625 450.802393 
L 293.279713 451.31488 
L 309.28356 455.346206 
L 380.919827 455.346206 
L 380.919827 455.346206 
" clip-path="url(#p9377894e0e)" style="fill: none; stroke: #808080; stroke-opacity: 0.4; stroke-width: 0.6; stroke-linecap: round"/>
   </g>
   <g id="line2d_100">
    <path d="M 76.846736 455.346206 
L 148.483003 455.346206 
L 149.245091 454.482851 
L 164.48685 422.261944 
L 165.248938 421.989229 
L 180.490697 445.816531 
L 181.252785 446.128413 
L 196.494543 435.089306 
L 197.256631 434.989232 
L 212.49839 440.957004 
L 213.260478 439.707828 
L 228.502237 380.250122 
L 229.264325 379.22197 
L 244.506084 397.553602 
L 245.268172 399.006438 
L 260.509931 437.692237 
L 261.272019 438.093274 
L 276.513778 421.411576 
L 277.275866 421.144817 
L 292.517625 427.361673 
L 293.279713 427.473611 
L 310.045648 426.044453 
L 380.919827 426.044453 
L 380.919827 426.044453 
" clip-path="url(#p9377894e0e)" style="fill: none; stroke: #808080; stroke-opacity: 0.4; stroke-width: 0.6; stroke-linecap: round"/>
   </g>
   <g id="line2d_101">
    <path d="M 76.846736 425.108094 
L 148.483003 425.108094 
L 149.245091 425.430536 
L 165.248938 440.335455 
L 180.490697 449.579762 
L 181.252785 449.299522 
L 196.494543 423.123927 
L 197.256631 422.329211 
L 212.49839 419.19786 
L 213.260478 418.010433 
L 228.502237 371.298057 
L 229.264325 371.651722 
L 244.506084 432.510673 
L 245.268172 434.25437 
L 260.509931 436.279298 
L 261.272019 436.567443 
L 276.513778 446.569415 
L 277.275866 446.611778 
L 292.517625 438.138527 
L 293.279713 437.439771 
L 308.521472 416.381558 
L 309.28356 415.817306 
L 380.919827 415.817306 
L 380.919827 415.817306 
" clip-path="url(#p9377894e0e)" style="fill: none; stroke: #808080; stroke-opacity: 0.4; stroke-width: 0.6; stroke-linecap: round"/>
   </g>
   <g id="line2d_102">
    <path d="M 76.846736 430.217511 
L 148.483003 430.217511 
L 149.245091 430.532824 
L 164.48685 442.300504 
L 165.248938 442.144045 
L 180.490697 422.718328 
L 181.252785 422.904507 
L 196.494543 449.365573 
L 197.256631 449.829851 
L 212.49839 443.970311 
L 213.260478 442.393166 
L 228.502237 390.533587 
L 229.264325 390.154567 
L 244.506084 426.853356 
L 245.268172 427.713223 
L 261.272019 427.448553 
L 276.513778 429.381882 
L 277.275866 429.939619 
L 292.517625 450.482792 
L 293.279713 450.686322 
L 308.521472 439.699176 
L 309.28356 439.451613 
L 380.919827 439.451613 
L 380.919827 439.451613 
" clip-path="url(#p9377894e0e)" style="fill: none; stroke: #808080; stroke-opacity: 0.4; stroke-width: 0.6; stroke-linecap: round"/>
   </g>
   <g id="line2d_103">
    <path d="M 76.846736 451.173972 
L 132.479156 451.173972 
L 133.241244 450.785283 
L 148.483003 432.438692 
L 149.245091 432.502816 
L 164.48685 457.714327 
L 165.248938 457.814262 
L 180.490697 434.419112 
L 181.252785 434.251612 
L 196.494543 450.590203 
L 197.256631 450.439696 
L 212.49839 423.410439 
L 213.260478 421.735646 
L 228.502237 381.037151 
L 229.264325 381.275336 
L 244.506084 431.501261 
L 245.268172 432.72894 
L 260.509931 424.828758 
L 261.272019 425.181827 
L 276.513778 449.210554 
L 277.275866 449.320287 
L 292.517625 429.285448 
L 293.279713 429.600417 
L 308.521472 469.802197 
L 309.28356 468.902285 
L 324.525319 443.73905 
L 325.287407 443.205944 
L 380.919827 443.205944 
L 380.919827 443.205944 
" clip-path="url(#p9377894e0e)" style="fill: none; stroke: #808080; stroke-opacity: 0.4; stroke-width: 0.6; stroke-linecap: round"/>
   </g>
   <g id="line2d_104">
    <path d="M 76.846736 436.395704 
L 149.245091 436.315404 
L 164.48685 431.920057 
L 166.011026 433.238511 
L 180.490697 446.6073 
L 181.252785 446.706709 
L 196.494543 440.288456 
L 197.256631 439.605799 
L 216.30883 398.995243 
L 228.502237 373.599429 
L 229.264325 374.181842 
L 244.506084 429.223128 
L 245.268172 431.356644 
L 260.509931 419.850642 
L 261.272019 420.478383 
L 276.513778 442.189094 
L 277.275866 442.723735 
L 292.517625 437.578365 
L 295.565977 440.250329 
L 308.521472 451.810458 
L 309.28356 452.058922 
L 380.919827 452.058922 
L 380.919827 452.058922 
" clip-path="url(#p9377894e0e)" style="fill: none; stroke: #808080; stroke-opacity: 0.4; stroke-width: 0.6; stroke-linecap: round"/>
   </g>
   <g id="line2d_105">
    <path d="M 76.846736 444.677334 
L 133.241244 444.677334 
L 134.003332 443.917496 
L 148.483003 426.458886 
L 149.245091 426.058605 
L 165.248938 436.539334 
L 181.252785 435.431562 
L 182.014873 436.144186 
L 196.494543 454.868646 
L 197.256631 455.331736 
L 213.260478 436.227069 
L 217.070918 416.567126 
L 228.502237 357.235874 
L 229.264325 357.200983 
L 245.268172 438.254981 
L 261.272019 458.366652 
L 262.034107 457.525743 
L 276.513778 436.522946 
L 277.275866 435.907497 
L 292.517625 437.684942 
L 293.279713 437.651103 
L 309.28356 412.71711 
L 310.045648 412.966174 
L 324.525319 425.304229 
L 325.287407 425.745469 
L 380.919827 425.745469 
L 380.919827 425.745469 
" clip-path="url(#p9377894e0e)" style="fill: none; stroke: #808080; stroke-opacity: 0.4; stroke-width: 0.6; stroke-linecap: round"/>
   </g>
   <g id="line2d_106">
    <path d="M 76.846736 425.745469 
L 132.479156 425.745469 
L 133.241244 426.085071 
L 148.483003 436.080933 
L 149.245091 436.809374 
L 165.248938 460.320819 
L 180.490697 433.897954 
L 181.252785 433.245307 
L 196.494543 429.493168 
L 197.256631 429.652634 
L 212.49839 451.083512 
L 213.260478 448.053265 
L 228.502237 368.71575 
L 229.264325 366.998381 
L 244.506084 377.641113 
L 245.268172 378.707174 
L 260.509931 446.792789 
L 261.272019 447.13429 
L 278.037954 429.122277 
L 292.517625 415.023926 
L 293.279713 414.469813 
L 308.521472 438.713915 
L 309.28356 439.41673 
L 324.525319 447.607318 
L 325.287407 447.885588 
L 380.919827 447.885588 
L 380.919827 447.885588 
" clip-path="url(#p9377894e0e)" style="fill: none; stroke: #808080; stroke-opacity: 0.4; stroke-width: 0.6; stroke-linecap: round"/>
   </g>
   <g id="line2d_107">
    <path d="M 76.846736 430.433798 
L 132.479156 430.433798 
L 133.241244 431.015548 
L 148.483003 448.138741 
L 149.245091 448.635413 
L 165.248938 445.939124 
L 180.490697 437.708859 
L 181.252785 436.746257 
L 196.494543 409.826917 
L 197.256631 409.274252 
L 213.260478 441.447483 
L 215.546742 429.551652 
L 228.502237 360.928244 
L 229.264325 360.437211 
L 245.268172 424.158985 
L 260.509931 439.533335 
L 261.272019 438.90422 
L 276.513778 415.683541 
L 277.275866 415.595259 
L 292.517625 444.671236 
L 293.279713 445.859375 
L 308.521472 419.678179 
L 309.28356 419.808319 
L 324.525319 438.983754 
L 325.287407 439.635227 
L 380.919827 439.635227 
L 380.919827 439.635227 
" clip-path="url(#p9377894e0e)" style="fill: none; stroke: #808080; stroke-opacity: 0.4; stroke-width: 0.6; stroke-linecap: round"/>
   </g>
   <g id="line2d_108">
    <path d="M 76.846736 452.674076 
L 133.241244 452.674076 
L 135.527508 451.899546 
L 148.483003 447.241829 
L 149.245091 447.283319 
L 165.248938 459.597433 
L 181.252785 445.91951 
L 182.014873 445.753778 
L 196.494543 445.894258 
L 197.256631 445.783026 
L 213.260478 436.90071 
L 217.070918 412.055502 
L 228.502237 336.991263 
L 229.264325 336.828772 
L 244.506084 430.41481 
L 245.268172 434.217667 
L 261.272019 433.474957 
L 263.558283 434.501462 
L 276.513778 440.604844 
L 277.275866 440.668529 
L 293.279713 433.049743 
L 309.28356 416.581484 
L 310.045648 416.956701 
L 324.525319 430.225037 
L 325.287407 430.699546 
L 380.919827 430.699546 
L 380.919827 430.699546 
" clip-path="url(#p9377894e0e)" style="fill: none; stroke: #808080; stroke-opacity: 0.4; stroke-width: 0.6; stroke-linecap: round"/>
   </g>
   <g id="line2d_109">
    <path d="M 76.846736 430.699546 
L 116.475309 430.699546 
L 132.479156 419.448609 
L 133.241244 419.286377 
L 147.720915 419.553098 
L 148.483003 419.692699 
L 164.48685 432.085824 
L 166.011026 432.122197 
L 181.252785 431.985781 
L 196.494543 434.361195 
L 212.49839 430.025691 
L 213.260478 428.035143 
L 228.502237 380.07634 
L 229.264325 378.951419 
L 244.506084 382.022004 
L 260.509931 444.426282 
L 261.272019 445.15549 
L 275.75169 442.797529 
L 276.513778 442.525217 
L 292.517625 428.076765 
L 298.614328 425.051246 
L 308.521472 420.160764 
L 309.28356 420.091805 
L 324.525319 422.168605 
L 340.529166 414.503344 
L 342.815429 414.451868 
L 380.919827 414.451868 
L 380.919827 414.451868 
" clip-path="url(#p9377894e0e)" style="fill: none; stroke: #808080; stroke-opacity: 0.4; stroke-width: 0.6; stroke-linecap: round"/>
   </g>
   <g id="line2d_110">
    <path d="M 76.846736 437.455935 
L 88.278055 437.565852 
L 101.995638 437.905792 
L 121.047837 437.014337 
L 142.386299 436.365622 
L 148.483003 436.114978 
L 149.245091 436.210424 
L 164.48685 441.173272 
L 165.248938 441.302986 
L 181.252785 437.071923 
L 185.825312 436.552747 
L 196.494543 435.38673 
L 197.256631 435.127799 
L 212.49839 427.008814 
L 213.260478 425.363383 
L 228.502237 360.993378 
L 229.264325 360.856511 
L 244.506084 419.779842 
L 245.268172 421.857693 
L 260.509931 437.825223 
L 261.272019 438.09526 
L 270.417074 436.216882 
L 277.275866 434.872693 
L 293.279713 435.771369 
L 309.28356 434.007074 
L 312.331911 434.511528 
L 325.287407 436.729827 
L 340.529166 436.09347 
L 341.291254 435.946594 
L 356.533012 430.648926 
L 357.2951 430.545129 
L 374.823123 431.161505 
L 380.919827 431.161505 
L 380.919827 431.161505 
" clip-path="url(#p9377894e0e)" style="fill: none; stroke: #000000; stroke-width: 1.8; stroke-linecap: round"/>
   </g>
   <g id="LineCollection_1">
    <path d="M 48.77845 461.40587 
L 433 461.40587 
" clip-path="url(#p9377894e0e)" style="fill: none; stroke: #000000; stroke-width: 1.5"/>
   </g>
   <g id="LineCollection_2">
    <path d="M 48.77845 461.40587 
L 48.77845 440.104485 
" clip-path="url(#p9377894e0e)" style="fill: none; stroke: #000000; stroke-width: 1.5"/>
   </g>
   <g id="patch_9">
    <path d="M 28.766803 476.799135 
L 28.766803 322.86649 
" style="fill: none; stroke: #000000; stroke-width: 0.8; stroke-linejoin: miter; stroke-linecap: square"/>
   </g>
   <g id="patch_10">
    <path d="M 28.766803 476.799135 
L 428.99976 476.799135 
" style="fill: none; stroke: #000000; stroke-width: 0.8; stroke-linejoin: miter; stroke-linecap: square"/>
   </g>
   <g id="text_34">
    <text style="font-size: 8px; font-family: 'Arial', 'Liberation Sans', 'DejaVu Sans', 'Bitstream Vera Sans', sans-serif; text-anchor: middle" x="373.642864" y="473.289426" transform="rotate(-0 373.642864 473.289426)">10 s</text>
   </g>
   <g id="text_35">
    <text style="font-size: 8px; font-family: 'Arial', 'Liberation Sans', 'DejaVu Sans', 'Bitstream Vera Sans', sans-serif" transform="translate(39.183791 470.538928) rotate(-90)">1.0 z-score</text>
   </g>
  </g>
 </g>
 <defs>
  <clipPath id="pd7da73d7d7">
   <rect x="28.766803" y="3.00024" width="400.232958" height="153.932645"/>
  </clipPath>
  <clipPath id="p435310c791">
   <rect x="28.766803" y="162.933365" width="400.232958" height="153.932645"/>
  </clipPath>
  <clipPath id="p9377894e0e">
   <rect x="28.766803" y="322.86649" width="400.232958" height="153.932645"/>
  </clipPath>
 </defs>
</svg>
