<?xml version="1.0" encoding="utf-8" standalone="no"?>
<!DOCTYPE svg PUBLIC "-//W3C//DTD SVG 1.1//EN"
  "http://www.w3.org/Graphics/SVG/1.1/DTD/svg11.dtd">
<svg xmlns:xlink="http://www.w3.org/1999/xlink" width="432pt" height="216pt" viewBox="0 0 432 216" xmlns="http://www.w3.org/2000/svg" version="1.1">
 <metadata>
  <rdf:RDF xmlns:dc="http://purl.org/dc/elements/1.1/" xmlns:cc="http://creativecommons.org/ns#" xmlns:rdf="http://www.w3.org/1999/02/22-rdf-syntax-ns#">
   <cc:Work>
    <dc:type rdf:resource="http://purl.org/dc/dcmitype/StillImage"/>
    <dc:date>2025-12-09T15:52:43.003625</dc:date>
    <dc:format>image/svg+xml</dc:format>
    <dc:creator>
     <cc:Agent>
      <dc:title>Matplotlib v3.10.0, https://matplotlib.org/</dc:title>
     </cc:Agent>
    </dc:creator>
   </cc:Work>
  </rdf:RDF>
 </metadata>
 <defs>
  <style type="text/css">*{stroke-linejoin: round; stroke-linecap: butt}</style>
 </defs>
 <g id="figure_1">
  <g id="patch_1">
   <path d="M 0 216 
L 432 216 
L 432 0 
L 0 0 
z
" style="fill: #ffffff"/>
  </g>
  <g id="axes_1">
   <g id="patch_2">
    <path d="M 29.005865 188.799135 
L 423.43976 188.799135 
L 423.43976 3.00024 
L 29.005865 3.00024 
z
" style="fill: #ffffff"/>
   </g>
   <g id="matplotlib.axis_1">
    <g id="xtick_1">
     <g id="line2d_1"/>
     <g id="text_1">
      <text style="font-size: 8px; font-family: 'Arial', 'Liberation Sans', 'DejaVu Sans', 'Bitstream Vera Sans', sans-serif; text-anchor: middle" x="29.005865" y="198.025385" transform="rotate(-0 29.005865 198.025385)">−2.0</text>
     </g>
    </g>
    <g id="xtick_2">
     <g id="line2d_2"/>
     <g id="text_2">
      <text style="font-size: 8px; font-family: 'Arial', 'Liberation Sans', 'DejaVu Sans', 'Bitstream Vera Sans', sans-serif; text-anchor: middle" x="78.310102" y="198.025385" transform="rotate(-0 78.310102 198.025385)">−1.5</text>
     </g>
    </g>
    <g id="xtick_3">
     <g id="line2d_3"/>
     <g id="text_3">
      <text style="font-size: 8px; font-family: 'Arial', 'Liberation Sans', 'DejaVu Sans', 'Bitstream Vera Sans', sans-serif; text-anchor: middle" x="127.614339" y="198.025385" transform="rotate(-0 127.614339 198.025385)">−1.0</text>
     </g>
    </g>
    <g id="xtick_4">
     <g id="line2d_4"/>
     <g id="text_4">
      <text style="font-size: 8px; font-family: 'Arial', 'Liberation Sans', 'DejaVu Sans', 'Bitstream Vera Sans', sans-serif; text-anchor: middle" x="176.918576" y="198.025385" transform="rotate(-0 176.918576 198.025385)">−0.5</text>
     </g>
    </g>
    <g id="xtick_5">
     <g id="line2d_5"/>
     <g id="text_5">
      <text style="font-size: 8px; font-family: 'Arial', 'Liberation Sans', 'DejaVu Sans', 'Bitstream Vera Sans', sans-serif; text-anchor: middle" x="226.222813" y="198.025385" transform="rotate(-0 226.222813 198.025385)">0.0</text>
     </g>
    </g>
    <g id="xtick_6">
     <g id="line2d_6"/>
     <g id="text_6">
      <text style="font-size: 8px; font-family: 'Arial', 'Liberation Sans', 'DejaVu Sans', 'Bitstream Vera Sans', sans-serif; text-anchor: middle" x="275.527049" y="198.025385" transform="rotate(-0 275.527049 198.025385)">0.5</text>
     </g>
    </g>
    <g id="xtick_7">
     <g id="line2d_7"/>
     <g id="text_7">
      <text style="font-size: 8px; font-family: 'Arial', 'Liberation Sans', 'DejaVu Sans', 'Bitstream Vera Sans', sans-serif; text-anchor: middle" x="324.831286" y="198.025385" transform="rotate(-0 324.831286 198.025385)">1.0</text>
     </g>
    </g>
    <g id="xtick_8">
     <g id="line2d_8"/>
     <g id="text_8">
      <text style="font-size: 8px; font-family: 'Arial', 'Liberation Sans', 'DejaVu Sans', 'Bitstream Vera Sans', sans-serif; text-anchor: middle" x="374.135523" y="198.025385" transform="rotate(-0 374.135523 198.025385)">1.5</text>
     </g>
    </g>
    <g id="xtick_9">
     <g id="line2d_9"/>
     <g id="text_9">
      <text style="font-size: 8px; font-family: 'Arial', 'Liberation Sans', 'DejaVu Sans', 'Bitstream Vera Sans', sans-serif; text-anchor: middle" x="423.43976" y="198.025385" transform="rotate(-0 423.43976 198.025385)">2.0</text>
     </g>
    </g>
    <g id="text_10">
     <text style="font-size: 10px; font-family: 'Arial', 'Liberation Sans', 'DejaVu Sans', 'Bitstream Vera Sans', sans-serif; text-anchor: middle" x="226.222813" y="210.895072" transform="rotate(-0 226.222813 210.895072)">Time (s)</text>
    </g>
   </g>
   <g id="matplotlib.axis_2">
    <g id="ytick_1">
     <g id="line2d_10"/>
     <g id="text_11">
      <text style="font-size: 8px; font-family: 'Arial', 'Liberation Sans', 'DejaVu Sans', 'Bitstream Vera Sans', sans-serif; text-anchor: end" x="25.505865" y="175.757361" transform="rotate(-0 25.505865 175.757361)">−2</text>
     </g>
    </g>
    <g id="ytick_2">
     <g id="line2d_11"/>
     <g id="text_12">
      <text style="font-size: 8px; font-family: 'Arial', 'Liberation Sans', 'DejaVu Sans', 'Bitstream Vera Sans', sans-serif; text-anchor: end" x="25.505865" y="152.816402" transform="rotate(-0 25.505865 152.816402)">−1</text>
     </g>
    </g>
    <g id="ytick_3">
     <g id="line2d_12"/>
     <g id="text_13">
      <text style="font-size: 8px; font-family: 'Arial', 'Liberation Sans', 'DejaVu Sans', 'Bitstream Vera Sans', sans-serif; text-anchor: end" x="25.505865" y="129.875444" transform="rotate(-0 25.505865 129.875444)">0</text>
     </g>
    </g>
    <g id="ytick_4">
     <g id="line2d_13"/>
     <g id="text_14">
      <text style="font-size: 8px; font-family: 'Arial', 'Liberation Sans', 'DejaVu Sans', 'Bitstream Vera Sans', sans-serif; text-anchor: end" x="25.505865" y="106.934485" transform="rotate(-0 25.505865 106.934485)">1</text>
     </g>
    </g>
    <g id="ytick_5">
     <g id="line2d_14"/>
     <g id="text_15">
      <text style="font-size: 8px; font-family: 'Arial', 'Liberation Sans', 'DejaVu Sans', 'Bitstream Vera Sans', sans-serif; text-anchor: end" x="25.505865" y="83.993526" transform="rotate(-0 25.505865 83.993526)">2</text>
     </g>
    </g>
    <g id="ytick_6">
     <g id="line2d_15"/>
     <g id="text_16">
      <text style="font-size: 8px; font-family: 'Arial', 'Liberation Sans', 'DejaVu Sans', 'Bitstream Vera Sans', sans-serif; text-anchor: end" x="25.505865" y="61.052568" transform="rotate(-0 25.505865 61.052568)">3</text>
     </g>
    </g>
    <g id="ytick_7">
     <g id="line2d_16"/>
     <g id="text_17">
      <text style="font-size: 8px; font-family: 'Arial', 'Liberation Sans', 'DejaVu Sans', 'Bitstream Vera Sans', sans-serif; text-anchor: end" x="25.505865" y="38.111609" transform="rotate(-0 25.505865 38.111609)">4</text>
     </g>
    </g>
    <g id="ytick_8">
     <g id="line2d_17"/>
     <g id="text_18">
      <text style="font-size: 8px; font-family: 'Arial', 'Liberation Sans', 'DejaVu Sans', 'Bitstream Vera Sans', sans-serif; text-anchor: end" x="25.505865" y="15.170651" transform="rotate(-0 25.505865 15.170651)">5</text>
     </g>
    </g>
    <g id="text_19">
     <text style="font-size: 10px; font-family: 'Arial', 'Liberation Sans', 'DejaVu Sans', 'Bitstream Vera Sans', sans-serif; text-anchor: middle" x="10.279927" y="95.899687" transform="rotate(-90 10.279927 95.899687)">Signal (z-score)</text>
    </g>
   </g>
   <g id="line2d_18">
    <path d="M -1 150.487346 
L 128.385407 150.38865 
L 129.542018 150.067883 
L 152.674231 128.95451 
L 153.830841 128.631979 
L 156.144062 130.460712 
L 175.806443 146.749331 
L 176.963054 147.51755 
L 178.119665 147.465564 
L 179.276275 146.260208 
L 201.251877 120.086911 
L 202.408488 118.331963 
L 205.87832 111.674207 
L 225.540701 73.562836 
L 226.697311 73.41496 
L 227.853922 74.848381 
L 249.829524 111.973208 
L 250.986135 112.568319 
L 252.142746 112.441512 
L 274.118348 103.935766 
L 275.274958 104.11474 
L 276.431569 104.571035 
L 299.563782 116.628768 
L 305.346835 120.500083 
L 322.695994 132.199777 
L 325.009216 134.219416 
L 346.984818 155.135223 
L 348.141429 155.588458 
L 349.298039 155.730106 
L 433 155.730106 
L 433 155.730106 
" clip-path="url(#p62216efa0c)" style="fill: none; stroke: #808080; stroke-opacity: 0.4; stroke-width: 0.5; stroke-linecap: round"/>
   </g>
   <g id="line2d_19">
    <path d="M -1 118.638345 
L 128.385407 118.731271 
L 129.542018 119.033286 
L 152.674231 139.03261 
L 153.830841 139.821596 
L 159.613894 141.947184 
L 176.963054 148.279594 
L 178.119665 148.866262 
L 183.902718 152.862599 
L 200.095267 164.13067 
L 201.251877 164.666005 
L 202.408488 163.368453 
L 203.565099 159.845447 
L 225.540701 83.345341 
L 226.697311 82.662457 
L 227.853922 84.503355 
L 249.829524 135.276377 
L 250.986135 137.138481 
L 252.142746 138.570162 
L 274.118348 162.137305 
L 275.274958 161.918111 
L 276.431569 161.052985 
L 298.407171 138.35511 
L 299.563782 137.738616 
L 300.720392 137.410375 
L 322.695994 134.236297 
L 325.009216 133.5905 
L 346.984818 126.282923 
L 349.298039 126.075082 
L 433 126.075082 
L 433 126.075082 
" clip-path="url(#p62216efa0c)" style="fill: none; stroke: #808080; stroke-opacity: 0.4; stroke-width: 0.5; stroke-linecap: round"/>
   </g>
   <g id="line2d_20">
    <path d="M -1 143.34342 
L 128.385407 143.264652 
L 129.542018 143.008654 
L 152.674231 126.136674 
L 153.830841 125.791295 
L 157.300673 127.306793 
L 176.963054 136.13304 
L 178.119665 136.132367 
L 180.432886 134.842318 
L 201.251877 122.323769 
L 202.408488 120.747934 
L 204.721709 115.501774 
L 225.540701 66.573086 
L 226.697311 67.395598 
L 227.853922 70.891385 
L 249.829524 154.025731 
L 250.986135 155.524815 
L 252.142746 155.495721 
L 276.431569 140.513263 
L 298.407171 125.56745 
L 299.563782 125.973769 
L 300.720392 126.974879 
L 322.695994 152.315281 
L 323.852605 152.403001 
L 325.009216 151.901707 
L 346.984818 136.382624 
L 348.141429 136.046333 
L 350.45465 135.941233 
L 433 135.941233 
L 433 135.941233 
" clip-path="url(#p62216efa0c)" style="fill: none; stroke: #808080; stroke-opacity: 0.4; stroke-width: 0.5; stroke-linecap: round"/>
   </g>
   <g id="line2d_21">
    <path d="M -1 147.742739 
L 128.385407 147.713876 
L 129.542018 147.620068 
L 152.674231 141.523805 
L 153.830841 141.745436 
L 157.300673 145.105622 
L 175.806443 163.361915 
L 176.963054 164.119566 
L 178.119665 163.221701 
L 179.276275 159.995857 
L 201.251877 92.318187 
L 202.408488 89.673268 
L 203.565099 88.005675 
L 225.540701 60.758101 
L 226.697311 61.310011 
L 227.853922 63.36104 
L 249.829524 111.720602 
L 252.142746 117.73639 
L 274.118348 178.371407 
L 275.274958 178.185878 
L 276.431569 176.09892 
L 298.407171 117.468826 
L 299.563782 117.648146 
L 300.720392 119.455429 
L 322.695994 171.089944 
L 323.852605 171.935886 
L 325.009216 171.897038 
L 346.984818 162.154235 
L 348.141429 161.943114 
L 350.45465 161.877133 
L 433 161.877133 
L 433 161.877133 
" clip-path="url(#p62216efa0c)" style="fill: none; stroke: #808080; stroke-opacity: 0.4; stroke-width: 0.5; stroke-linecap: round"/>
   </g>
   <g id="line2d_22">
    <path d="M -1 180.353731 
L 30.073503 180.353731 
L 31.230113 180.1811 
L 32.386724 179.226236 
L 54.362326 120.596143 
L 55.518937 117.985846 
L 56.675547 116.701255 
L 78.65115 168.33577 
L 79.80776 170.730215 
L 80.964371 172.416717 
L 102.939973 162.673914 
L 104.096584 161.853719 
L 105.253194 160.404392 
L 127.228796 97.685375 
L 128.385407 94.846601 
L 129.542018 93.047859 
L 137.638292 104.831476 
L 153.830841 128.304935 
L 167.710169 144.551863 
L 175.806443 154.020782 
L 176.963054 154.978744 
L 178.119665 154.232081 
L 179.276275 151.088379 
L 201.251877 84.820527 
L 202.408488 82.575819 
L 203.565099 81.655872 
L 225.540701 70.122193 
L 226.697311 71.207529 
L 227.853922 73.570345 
L 249.829524 126.44936 
L 250.986135 127.645747 
L 252.142746 127.999143 
L 274.118348 127.594808 
L 275.274958 128.412218 
L 276.431569 129.701877 
L 298.407171 158.918842 
L 299.563782 158.168685 
L 300.720392 156.2778 
L 322.695994 108.231455 
L 323.852605 107.853078 
L 325.009216 108.491248 
L 346.984818 130.962071 
L 348.141429 130.745986 
L 349.298039 129.856895 
L 371.273641 107.151139 
L 372.430252 106.683756 
L 373.586863 106.637721 
L 395.562465 109.377829 
L 396.719075 110.63419 
L 397.875686 112.60594 
L 419.851288 154.454099 
L 421.007899 155.490571 
L 422.164509 155.654223 
L 433 155.654223 
L 433 155.654223 
" clip-path="url(#p62216efa0c)" style="fill: none; stroke: #808080; stroke-opacity: 0.4; stroke-width: 0.5; stroke-linecap: round"/>
   </g>
   <g id="line2d_23">
    <path d="M -1 127.059231 
L 102.939973 127.059231 
L 104.096584 127.237142 
L 105.253194 127.801937 
L 127.228796 166.903306 
L 128.385407 168.54041 
L 129.542018 169.23055 
L 141.108124 144.415208 
L 152.674231 119.711895 
L 153.830841 117.789159 
L 157.300673 114.859659 
L 175.806443 99.588797 
L 176.963054 98.809319 
L 178.119665 98.785343 
L 179.276275 99.823749 
L 200.095267 121.327401 
L 201.251877 122.260255 
L 202.408488 121.412812 
L 203.565099 118.40377 
L 225.540701 51.897902 
L 226.697311 50.982377 
L 227.853922 52.017966 
L 249.829524 83.916225 
L 250.986135 86.178158 
L 253.299356 91.459262 
L 274.118348 140.228356 
L 275.274958 141.404948 
L 276.431569 141.718451 
L 298.407171 139.060665 
L 299.563782 138.533737 
L 301.877003 136.986014 
L 322.695994 122.085327 
L 323.852605 121.737142 
L 325.009216 121.615693 
L 433 121.615693 
L 433 121.615693 
" clip-path="url(#p62216efa0c)" style="fill: none; stroke: #808080; stroke-opacity: 0.4; stroke-width: 0.5; stroke-linecap: round"/>
   </g>
   <g id="line2d_24">
    <path d="M -1 144.500941 
L 105.253194 144.411993 
L 130.698628 138.911745 
L 152.674231 133.116792 
L 153.830841 132.635532 
L 161.927116 127.131961 
L 176.963054 116.966652 
L 178.119665 116.681165 
L 180.432886 117.728268 
L 200.095267 127.57072 
L 201.251877 127.931545 
L 202.408488 126.808911 
L 203.565099 123.885093 
L 225.540701 60.554071 
L 226.697311 59.364149 
L 227.853922 59.792081 
L 249.829524 78.059755 
L 250.986135 79.796092 
L 253.299356 84.275096 
L 274.118348 126.232905 
L 275.274958 127.926713 
L 276.431569 129.261739 
L 298.407171 151.046259 
L 299.563782 151.475137 
L 300.720392 151.546188 
L 323.852605 149.040165 
L 330.792269 149.021234 
L 433 149.021234 
L 433 149.021234 
" clip-path="url(#p62216efa0c)" style="fill: none; stroke: #808080; stroke-opacity: 0.4; stroke-width: 0.5; stroke-linecap: round"/>
   </g>
   <g id="line2d_25">
    <path d="M -1 121.172595 
L 104.096584 121.10792 
L 105.253194 120.902603 
L 127.228796 106.688298 
L 128.385407 106.188686 
L 129.542018 106.248233 
L 145.734567 133.307438 
L 151.51762 142.977164 
L 152.674231 144.634507 
L 153.830841 145.452481 
L 156.144062 143.371131 
L 176.963054 123.533697 
L 178.119665 122.847784 
L 180.432886 122.826831 
L 201.251877 123.385451 
L 202.408488 122.753689 
L 204.721709 119.913287 
L 225.540701 92.934128 
L 226.697311 92.269643 
L 227.853922 92.235096 
L 249.829524 95.52577 
L 250.986135 96.009076 
L 253.299356 97.378427 
L 274.118348 110.361639 
L 275.274958 111.847335 
L 276.431569 113.763451 
L 298.407171 154.465636 
L 299.563782 154.558491 
L 300.720392 153.629546 
L 322.695994 125.123597 
L 323.852605 124.492555 
L 325.009216 124.272444 
L 433 124.272444 
L 433 124.272444 
" clip-path="url(#p62216efa0c)" style="fill: none; stroke: #808080; stroke-opacity: 0.4; stroke-width: 0.5; stroke-linecap: round"/>
   </g>
   <g id="line2d_26">
    <path d="M -1 132.606899 
L 104.096584 132.664992 
L 105.253194 132.849414 
L 127.228796 145.617116 
L 128.385407 146.141272 
L 129.542018 146.332807 
L 146.891177 132.490261 
L 151.51762 128.796372 
L 152.674231 128.065274 
L 153.830841 127.917949 
L 156.144062 130.208638 
L 176.963054 151.54916 
L 178.119665 152.211629 
L 179.276275 152.08324 
L 200.095267 147.678671 
L 201.251877 147.231188 
L 202.408488 145.404694 
L 203.565099 141.903832 
L 225.540701 68.192839 
L 226.697311 66.833141 
L 227.853922 67.375526 
L 250.986135 90.857059 
L 260.23902 101.546582 
L 274.118348 117.614884 
L 275.274958 118.668327 
L 277.58818 120.369128 
L 298.407171 134.916085 
L 299.563782 135.178088 
L 300.720392 135.167778 
L 322.695994 132.078737 
L 323.852605 131.36598 
L 326.165826 129.280983 
L 346.984818 109.262201 
L 348.141429 108.748891 
L 349.298039 108.566381 
L 433 108.566381 
L 433 108.566381 
" clip-path="url(#p62216efa0c)" style="fill: none; stroke: #808080; stroke-opacity: 0.4; stroke-width: 0.5; stroke-linecap: round"/>
   </g>
   <g id="line2d_27">
    <path d="M -1 132.048256 
L 104.096584 132.120373 
L 105.253194 132.349317 
L 127.228796 148.199347 
L 128.385407 148.855072 
L 129.542018 149.109193 
L 145.734567 133.83089 
L 152.674231 127.373846 
L 153.830841 126.66796 
L 156.144062 126.978335 
L 176.963054 130.338972 
L 178.119665 130.623434 
L 185.059328 133.325675 
L 200.095267 139.227624 
L 201.251877 139.482024 
L 202.408488 138.379101 
L 203.565099 135.628142 
L 225.540701 76.283672 
L 226.697311 75.716639 
L 227.853922 77.079264 
L 249.829524 115.049197 
L 250.986135 116.732438 
L 253.299356 119.567729 
L 274.118348 144.216097 
L 275.274958 144.509201 
L 276.431569 144.196292 
L 298.407171 132.202493 
L 299.563782 132.132999 
L 300.720392 132.343595 
L 322.695994 139.320689 
L 325.009216 139.560324 
L 433 139.560324 
L 433 139.560324 
" clip-path="url(#p62216efa0c)" style="fill: none; stroke: #808080; stroke-opacity: 0.4; stroke-width: 0.5; stroke-linecap: round"/>
   </g>
   <g id="line2d_28">
    <path d="M -1 121.725795 
L 102.939973 121.725795 
L 104.096584 121.844527 
L 105.253194 122.221453 
L 128.385407 149.548283 
L 129.542018 150.461487 
L 144.577956 148.457574 
L 152.674231 147.335819 
L 153.830841 147.028438 
L 160.770505 143.09572 
L 178.119665 133.257275 
L 193.155603 126.265535 
L 201.251877 122.452338 
L 202.408488 121.495987 
L 204.721709 118.592847 
L 225.540701 91.614272 
L 226.697311 91.204579 
L 227.853922 91.617166 
L 249.829524 104.607523 
L 250.986135 105.573717 
L 253.299356 107.982212 
L 275.274958 131.772047 
L 283.371233 141.607871 
L 298.407171 159.922052 
L 299.563782 159.734442 
L 300.720392 158.75088 
L 322.695994 131.606713 
L 323.852605 131.066352 
L 325.009216 131.026218 
L 346.984818 135.986902 
L 349.298039 136.150252 
L 433 136.150252 
L 433 136.150252 
" clip-path="url(#p62216efa0c)" style="fill: none; stroke: #808080; stroke-opacity: 0.4; stroke-width: 0.5; stroke-linecap: round"/>
   </g>
   <g id="line2d_29">
    <path d="M -1 98.924748 
L 102.939973 98.924748 
L 104.096584 99.108416 
L 105.253194 99.667967 
L 128.385407 132.935164 
L 129.542018 134.439065 
L 151.51762 155.875341 
L 152.674231 156.877844 
L 153.830841 157.499347 
L 156.144062 157.055027 
L 175.806443 152.770576 
L 176.963054 152.350682 
L 178.119665 151.205878 
L 180.432886 146.727621 
L 201.251877 105.160347 
L 202.408488 103.519176 
L 203.565099 102.590301 
L 225.540701 88.203289 
L 226.697311 89.302633 
L 227.853922 91.803388 
L 249.829524 148.074686 
L 250.986135 148.912706 
L 252.142746 148.622483 
L 274.118348 133.580546 
L 276.431569 131.486099 
L 298.407171 109.811642 
L 299.563782 110.551536 
L 300.720392 112.229112 
L 322.695994 154.065344 
L 323.852605 154.018251 
L 325.009216 152.907989 
L 346.984818 120.992946 
L 348.141429 120.301363 
L 349.298039 120.085225 
L 433 120.085225 
L 433 120.085225 
" clip-path="url(#p62216efa0c)" style="fill: none; stroke: #808080; stroke-opacity: 0.4; stroke-width: 0.5; stroke-linecap: round"/>
   </g>
   <g id="line2d_30">
    <path d="M -1 140.077546 
L 104.096584 140.172778 
L 105.253194 140.475098 
L 127.228796 161.405054 
L 128.385407 162.208968 
L 129.542018 162.343127 
L 143.421345 137.030554 
L 151.51762 122.253687 
L 152.674231 120.391537 
L 153.830841 119.284484 
L 156.144062 120.414457 
L 175.806443 131.025494 
L 176.963054 131.463071 
L 178.119665 131.094836 
L 179.276275 129.241917 
L 202.408488 87.593641 
L 209.348152 72.483007 
L 225.540701 37.343575 
L 226.697311 38.206776 
L 227.853922 41.619482 
L 249.829524 122.409295 
L 250.986135 124.838713 
L 252.142746 126.299778 
L 274.118348 145.88252 
L 275.274958 146.179316 
L 276.431569 146.062882 
L 298.407171 139.726251 
L 299.563782 138.574488 
L 300.720392 137.014749 
L 322.695994 103.045197 
L 323.852605 102.442612 
L 325.009216 102.400347 
L 346.984818 107.299786 
L 349.298039 107.46112 
L 433 107.46112 
L 433 107.46112 
" clip-path="url(#p62216efa0c)" style="fill: none; stroke: #808080; stroke-opacity: 0.4; stroke-width: 0.5; stroke-linecap: round"/>
   </g>
   <g id="line2d_31">
    <path d="M -1 107.46112 
L 78.65115 107.46112 
L 79.80776 107.585618 
L 80.964371 108.035749 
L 104.096584 142.263933 
L 105.253194 143.401176 
L 127.228796 135.706261 
L 128.385407 135.48697 
L 129.542018 135.685523 
L 148.047788 161.261413 
L 151.51762 166.059138 
L 152.674231 167.465265 
L 153.830841 168.285371 
L 156.144062 166.45165 
L 176.963054 148.79416 
L 178.119665 147.564883 
L 182.746107 140.980574 
L 201.251877 114.398049 
L 203.565099 110.494802 
L 225.540701 70.784715 
L 226.697311 71.285179 
L 227.853922 73.741048 
L 249.829524 132.628346 
L 250.986135 133.599763 
L 252.142746 133.104044 
L 274.118348 111.295821 
L 275.274958 111.280776 
L 276.431569 111.903562 
L 298.407171 130.102586 
L 299.563782 130.381041 
L 300.720392 130.320759 
L 322.695994 125.576496 
L 323.852605 126.301003 
L 325.009216 127.574125 
L 346.984818 158.04029 
L 348.141429 158.490311 
L 349.298039 158.303166 
L 371.273641 148.068123 
L 372.430252 147.82212 
L 374.743473 147.745596 
L 433 147.745596 
L 433 147.745596 
" clip-path="url(#p62216efa0c)" style="fill: none; stroke: #808080; stroke-opacity: 0.4; stroke-width: 0.5; stroke-linecap: round"/>
   </g>
   <g id="line2d_32">
    <path d="M -1 140.203116 
L 104.096584 140.155832 
L 105.253194 140.005723 
L 127.228796 129.613521 
L 128.385407 129.192036 
L 129.542018 129.052872 
L 149.204399 142.767585 
L 153.830841 145.884696 
L 167.710169 152.653237 
L 175.806443 156.595391 
L 176.963054 156.896758 
L 178.119665 156.067594 
L 180.432886 150.995967 
L 201.251877 103.289068 
L 202.408488 100.963473 
L 205.87832 95.185859 
L 225.540701 63.105196 
L 226.697311 64.20063 
L 227.853922 67.548373 
L 249.829524 145.232942 
L 250.986135 146.325306 
L 252.142746 145.825795 
L 274.118348 122.892123 
L 275.274958 122.080321 
L 277.58818 121.018715 
L 298.407171 112.516415 
L 299.563782 112.464944 
L 300.720392 112.62332 
L 323.852605 118.066842 
L 331.94888 119.158812 
L 348.141429 121.224254 
L 353.924482 121.249433 
L 433 121.249433 
L 433 121.249433 
" clip-path="url(#p62216efa0c)" style="fill: none; stroke: #808080; stroke-opacity: 0.4; stroke-width: 0.5; stroke-linecap: round"/>
   </g>
   <g id="line2d_33">
    <path d="M -1 121.249433 
L 80.964371 121.351429 
L 104.096584 127.355513 
L 105.253194 127.330782 
L 127.228796 110.277871 
L 128.385407 109.556528 
L 129.542018 109.231595 
L 144.577956 122.270994 
L 152.674231 129.256528 
L 153.830841 130.091788 
L 161.927116 133.922745 
L 176.963054 140.977366 
L 178.119665 141.399055 
L 183.902718 142.481278 
L 200.095267 145.435886 
L 201.251877 145.471002 
L 202.408488 144.309747 
L 203.565099 141.695883 
L 225.540701 85.765153 
L 226.697311 84.634924 
L 227.853922 84.873605 
L 249.829524 97.988322 
L 250.986135 99.641903 
L 252.142746 101.959674 
L 274.118348 151.60623 
L 275.274958 152.439455 
L 276.431569 152.270539 
L 298.407171 139.058918 
L 299.563782 138.83376 
L 300.720392 138.843035 
L 322.695994 141.509981 
L 323.852605 140.977315 
L 325.009216 140.065636 
L 346.984818 118.433581 
L 348.141429 118.077637 
L 372.430252 115.465333 
L 382.839748 115.452183 
L 433 115.452183 
L 433 115.452183 
" clip-path="url(#p62216efa0c)" style="fill: none; stroke: #808080; stroke-opacity: 0.4; stroke-width: 0.5; stroke-linecap: round"/>
   </g>
   <g id="line2d_34">
    <path d="M -1 143.761413 
L 6.94129 139.071289 
L 8.097901 138.717157 
L 30.073503 141.384103 
L 31.230113 141.407484 
L 32.386724 141.087893 
L 54.362326 119.429626 
L 55.518937 118.56422 
L 56.675547 118.064427 
L 78.65115 115.632677 
L 79.80776 115.866408 
L 80.964371 116.749423 
L 102.939973 158.54338 
L 104.096584 160.50029 
L 105.253194 161.874551 
L 127.228796 130.036642 
L 128.385407 128.619072 
L 129.542018 127.782262 
L 151.51762 121.44168 
L 152.674231 121.251154 
L 153.830841 121.49446 
L 157.300673 124.449302 
L 176.963054 141.390209 
L 178.119665 141.875088 
L 179.276275 140.92095 
L 201.251877 118.644207 
L 202.408488 116.486863 
L 207.034931 106.184438 
L 225.540701 64.793731 
L 226.697311 64.378449 
L 227.853922 65.603529 
L 250.986135 101.091169 
L 253.299356 105.628131 
L 274.118348 147.541219 
L 275.274958 148.263483 
L 276.431569 148.563279 
L 299.563782 150.703522 
L 307.660056 152.044654 
L 322.695994 154.502483 
L 323.852605 152.667379 
L 346.984818 107.825903 
L 348.141429 107.9876 
L 349.298039 109.161333 
L 371.273641 138.135948 
L 372.430252 139.170398 
L 373.586863 139.848551 
L 395.562465 148.084505 
L 396.719075 147.800754 
L 419.851288 135.373579 
L 422.164509 133.667176 
L 433 124.860794 
L 433 124.860794 
" clip-path="url(#p62216efa0c)" style="fill: none; stroke: #808080; stroke-opacity: 0.4; stroke-width: 0.5; stroke-linecap: round"/>
   </g>
   <g id="line2d_35">
    <path d="M -1 148.759536 
L 78.65115 148.759536 
L 79.80776 148.458612 
L 80.964371 147.617525 
L 102.939973 110.824688 
L 104.096584 109.225536 
L 105.253194 108.435928 
L 127.228796 173.9488 
L 128.385407 176.330958 
L 129.542018 176.314816 
L 144.577956 149.102079 
L 151.51762 136.53415 
L 152.674231 134.725733 
L 153.830841 133.785927 
L 156.144062 134.841483 
L 175.806443 144.696923 
L 176.963054 144.845234 
L 178.119665 143.130523 
L 185.059328 131.115013 
L 201.251877 102.856989 
L 202.408488 99.804159 
L 207.034931 85.831406 
L 225.540701 29.84711 
L 226.697311 30.051386 
L 227.853922 33.052973 
L 249.829524 107.578387 
L 252.142746 110.577509 
L 274.118348 137.6585 
L 275.274958 137.446183 
L 276.431569 136.803139 
L 298.407171 120.807212 
L 299.563782 120.551259 
L 300.720392 120.655438 
L 322.695994 126.683534 
L 323.852605 126.38811 
L 346.984818 118.017793 
L 348.141429 118.305876 
L 350.45465 119.580278 
L 370.117031 131.285306 
L 371.273641 131.778443 
L 372.430252 131.921752 
L 433 131.921752 
L 433 131.921752 
" clip-path="url(#p62216efa0c)" style="fill: none; stroke: #808080; stroke-opacity: 0.4; stroke-width: 0.5; stroke-linecap: round"/>
   </g>
   <g id="line2d_36">
    <path d="M -1 143.731242 
L 104.096584 143.638792 
L 105.253194 143.324463 
L 127.228796 115.284652 
L 128.385407 114.245046 
L 129.542018 114.186855 
L 157.300673 132.912072 
L 176.963054 144.90151 
L 178.119665 145.078687 
L 179.276275 143.77061 
L 201.251877 114.734827 
L 204.721709 109.202232 
L 225.540701 75.419919 
L 226.697311 76.518035 
L 227.853922 79.862202 
L 249.829524 157.408436 
L 252.142746 152.055494 
L 274.118348 97.267832 
L 275.274958 97.353872 
L 276.431569 98.220969 
L 298.407171 121.546819 
L 299.563782 122.517807 
L 301.877003 124.050453 
L 322.695994 136.969606 
L 323.852605 136.712085 
L 346.984818 127.642698 
L 348.141429 127.478589 
L 351.61126 127.436307 
L 433 127.436307 
L 433 127.436307 
" clip-path="url(#p62216efa0c)" style="fill: none; stroke: #808080; stroke-opacity: 0.4; stroke-width: 0.5; stroke-linecap: round"/>
   </g>
   <g id="line2d_37">
    <path d="M -1 127.436307 
L 56.675547 127.536775 
L 60.145379 129.409034 
L 79.80776 140.399954 
L 80.964371 140.915852 
L 82.120982 140.386697 
L 84.434203 138.49101 
L 104.096584 121.632661 
L 105.253194 120.869737 
L 129.542018 122.910208 
L 135.325071 118.030153 
L 153.830841 102.280852 
L 154.987452 102.695385 
L 156.144062 103.467036 
L 176.963054 120.187278 
L 178.119665 120.947894 
L 180.432886 121.453524 
L 202.408488 125.501103 
L 203.565099 124.198443 
L 225.540701 93.192684 
L 226.697311 92.514369 
L 227.853922 92.555851 
L 249.829524 97.854112 
L 250.986135 98.488488 
L 252.142746 99.679177 
L 276.431569 129.978344 
L 298.407171 159.783776 
L 299.563782 159.908828 
L 300.720392 159.146575 
L 322.695994 134.641187 
L 323.852605 133.661328 
L 325.009216 133.064849 
L 346.984818 127.498574 
L 348.141429 127.397447 
L 349.298039 127.862232 
L 371.273641 148.357057 
L 372.430252 148.948785 
L 373.586863 149.186818 
L 433 149.186818 
L 433 149.186818 
" clip-path="url(#p62216efa0c)" style="fill: none; stroke: #808080; stroke-opacity: 0.4; stroke-width: 0.5; stroke-linecap: round"/>
   </g>
   <g id="line2d_38">
    <path d="M -1 152.759792 
L 55.518937 152.759792 
L 56.675547 152.886687 
L 58.988769 154.434831 
L 78.65115 168.316732 
L 79.80776 168.652104 
L 80.964371 168.123696 
L 102.939973 124.802973 
L 104.096584 122.827328 
L 105.253194 121.582222 
L 129.542018 175.740911 
L 131.855239 171.368831 
L 151.51762 132.617617 
L 152.674231 130.777076 
L 153.830841 130.268535 
L 156.144062 133.752483 
L 176.963054 166.369808 
L 178.119665 167.275205 
L 179.276275 165.632134 
L 202.408488 125.192391 
L 204.721709 118.230361 
L 225.540701 53.253905 
L 226.697311 53.701894 
L 227.853922 57.213507 
L 249.829524 143.099378 
L 250.986135 145.519181 
L 252.142746 144.652136 
L 274.118348 100.421693 
L 275.274958 101.725588 
L 276.431569 103.984713 
L 298.407171 155.286862 
L 299.563782 156.70729 
L 300.720392 157.341195 
L 322.695994 160.501161 
L 323.852605 160.302501 
L 325.009216 159.652324 
L 346.984818 140.507246 
L 349.298039 138.886333 
L 371.273641 124.591414 
L 372.430252 124.178691 
L 373.586863 124.012665 
L 433 124.012665 
L 433 124.012665 
" clip-path="url(#p62216efa0c)" style="fill: none; stroke: #808080; stroke-opacity: 0.4; stroke-width: 0.5; stroke-linecap: round"/>
   </g>
   <g id="line2d_39">
    <path d="M -1 121.145803 
L 104.096584 121.145803 
L 105.253194 121.533168 
L 108.723026 123.728462 
L 128.385407 136.468827 
L 130.698628 138.357021 
L 152.674231 157.617888 
L 153.830841 157.756424 
L 154.987452 157.108569 
L 178.119665 141.387931 
L 188.52916 132.045474 
L 201.251877 120.604981 
L 202.408488 118.903962 
L 205.87832 112.143715 
L 225.540701 73.38274 
L 226.697311 72.766357 
L 227.853922 73.696248 
L 253.299356 99.411659 
L 274.118348 119.451853 
L 275.274958 120.965936 
L 281.058011 130.289734 
L 298.407171 158.40391 
L 299.563782 158.820315 
L 300.720392 158.196139 
L 323.852605 142.511834 
L 337.731933 130.737012 
L 346.984818 122.878385 
L 348.141429 122.406938 
L 350.45465 122.34754 
L 433 122.34754 
L 433 122.34754 
" clip-path="url(#p62216efa0c)" style="fill: none; stroke: #808080; stroke-opacity: 0.4; stroke-width: 0.5; stroke-linecap: round"/>
   </g>
   <g id="line2d_40">
    <path d="M -1 126.261506 
L 128.385407 126.261506 
L 129.542018 126.383274 
L 136.481682 127.931453 
L 152.674231 131.591429 
L 153.830841 131.40024 
L 156.144062 130.136462 
L 176.963054 118.15029 
L 179.276275 116.425921 
L 201.251877 98.600043 
L 202.408488 97.952541 
L 205.87832 96.990206 
L 225.540701 91.808436 
L 226.697311 92.449859 
L 229.010533 95.63149 
L 249.829524 125.524946 
L 250.986135 126.275759 
L 252.142746 126.251563 
L 274.118348 123.500415 
L 275.274958 123.83104 
L 278.74479 126.048417 
L 298.407171 138.933513 
L 299.563782 139.016934 
L 301.877003 137.78785 
L 322.695994 125.84603 
L 323.852605 125.468976 
L 328.479048 125.08173 
L 348.141429 123.639506 
L 372.430252 123.634214 
L 433 123.634214 
L 433 123.634214 
" clip-path="url(#p62216efa0c)" style="fill: none; stroke: #808080; stroke-opacity: 0.4; stroke-width: 0.5; stroke-linecap: round"/>
   </g>
   <g id="line2d_41">
    <path d="M -1 124.746533 
L 129.542018 124.705635 
L 149.204399 123.219776 
L 152.674231 122.956358 
L 153.830841 122.55071 
L 157.300673 120.381463 
L 176.963054 107.818392 
L 178.119665 107.753324 
L 180.432886 108.824692 
L 201.251877 119.284975 
L 202.408488 118.308468 
L 204.721709 112.93973 
L 225.540701 62.310927 
L 226.697311 62.314316 
L 227.853922 64.935085 
L 249.829524 122.638472 
L 250.986135 124.446819 
L 252.142746 125.208683 
L 274.118348 136.59001 
L 275.274958 136.855296 
L 278.74479 136.790891 
L 298.407171 136.201329 
L 299.563782 136.782679 
L 301.877003 139.220247 
L 322.695994 161.962107 
L 323.852605 162.12775 
L 325.009216 161.326054 
L 346.984818 143.385156 
L 348.141429 142.93198 
L 350.45465 142.874884 
L 433 142.874884 
L 433 142.874884 
" clip-path="url(#p62216efa0c)" style="fill: none; stroke: #808080; stroke-opacity: 0.4; stroke-width: 0.5; stroke-linecap: round"/>
   </g>
   <g id="line2d_42">
    <path d="M -1 124.347792 
L 6.94129 124.347792 
L 8.097901 124.647864 
L 11.567733 126.398657 
L 31.230113 136.581949 
L 32.386724 136.849493 
L 35.856556 136.791358 
L 55.518937 136.201796 
L 56.675547 136.780391 
L 58.988769 139.203246 
L 79.80776 161.945107 
L 80.964371 162.116619 
L 82.120982 161.33876 
L 104.096584 143.397862 
L 105.253194 143.055606 
L 107.566416 143.414099 
L 128.385407 147.381911 
L 129.542018 146.925372 
L 131.855239 144.572728 
L 152.674231 122.379087 
L 153.830841 122.04983 
L 154.987452 122.532596 
L 176.963054 134.285559 
L 178.119665 134.047417 
L 180.432886 132.043763 
L 201.251877 112.971054 
L 202.408488 111.499112 
L 207.034931 103.734935 
L 225.540701 72.406423 
L 226.697311 72.870646 
L 227.853922 75.586196 
L 249.829524 133.984334 
L 250.986135 135.66458 
L 252.142746 136.158094 
L 274.118348 142.026098 
L 275.274958 142.5423 
L 279.901401 145.57929 
L 298.407171 157.861457 
L 299.563782 157.446209 
L 301.877003 154.167744 
L 322.695994 123.118229 
L 323.852605 122.659947 
L 325.009216 123.317832 
L 348.141429 139.708807 
L 371.273641 153.98575 
L 373.586863 155.100504 
L 395.562465 164.423079 
L 396.719075 164.644065 
L 401.345518 164.44118 
L 419.851288 163.492851 
L 421.007899 161.77537 
L 423.32112 155.384351 
L 433 127.856455 
L 433 127.856455 
" clip-path="url(#p62216efa0c)" style="fill: none; stroke: #808080; stroke-opacity: 0.4; stroke-width: 0.5; stroke-linecap: round"/>
   </g>
   <g id="line2d_43">
    <path d="M -1 166.493888 
L 128.385407 166.493888 
L 129.542018 165.679901 
L 131.855239 162.76096 
L 152.674231 135.591233 
L 153.830841 134.918725 
L 154.987452 134.998217 
L 176.963054 138.898231 
L 178.119665 139.527911 
L 181.589497 142.580554 
L 201.251877 160.2032 
L 202.408488 157.933019 
L 204.721709 147.998762 
L 225.540701 54.991685 
L 226.697311 53.637352 
L 227.853922 55.826698 
L 249.829524 108.131976 
L 250.986135 110.027073 
L 253.299356 112.242347 
L 275.274958 132.152468 
L 298.407171 151.090216 
L 299.563782 150.889126 
L 301.877003 148.111889 
L 322.695994 121.619394 
L 323.852605 121.205352 
L 325.009216 121.723376 
L 346.984818 134.175733 
L 348.141429 134.490271 
L 351.61126 134.5299 
L 433 134.5299 
L 433 134.5299 
" clip-path="url(#p62216efa0c)" style="fill: none; stroke: #808080; stroke-opacity: 0.4; stroke-width: 0.5; stroke-linecap: round"/>
   </g>
   <g id="line2d_44">
    <path d="M -1 131.719693 
L 31.230113 131.719693 
L 32.386724 132.214818 
L 35.856556 134.985934 
L 55.518937 151.077479 
L 56.675547 150.881521 
L 57.832158 149.603499 
L 79.80776 121.639198 
L 80.964371 121.219501 
L 82.120982 121.714557 
L 104.096584 134.166914 
L 105.253194 134.490775 
L 108.723026 134.578094 
L 128.385407 134.815833 
L 129.542018 133.926424 
L 131.855239 130.714843 
L 152.674231 100.812576 
L 153.830841 100.845425 
L 154.987452 102.400465 
L 176.963054 136.783356 
L 178.119665 137.601769 
L 179.276275 137.603441 
L 201.251877 135.095434 
L 202.408488 132.585009 
L 204.721709 123.684594 
L 225.540701 40.992441 
L 226.697311 41.090269 
L 227.853922 45.548848 
L 249.829524 143.438471 
L 250.986135 146.033663 
L 252.142746 146.451106 
L 274.118348 147.943649 
L 275.274958 147.04623 
L 277.58818 143.612837 
L 298.407171 111.669107 
L 299.563782 111.397767 
L 300.720392 112.573009 
L 322.695994 139.043334 
L 323.852605 139.729315 
L 326.165826 139.763124 
L 346.984818 139.240869 
L 349.298039 139.504757 
L 371.273641 143.143931 
L 373.586863 143.15252 
L 395.562465 142.005276 
L 396.719075 139.844184 
L 399.032297 131.422115 
L 419.851288 53.225977 
L 421.007899 52.586229 
L 422.164509 55.038365 
L 433 81.946672 
L 433 81.946672 
" clip-path="url(#p62216efa0c)" style="fill: none; stroke: #808080; stroke-opacity: 0.4; stroke-width: 0.5; stroke-linecap: round"/>
   </g>
   <g id="line2d_45">
    <path d="M -1 145.370996 
L 105.253194 145.452518 
L 114.506079 146.907553 
L 128.385407 149.112902 
L 129.542018 149.843584 
L 131.855239 152.467918 
L 152.674231 176.910825 
L 153.830841 176.187239 
L 154.987452 173.593334 
L 176.963054 118.36576 
L 178.119665 117.984786 
L 179.276275 120.398709 
L 201.251877 175.080227 
L 202.408488 173.595473 
L 203.565099 167.686693 
L 225.540701 41.760028 
L 226.697311 40.17934 
L 227.853922 43.289535 
L 249.829524 116.557385 
L 250.986135 119.545869 
L 254.455967 126.064158 
L 274.118348 162.349422 
L 275.274958 162.527087 
L 276.431569 160.648695 
L 298.407171 118.943653 
L 299.563782 118.364358 
L 300.720392 119.339799 
L 322.695994 142.323471 
L 323.852605 142.931621 
L 326.165826 143.009735 
L 433 143.009735 
L 433 143.009735 
" clip-path="url(#p62216efa0c)" style="fill: none; stroke: #808080; stroke-opacity: 0.4; stroke-width: 0.5; stroke-linecap: round"/>
   </g>
   <g id="line2d_46">
    <path d="M -1 156.055622 
L 104.096584 156.055622 
L 105.253194 155.774185 
L 108.723026 153.923286 
L 128.385407 143.137546 
L 129.542018 143.010951 
L 131.855239 143.837711 
L 152.674231 152.043632 
L 153.830841 152.228961 
L 157.300673 151.974323 
L 176.963054 150.300975 
L 178.119665 149.931535 
L 181.589497 147.823967 
L 201.251877 135.598928 
L 202.408488 133.495656 
L 204.721709 126.253817 
L 225.540701 59.024396 
L 226.697311 58.394179 
L 227.853922 60.649624 
L 249.829524 112.222501 
L 250.986135 113.937621 
L 253.299356 115.533279 
L 274.118348 128.702259 
L 275.274958 129.096614 
L 278.74479 129.107437 
L 298.407171 128.859545 
L 299.563782 129.445016 
L 301.877003 131.857761 
L 322.695994 154.355371 
L 323.852605 154.983732 
L 326.165826 155.064442 
L 433 155.064442 
L 433 155.064442 
" clip-path="url(#p62216efa0c)" style="fill: none; stroke: #808080; stroke-opacity: 0.4; stroke-width: 0.5; stroke-linecap: round"/>
   </g>
   <g id="line2d_47">
    <path d="M -1 93.549164 
L 6.94129 112.185976 
L 8.097901 113.907096 
L 9.254511 114.791824 
L 31.230113 128.692414 
L 32.386724 129.087953 
L 34.699945 129.122215 
L 55.518937 128.859741 
L 56.675547 129.442529 
L 58.988769 131.840943 
L 79.80776 154.338553 
L 80.964371 155.055036 
L 83.277592 155.479219 
L 104.096584 158.565318 
L 105.253194 158.430837 
L 108.723026 156.933197 
L 128.385407 148.123385 
L 129.542018 148.544905 
L 131.855239 151.386286 
L 152.674231 178.374418 
L 153.830841 178.17031 
L 154.987452 176.435598 
L 176.963054 138.612213 
L 178.119665 137.852641 
L 179.276275 138.455398 
L 201.251877 154.205479 
L 202.408488 152.419379 
L 204.721709 143.11265 
L 225.540701 55.473656 
L 226.697311 54.250998 
L 227.853922 56.417218 
L 249.829524 107.815365 
L 250.986135 110.168793 
L 256.769188 120.251554 
L 274.118348 150.359981 
L 275.274958 151.198759 
L 276.431569 150.809793 
L 299.563782 139.337124 
L 311.129888 135.394529 
L 322.695994 131.464663 
L 323.852605 131.817748 
L 326.165826 133.93563 
L 346.984818 153.868548 
L 348.141429 153.565279 
L 349.298039 151.724724 
L 371.273641 112.508684 
L 372.430252 111.81921 
L 373.586863 112.500332 
L 395.562465 129.143116 
L 396.719075 129.293803 
L 399.032297 128.179733 
L 419.851288 117.325387 
L 421.007899 117.643043 
L 423.32112 120.503743 
L 433 133.068754 
L 433 133.068754 
" clip-path="url(#p62216efa0c)" style="fill: none; stroke: #808080; stroke-opacity: 0.4; stroke-width: 0.5; stroke-linecap: round"/>
   </g>
   <g id="line2d_48">
    <path d="M -1 133.056436 
L 104.096584 133.056436 
L 105.253194 133.382742 
L 108.723026 135.528728 
L 128.385407 148.034024 
L 129.542018 148.182288 
L 131.855239 147.22985 
L 153.830841 137.354203 
L 160.770505 135.722039 
L 176.963054 131.964579 
L 178.119665 131.429389 
L 181.589497 128.840089 
L 201.251877 113.889614 
L 202.408488 112.47552 
L 205.87832 106.430522 
L 225.540701 71.676264 
L 226.697311 71.46834 
L 227.853922 72.96727 
L 254.455967 113.867576 
L 274.118348 144.885233 
L 275.274958 145.530279 
L 276.431569 144.935949 
L 298.407171 130.017522 
L 299.563782 129.679668 
L 301.877003 129.929699 
L 322.695994 132.763608 
L 323.852605 133.107942 
L 328.479048 135.475324 
L 346.984818 145.077236 
L 348.141429 145.410419 
L 351.61126 145.452702 
L 433 145.452702 
L 433 145.452702 
" clip-path="url(#p62216efa0c)" style="fill: none; stroke: #808080; stroke-opacity: 0.4; stroke-width: 0.5; stroke-linecap: round"/>
   </g>
   <g id="line2d_49">
    <path d="M -1 159.468613 
L 104.096584 159.468613 
L 105.253194 159.0346 
L 108.723026 156.574945 
L 129.542018 141.545605 
L 141.108124 134.957877 
L 152.674231 128.384363 
L 153.830841 128.532169 
L 156.144062 130.395699 
L 176.963054 148.256454 
L 178.119665 147.459021 
L 180.432886 142.673457 
L 205.87832 87.640326 
L 225.540701 46.232931 
L 226.697311 46.924773 
L 227.853922 50.523486 
L 249.829524 127.68254 
L 250.986135 130.477592 
L 253.299356 133.743442 
L 274.118348 161.626011 
L 275.274958 161.70364 
L 276.431569 160.633482 
L 298.407171 136.980234 
L 299.563782 136.70155 
L 300.720392 137.352626 
L 322.695994 152.384435 
L 323.852605 152.206977 
L 326.165826 150.019267 
L 346.984818 129.197816 
L 348.141429 128.642661 
L 350.45465 128.572716 
L 433 128.572716 
L 433 128.572716 
" clip-path="url(#p62216efa0c)" style="fill: none; stroke: #808080; stroke-opacity: 0.4; stroke-width: 0.5; stroke-linecap: round"/>
   </g>
   <g id="line2d_50">
    <path d="M -1 133.921979 
L 104.096584 133.921979 
L 105.253194 134.336811 
L 107.566416 136.129821 
L 128.385407 152.962923 
L 129.542018 153.209218 
L 131.855239 152.236931 
L 152.674231 142.448564 
L 153.830841 141.713046 
L 159.613894 137.058876 
L 176.963054 123.009933 
L 178.119665 121.857424 
L 183.902718 114.741588 
L 201.251877 93.275073 
L 202.408488 92.060689 
L 208.191541 87.230423 
L 225.540701 72.846766 
L 226.697311 73.916535 
L 229.010533 80.126979 
L 249.829524 138.719734 
L 250.986135 140.32445 
L 252.142746 140.523459 
L 274.118348 140.148449 
L 275.274958 139.886288 
L 279.901401 137.701067 
L 298.407171 128.803285 
L 299.563782 129.152959 
L 301.877003 131.726828 
L 322.695994 156.073434 
L 323.852605 156.498039 
L 325.009216 156.104936 
L 346.984818 146.346301 
L 348.141429 146.061147 
L 352.767871 146.024959 
L 433 146.024959 
L 433 146.024959 
" clip-path="url(#p62216efa0c)" style="fill: none; stroke: #808080; stroke-opacity: 0.4; stroke-width: 0.5; stroke-linecap: round"/>
   </g>
   <g id="line2d_51">
    <path d="M -1 119.120845 
L 104.096584 119.120845 
L 105.253194 119.55082 
L 107.566416 121.409284 
L 128.385407 138.856871 
L 129.542018 139.538887 
L 133.01185 140.644506 
L 152.674231 146.637173 
L 153.830841 146.576395 
L 156.144062 145.371494 
L 179.276275 132.390359 
L 201.251877 118.945793 
L 202.408488 117.526709 
L 204.721709 113.128355 
L 225.540701 72.487967 
L 226.697311 72.593199 
L 227.853922 74.894715 
L 249.829524 125.259875 
L 250.986135 126.827112 
L 252.142746 127.150738 
L 274.118348 129.58101 
L 275.274958 129.480403 
L 279.901401 128.006608 
L 298.407171 121.963532 
L 299.563782 122.418314 
L 301.877003 125.050678 
L 322.695994 149.828103 
L 323.852605 150.172646 
L 325.009216 149.287562 
L 346.984818 128.998771 
L 348.141429 128.405918 
L 350.45465 128.330682 
L 433 128.330682 
L 433 128.330682 
" clip-path="url(#p62216efa0c)" style="fill: none; stroke: #808080; stroke-opacity: 0.4; stroke-width: 0.5; stroke-linecap: round"/>
   </g>
   <g id="line2d_52">
    <path d="M -1 153.337847 
L 104.096584 153.337847 
L 105.253194 152.855426 
L 108.723026 150.121422 
L 128.385407 134.254662 
L 129.542018 133.635588 
L 133.01185 132.807079 
L 152.674231 128.410282 
L 153.830841 128.690573 
L 156.144062 130.300632 
L 176.963054 145.52007 
L 178.119665 145.63867 
L 180.432886 144.579896 
L 201.251877 134.168649 
L 202.408488 131.801908 
L 204.721709 124.151377 
L 225.540701 53.350369 
L 226.697311 52.080986 
L 227.853922 53.287623 
L 249.829524 83.695347 
L 250.986135 85.648685 
L 257.925799 99.406194 
L 274.118348 131.616194 
L 275.274958 132.758505 
L 276.431569 132.997187 
L 298.407171 134.918184 
L 299.563782 135.4563 
L 303.033614 138.458914 
L 322.695994 155.832727 
L 323.852605 156.144203 
L 326.165826 155.422726 
L 346.984818 148.099019 
L 348.141429 147.90375 
L 353.924482 147.879148 
L 433 147.879148 
L 433 147.879148 
" clip-path="url(#p62216efa0c)" style="fill: none; stroke: #808080; stroke-opacity: 0.4; stroke-width: 0.5; stroke-linecap: round"/>
   </g>
   <g id="line2d_53">
    <path d="M -1 140.140758 
L 79.80776 140.140758 
L 80.964371 139.761324 
L 83.277592 138.039763 
L 104.096584 121.83651 
L 105.253194 121.183719 
L 108.723026 120.110157 
L 128.385407 114.28798 
L 129.542018 114.698187 
L 131.855239 117.119172 
L 152.674231 140.041945 
L 153.830841 140.341163 
L 154.987452 139.764967 
L 176.963054 126.035404 
L 178.119665 125.058581 
L 182.746107 119.88595 
L 201.251877 99.008598 
L 202.408488 98.090071 
L 204.721709 97.100145 
L 225.540701 88.763757 
L 226.697311 89.058427 
L 229.010533 91.168431 
L 250.986135 112.160474 
L 259.082409 118.050066 
L 274.118348 128.9486 
L 275.274958 129.556509 
L 279.901401 130.907759 
L 299.563782 136.601456 
L 308.816667 141.056879 
L 322.695994 147.763792 
L 323.852605 147.573565 
L 326.165826 145.275225 
L 346.984818 123.396235 
L 348.141429 123.623869 
L 352.767871 125.755754 
L 371.273641 134.42745 
L 372.430252 134.675136 
L 377.056695 134.705742 
L 433 134.705742 
L 433 134.705742 
" clip-path="url(#p62216efa0c)" style="fill: none; stroke: #808080; stroke-opacity: 0.4; stroke-width: 0.5; stroke-linecap: round"/>
   </g>
   <g id="line2d_54">
    <path d="M -1 132.566337 
L 105.253194 132.456992 
L 111.036248 131.008513 
L 128.385407 126.579216 
L 133.01185 124.493121 
L 152.674231 115.439756 
L 153.830841 116.512206 
L 156.144062 120.98467 
L 176.963054 162.825342 
L 178.119665 163.744537 
L 179.276275 161.705041 
L 201.251877 113.43676 
L 203.565099 106.972734 
L 225.540701 43.463985 
L 226.697311 43.293004 
L 227.853922 46.069801 
L 249.829524 107.736067 
L 250.986135 110.43924 
L 252.142746 111.341912 
L 274.118348 122.995256 
L 275.274958 122.65929 
L 278.74479 120.34445 
L 298.407171 106.897733 
L 299.563782 106.838775 
L 300.720392 107.734273 
L 322.695994 127.504132 
L 323.852605 127.580273 
L 333.10549 127.078083 
L 349.298039 126.272766 
L 433 126.272766 
L 433 126.272766 
" clip-path="url(#p62216efa0c)" style="fill: none; stroke: #808080; stroke-opacity: 0.4; stroke-width: 0.5; stroke-linecap: round"/>
   </g>
   <g id="line2d_55">
    <path d="M -1 131.780722 
L 80.964371 131.780722 
L 83.277592 132.295527 
L 104.096584 137.629752 
L 105.253194 137.780685 
L 108.723026 137.528828 
L 129.542018 135.699259 
L 131.855239 133.699533 
L 153.830841 113.44155 
L 154.987452 113.828515 
L 157.300673 115.784846 
L 176.963054 133.245756 
L 178.119665 133.560724 
L 179.276275 132.376344 
L 202.408488 103.599167 
L 204.721709 99.126252 
L 225.540701 57.766153 
L 226.697311 57.205747 
L 227.853922 58.260118 
L 250.986135 84.605885 
L 255.612577 92.158608 
L 275.274958 124.534854 
L 277.58818 126.809115 
L 298.407171 145.588111 
L 299.563782 145.69421 
L 300.720392 144.578363 
L 322.695994 119.849657 
L 323.852605 118.737355 
L 325.009216 118.808538 
L 349.298039 124.153838 
L 372.430252 131.389525 
L 377.056695 131.421103 
L 433 131.421103 
L 433 131.421103 
" clip-path="url(#p62216efa0c)" style="fill: none; stroke: #808080; stroke-opacity: 0.4; stroke-width: 0.5; stroke-linecap: round"/>
   </g>
   <g id="line2d_56">
    <path d="M -1 131.421103 
L 79.80776 131.421103 
L 82.120982 131.010582 
L 106.409805 125.656728 
L 129.542018 121.606283 
L 133.01185 121.931436 
L 152.674231 124.027844 
L 153.830841 124.460962 
L 158.457284 127.126048 
L 176.963054 137.922662 
L 178.119665 138.267552 
L 179.276275 137.917874 
L 201.251877 129.039632 
L 202.408488 126.626813 
L 207.034931 114.533652 
L 225.540701 65.842363 
L 226.697311 64.493236 
L 227.853922 64.718643 
L 249.829524 73.759048 
L 250.986135 74.477254 
L 253.299356 77.652168 
L 276.431569 110.519323 
L 298.407171 139.875629 
L 299.563782 140.884972 
L 301.877003 141.400506 
L 323.852605 145.227906 
L 326.165826 144.680264 
L 346.984818 139.223506 
L 348.141429 139.680311 
L 351.61126 142.535956 
L 371.273641 159.083075 
L 372.430252 159.748261 
L 374.743473 159.831823 
L 433 159.831823 
L 433 159.831823 
" clip-path="url(#p62216efa0c)" style="fill: none; stroke: #808080; stroke-opacity: 0.4; stroke-width: 0.5; stroke-linecap: round"/>
   </g>
   <g id="line2d_57">
    <path d="M -1 134.622198 
L 79.80776 134.622198 
L 80.964371 133.578268 
L 84.434203 128.773963 
L 104.096584 101.078366 
L 105.253194 100.881224 
L 106.409805 102.753156 
L 128.385407 145.275352 
L 129.542018 147.148984 
L 130.698628 146.188983 
L 152.674231 118.318028 
L 153.830841 117.391496 
L 157.300673 115.817054 
L 176.963054 107.231943 
L 178.119665 107.368787 
L 179.276275 108.856986 
L 202.408488 143.07698 
L 203.565099 137.692222 
L 225.540701 12.923012 
L 226.697311 11.445644 
L 227.853922 14.698569 
L 250.986135 94.620148 
L 255.612577 107.197377 
L 274.118348 157.117079 
L 275.274958 157.141355 
L 276.431569 155.871296 
L 298.407171 128.139722 
L 299.563782 127.174353 
L 301.877003 126.630215 
L 322.695994 122.614101 
L 323.852605 122.679126 
L 325.009216 124.546451 
L 346.984818 165.212886 
L 348.141429 164.915145 
L 349.298039 163.16692 
L 371.273641 126.023042 
L 372.430252 124.687051 
L 373.586863 124.519221 
L 433 124.519221 
L 433 124.519221 
" clip-path="url(#p62216efa0c)" style="fill: none; stroke: #808080; stroke-opacity: 0.4; stroke-width: 0.5; stroke-linecap: round"/>
   </g>
   <g id="line2d_58">
    <path d="M -1 124.519221 
L 55.518937 124.519221 
L 56.675547 124.737382 
L 57.832158 125.787301 
L 80.964371 149.911815 
L 82.120982 149.826403 
L 85.590813 148.403445 
L 104.096584 140.588366 
L 105.253194 140.558705 
L 107.566416 141.942426 
L 128.385407 155.451459 
L 129.542018 155.880642 
L 130.698628 153.811043 
L 153.830841 103.479224 
L 154.987452 103.484087 
L 156.144062 104.429835 
L 176.963054 124.510757 
L 178.119665 125.261285 
L 179.276275 125.243176 
L 202.408488 122.236577 
L 203.565099 119.622641 
L 225.540701 62.160294 
L 226.697311 61.452124 
L 227.853922 62.896676 
L 250.986135 98.726397 
L 256.769188 109.834052 
L 275.274958 145.534859 
L 277.58818 148.259385 
L 298.407171 170.866905 
L 299.563782 170.833314 
L 300.720392 169.118317 
L 322.695994 131.679353 
L 323.852605 130.07955 
L 325.009216 130.798244 
L 348.141429 152.196263 
L 349.298039 152.631161 
L 353.924482 153.464829 
L 372.430252 156.604503 
L 380.526526 156.621689 
L 433 156.621689 
L 433 156.621689 
" clip-path="url(#p62216efa0c)" style="fill: none; stroke: #808080; stroke-opacity: 0.4; stroke-width: 0.5; stroke-linecap: round"/>
   </g>
   <g id="line2d_59">
    <path d="M -1 128.083971 
L 55.518937 128.083971 
L 56.675547 128.269092 
L 58.988769 130.183542 
L 82.120982 150.795251 
L 104.096584 171.926172 
L 105.253194 172.019558 
L 106.409805 170.640952 
L 129.542018 138.050264 
L 130.698628 138.08023 
L 152.674231 143.675882 
L 153.830841 143.144722 
L 156.144062 140.885022 
L 178.119665 118.604075 
L 188.52916 109.529219 
L 202.408488 97.436171 
L 204.721709 93.316998 
L 225.540701 54.787966 
L 226.697311 55.739222 
L 227.853922 59.564062 
L 249.829524 140.918961 
L 250.986135 144.183242 
L 252.142746 144.069866 
L 274.118348 131.602806 
L 275.274958 132.438106 
L 277.58818 135.447185 
L 298.407171 163.350564 
L 299.563782 163.798997 
L 300.720392 162.810898 
L 323.852605 138.806542 
L 325.009216 138.492283 
L 346.984818 134.735058 
L 348.141429 135.561475 
L 351.61126 140.042313 
L 371.273641 165.925795 
L 372.430252 166.966299 
L 373.586863 167.097009 
L 433 167.097009 
L 433 167.097009 
" clip-path="url(#p62216efa0c)" style="fill: none; stroke: #808080; stroke-opacity: 0.4; stroke-width: 0.5; stroke-linecap: round"/>
   </g>
   <g id="line2d_60">
    <path d="M -1 155.248367 
L 128.385407 155.248367 
L 129.542018 155.088034 
L 141.108124 151.970692 
L 153.830841 148.569414 
L 176.963054 144.105139 
L 178.119665 143.524641 
L 183.902718 138.745468 
L 201.251877 124.314706 
L 202.408488 122.269642 
L 207.034931 109.98199 
L 225.540701 60.493497 
L 226.697311 60.770212 
L 229.010533 69.059901 
L 249.829524 146.657414 
L 250.986135 148.518328 
L 252.142746 147.937975 
L 274.118348 132.790348 
L 275.274958 132.45689 
L 279.901401 132.910915 
L 298.407171 134.874367 
L 299.563782 135.463645 
L 305.346835 140.456835 
L 322.695994 155.536031 
L 323.852605 156.06665 
L 327.322437 156.130857 
L 365.490588 156.25612 
L 433 156.25612 
L 433 156.25612 
" clip-path="url(#p62216efa0c)" style="fill: none; stroke: #808080; stroke-opacity: 0.4; stroke-width: 0.5; stroke-linecap: round"/>
   </g>
   <g id="line2d_61">
    <path d="M -1 156.25612 
L 104.096584 156.25612 
L 105.253194 155.938364 
L 111.036248 152.708473 
L 128.385407 142.937406 
L 129.542018 142.623912 
L 135.325071 142.638928 
L 153.830841 142.843373 
L 172.336611 145.530781 
L 176.963054 146.204414 
L 178.119665 146.104459 
L 183.902718 144.195856 
L 201.251877 138.400049 
L 202.408488 136.320462 
L 205.87832 125.298536 
L 225.540701 62.092593 
L 226.697311 61.218581 
L 227.853922 63.468969 
L 249.829524 111.554255 
L 250.986135 113.453047 
L 254.455967 117.148292 
L 274.118348 137.770968 
L 275.274958 138.66339 
L 281.058011 141.573899 
L 298.407171 150.229013 
L 299.563782 150.23291 
L 303.033614 148.752378 
L 322.695994 140.131543 
L 323.852605 139.969205 
L 328.479048 140.809689 
L 348.141429 144.404857 
L 363.177367 144.41367 
L 433 144.41367 
L 433 144.41367 
" clip-path="url(#p62216efa0c)" style="fill: none; stroke: #808080; stroke-opacity: 0.4; stroke-width: 0.5; stroke-linecap: round"/>
   </g>
   <g id="line2d_62">
    <path d="M -1 138.421074 
L 6.94129 138.421074 
L 8.097901 138.690757 
L 13.880954 141.5506 
L 31.230113 150.205714 
L 32.386724 150.249459 
L 35.856556 148.772854 
L 55.518937 140.15202 
L 56.675547 139.963033 
L 61.30199 140.80089 
L 79.80776 144.287126 
L 80.964371 144.633443 
L 92.530477 149.572159 
L 104.096584 154.52309 
L 105.253194 154.728101 
L 111.036248 154.254975 
L 128.385407 152.761288 
L 129.542018 152.232088 
L 134.16846 147.926882 
L 152.674231 130.520697 
L 153.830841 129.730752 
L 159.613894 127.506527 
L 176.963054 120.920414 
L 178.119665 120.687849 
L 186.215939 120.58483 
L 201.251877 120.426853 
L 202.408488 119.111846 
L 205.87832 110.141836 
L 225.540701 58.500985 
L 226.697311 58.550408 
L 229.010533 65.736662 
L 249.829524 133.152455 
L 250.986135 135.262117 
L 252.142746 135.74199 
L 274.118348 142.108451 
L 275.274958 142.238 
L 283.371233 141.746086 
L 298.407171 140.802213 
L 299.563782 141.22875 
L 303.033614 144.280769 
L 322.695994 161.859488 
L 323.852605 161.363302 
L 326.165826 157.133639 
L 346.984818 117.82535 
L 348.141429 117.776653 
L 350.45465 121.775861 
L 371.273641 159.323007 
L 372.430252 159.965607 
L 373.586863 158.969773 
L 395.562465 137.246001 
L 396.719075 136.429188 
L 402.502129 134.145544 
L 419.851288 127.384514 
L 421.007899 125.511546 
L 424.477731 115.673693 
L 433 91.22319 
L 433 91.22319 
" clip-path="url(#p62216efa0c)" style="fill: none; stroke: #808080; stroke-opacity: 0.4; stroke-width: 0.5; stroke-linecap: round"/>
   </g>
   <g id="line2d_63">
    <path d="M -1 121.422794 
L 128.385407 121.422794 
L 129.542018 121.755771 
L 135.325071 124.980039 
L 152.674231 134.729346 
L 153.830841 135.573029 
L 164.240337 145.200722 
L 176.963054 156.990833 
L 178.119665 156.863546 
L 180.432886 154.153529 
L 201.251877 128.82509 
L 202.408488 126.249785 
L 208.191541 107.812537 
L 225.540701 52.227455 
L 226.697311 51.646805 
L 227.853922 54.499303 
L 249.829524 114.551183 
L 250.986135 116.424702 
L 253.299356 117.492827 
L 275.274958 126.504987 
L 298.407171 133.964779 
L 299.563782 133.694902 
L 303.033614 130.603252 
L 322.695994 112.718313 
L 323.852605 113.064781 
L 326.165826 116.71638 
L 346.984818 150.71525 
L 348.141429 151.659564 
L 350.45465 151.73596 
L 433 151.73596 
L 433 151.73596 
" clip-path="url(#p62216efa0c)" style="fill: none; stroke: #808080; stroke-opacity: 0.4; stroke-width: 0.5; stroke-linecap: round"/>
   </g>
   <g id="line2d_64">
    <path d="M -1 133.707214 
L 129.542018 133.635384 
L 153.830841 130.917181 
L 160.770505 132.937564 
L 178.119665 138.098721 
L 201.251877 147.247248 
L 202.408488 144.477641 
L 205.87832 127.052001 
L 225.540701 26.880313 
L 226.697311 25.715128 
L 227.853922 29.743317 
L 249.829524 115.134965 
L 250.986135 118.138356 
L 253.299356 121.042044 
L 274.118348 145.987399 
L 275.274958 146.457974 
L 277.58818 145.671316 
L 298.407171 137.937102 
L 299.563782 137.65412 
L 308.816667 136.803898 
L 322.695994 135.550655 
L 323.852605 135.278485 
L 333.10549 131.636382 
L 346.984818 126.150549 
L 348.141429 125.921996 
L 356.237703 125.903506 
L 433 125.903506 
L 433 125.903506 
" clip-path="url(#p62216efa0c)" style="fill: none; stroke: #808080; stroke-opacity: 0.4; stroke-width: 0.5; stroke-linecap: round"/>
   </g>
   <g id="line2d_65">
    <path d="M -1 146.730085 
L 31.230113 146.730085 
L 32.386724 146.518731 
L 40.482999 143.528705 
L 55.518937 137.942883 
L 56.675547 137.655917 
L 65.928433 136.805303 
L 79.80776 135.55206 
L 80.964371 135.284212 
L 90.217256 131.642533 
L 104.096584 126.1567 
L 105.253194 125.956382 
L 112.192858 126.350615 
L 130.698628 127.349378 
L 153.830841 127.295231 
L 174.649833 129.760167 
L 178.119665 130.259047 
L 196.625435 135.325749 
L 201.251877 136.594316 
L 202.408488 133.932916 
L 205.87832 117.534561 
L 225.540701 23.294096 
L 226.697311 22.845224 
L 229.010533 33.643856 
L 249.829524 135.352564 
L 250.986135 138.438451 
L 252.142746 138.968946 
L 274.118348 144.734786 
L 275.274958 144.085867 
L 278.74479 139.404507 
L 298.407171 112.448131 
L 299.563782 112.130162 
L 301.877003 114.452801 
L 322.695994 136.501906 
L 323.852605 137.172352 
L 327.322437 137.399067 
L 346.984818 138.400568 
L 348.141429 138.13528 
L 353.924482 135.214406 
L 371.273641 126.373116 
L 372.430252 126.503397 
L 375.900084 128.798997 
L 395.562465 142.103073 
L 396.719075 139.770334 
L 399.032297 128.405754 
L 419.851288 23.551468 
L 421.007899 22.62257 
L 422.164509 26.266361 
L 433 64.18062 
L 433 64.18062 
" clip-path="url(#p62216efa0c)" style="fill: none; stroke: #808080; stroke-opacity: 0.4; stroke-width: 0.5; stroke-linecap: round"/>
   </g>
   <g id="line2d_66">
    <path d="M -1 130.96984 
L 104.096584 130.96984 
L 105.253194 131.230174 
L 111.036248 134.372169 
L 128.385407 143.892026 
L 129.542018 144.107578 
L 133.01185 143.164405 
L 152.674231 137.563596 
L 153.830841 137.11227 
L 166.553558 130.580808 
L 178.119665 124.735057 
L 189.685771 121.302233 
L 201.251877 117.881975 
L 202.408488 116.112947 
L 205.87832 105.302053 
L 225.540701 43.152261 
L 226.697311 42.975368 
L 229.010533 50.608616 
L 249.829524 122.39509 
L 250.986135 124.996821 
L 253.299356 127.314691 
L 274.118348 147.070945 
L 275.274958 147.463347 
L 277.58818 146.43083 
L 299.563782 135.990426 
L 311.129888 133.02897 
L 322.695994 130.079319 
L 323.852605 129.924624 
L 334.262101 129.911981 
L 433 129.911981 
L 433 129.911981 
" clip-path="url(#p62216efa0c)" style="fill: none; stroke: #808080; stroke-opacity: 0.4; stroke-width: 0.5; stroke-linecap: round"/>
   </g>
   <g id="line2d_67">
    <path d="M -1 137.126473 
L 105.253194 137.232816 
L 115.66269 139.553269 
L 128.385407 142.405001 
L 129.542018 142.361543 
L 134.16846 140.645776 
L 152.674231 133.652109 
L 153.830841 133.018477 
L 163.083726 126.116912 
L 176.963054 115.736017 
L 178.119665 115.208422 
L 181.589497 115.064901 
L 201.251877 114.485688 
L 202.408488 112.980521 
L 205.87832 102.791142 
L 225.540701 44.135833 
L 226.697311 43.722757 
L 229.010533 49.86949 
L 249.829524 107.885326 
L 250.986135 110.496465 
L 256.769188 120.286625 
L 274.118348 149.494586 
L 275.274958 150.438982 
L 277.58818 149.743409 
L 298.407171 142.474049 
L 299.563782 141.874121 
L 307.660056 136.023812 
L 322.695994 125.122399 
L 323.852605 124.682607 
L 328.479048 124.646664 
L 433 124.646664 
L 433 124.646664 
" clip-path="url(#p62216efa0c)" style="fill: none; stroke: #808080; stroke-opacity: 0.4; stroke-width: 0.5; stroke-linecap: round"/>
   </g>
   <g id="line2d_68">
    <path d="M -1 141.285579 
L 105.253194 141.321623 
L 128.385407 143.074714 
L 129.542018 143.373987 
L 136.481682 146.79628 
L 152.674231 154.834835 
L 153.830841 154.570339 
L 156.144062 152.147221 
L 176.963054 129.608177 
L 178.119665 128.756892 
L 181.589497 127.912701 
L 201.251877 123.406997 
L 202.408488 121.429817 
L 205.87832 108.894719 
L 225.540701 36.796992 
L 226.697311 35.856172 
L 227.853922 38.540976 
L 249.829524 95.734876 
L 250.986135 97.634796 
L 253.299356 99.123749 
L 275.274958 112.255456 
L 291.467507 119.38601 
L 299.563782 123.048084 
L 314.59972 132.569098 
L 322.695994 137.701271 
L 323.852605 137.452945 
L 326.165826 134.879887 
L 346.984818 110.926176 
L 348.141429 110.157592 
L 350.45465 110.093584 
L 433 110.093584 
L 433 110.093584 
" clip-path="url(#p62216efa0c)" style="fill: none; stroke: #808080; stroke-opacity: 0.4; stroke-width: 0.5; stroke-linecap: round"/>
   </g>
   <g id="line2d_69">
    <path d="M -1 118.145905 
L 104.096584 118.145905 
L 105.253194 118.74407 
L 108.723026 123.046891 
L 128.385407 147.836954 
L 129.542018 148.140875 
L 131.855239 145.871028 
L 152.674231 124.321852 
L 153.830841 123.929315 
L 156.144062 125.642187 
L 176.963054 142.047179 
L 178.119665 141.608777 
L 180.432886 136.949382 
L 201.251877 93.527922 
L 202.408488 91.910049 
L 204.721709 90.687918 
L 225.540701 80.473951 
L 226.697311 81.393257 
L 229.010533 86.645146 
L 249.829524 135.231484 
L 250.986135 137.087036 
L 253.299356 138.393497 
L 274.118348 149.205188 
L 275.274958 149.002005 
L 277.58818 146.524047 
L 298.407171 123.413459 
L 299.563782 123.279508 
L 301.877003 125.695425 
L 322.695994 148.47766 
L 323.852605 149.239673 
L 326.165826 149.303608 
L 433 149.303608 
L 433 149.303608 
" clip-path="url(#p62216efa0c)" style="fill: none; stroke: #808080; stroke-opacity: 0.4; stroke-width: 0.5; stroke-linecap: round"/>
   </g>
   <g id="line2d_70">
    <path d="M -1 126.00455 
L 104.096584 126.00455 
L 105.253194 126.187833 
L 112.192858 128.846696 
L 128.385407 135.102114 
L 129.542018 135.353997 
L 136.481682 135.365357 
L 152.674231 135.342803 
L 153.830841 135.211382 
L 161.927116 132.836652 
L 182.746107 126.578849 
L 201.251877 120.721933 
L 202.408488 118.575294 
L 205.87832 105.267844 
L 225.540701 28.75086 
L 226.697311 28.362624 
L 229.010533 37.028231 
L 249.829524 118.668354 
L 250.986135 121.904341 
L 253.299356 124.672333 
L 274.118348 148.126375 
L 275.274958 148.991761 
L 278.74479 149.871753 
L 298.407171 154.581081 
L 299.563782 153.953944 
L 303.033614 148.861947 
L 322.695994 119.492955 
L 323.852605 118.909704 
L 326.165826 121.060547 
L 346.984818 141.725495 
L 348.141429 142.388555 
L 351.61126 142.443775 
L 433 142.443775 
L 433 142.443775 
" clip-path="url(#p62216efa0c)" style="fill: none; stroke: #808080; stroke-opacity: 0.4; stroke-width: 0.5; stroke-linecap: round"/>
   </g>
   <g id="line2d_71">
    <path d="M -1 147.638109 
L 129.542018 147.58938 
L 152.674231 145.352668 
L 153.830841 145.114619 
L 165.396948 141.263058 
L 176.963054 137.3993 
L 178.119665 136.244494 
L 182.746107 128.411416 
L 202.408488 94.991367 
L 216.287816 75.579429 
L 225.540701 62.649447 
L 226.697311 63.268198 
L 229.010533 69.636812 
L 249.829524 128.93767 
L 250.986135 130.909478 
L 253.299356 132.100131 
L 274.118348 141.7622 
L 275.274958 141.833332 
L 279.901401 140.322825 
L 298.407171 134.132853 
L 299.563782 134.337001 
L 303.033614 137.048116 
L 322.695994 152.74731 
L 323.852605 153.332591 
L 328.479048 154.212264 
L 348.141429 157.71516 
L 363.177367 157.723746 
L 433 157.723746 
L 433 157.723746 
" clip-path="url(#p62216efa0c)" style="fill: none; stroke: #808080; stroke-opacity: 0.4; stroke-width: 0.5; stroke-linecap: round"/>
   </g>
   <g id="line2d_72">
    <path d="M -1 157.723746 
L 104.096584 157.723746 
L 105.253194 156.877387 
L 108.723026 151.744512 
L 128.385407 122.248699 
L 129.542018 121.825636 
L 131.855239 124.250252 
L 152.674231 147.345417 
L 153.830841 147.766313 
L 156.144062 146.66093 
L 176.963054 135.961019 
L 178.119665 135.809565 
L 181.589497 136.735117 
L 201.251877 142.198163 
L 202.408488 141.002422 
L 204.721709 134.765615 
L 225.540701 77.134855 
L 226.697311 75.839591 
L 227.853922 76.638747 
L 249.829524 95.394237 
L 250.986135 96.907064 
L 256.769188 107.27639 
L 274.118348 138.52398 
L 275.274958 139.104088 
L 277.58818 137.426906 
L 298.407171 121.257784 
L 299.563782 120.915655 
L 303.033614 121.864129 
L 322.695994 127.555191 
L 323.852605 127.694972 
L 331.94888 127.185711 
L 349.298039 126.166631 
L 433 126.166631 
L 433 126.166631 
" clip-path="url(#p62216efa0c)" style="fill: none; stroke: #808080; stroke-opacity: 0.4; stroke-width: 0.5; stroke-linecap: round"/>
   </g>
   <g id="line2d_73">
    <path d="M -1 125.158201 
L 104.096584 125.158201 
L 105.253194 125.474295 
L 109.879637 128.51867 
L 129.542018 141.500148 
L 141.108124 146.49086 
L 152.674231 151.468782 
L 153.830841 151.238735 
L 156.144062 148.519117 
L 176.963054 123.147814 
L 178.119665 122.242241 
L 180.432886 121.843322 
L 201.251877 118.808187 
L 202.408488 117.629005 
L 205.87832 110.193812 
L 225.540701 67.43215 
L 226.697311 67.553094 
L 229.010533 73.847479 
L 249.829524 132.836429 
L 250.986135 134.839923 
L 252.142746 135.10772 
L 274.118348 137.179469 
L 275.274958 137.471726 
L 282.214622 140.682786 
L 298.407171 148.223064 
L 299.563782 148.312933 
L 303.033614 146.989163 
L 322.695994 139.232541 
L 323.852605 138.506591 
L 329.635658 132.871057 
L 346.984818 115.861757 
L 348.141429 115.20684 
L 351.61126 115.152298 
L 433 115.152298 
L 433 115.152298 
" clip-path="url(#p62216efa0c)" style="fill: none; stroke: #808080; stroke-opacity: 0.4; stroke-width: 0.5; stroke-linecap: round"/>
   </g>
   <g id="line2d_74">
    <path d="M -1 130.66089 
L 104.096584 130.66089 
L 105.253194 130.969996 
L 111.036248 134.111963 
L 128.385407 143.617043 
L 129.542018 143.520535 
L 131.855239 141.507202 
L 152.674231 122.678375 
L 153.830841 122.767007 
L 156.144062 125.506898 
L 176.963054 151.154901 
L 178.119665 151.737921 
L 180.432886 151.180061 
L 201.251877 145.500565 
L 202.408488 143.926153 
L 205.87832 135.646658 
L 225.540701 88.173119 
L 226.697311 87.550928 
L 227.853922 89.313105 
L 249.829524 126.860432 
L 250.986135 127.880733 
L 253.299356 127.931829 
L 275.274958 127.674301 
L 298.407171 129.751599 
L 299.563782 130.307698 
L 304.190224 134.687201 
L 322.695994 152.386708 
L 323.852605 152.685517 
L 326.165826 151.575009 
L 346.984818 140.925463 
L 348.141429 140.629674 
L 353.924482 140.605744 
L 433 140.605744 
L 433 140.605744 
" clip-path="url(#p62216efa0c)" style="fill: none; stroke: #808080; stroke-opacity: 0.4; stroke-width: 0.5; stroke-linecap: round"/>
   </g>
   <g id="line2d_75">
    <path d="M -1 153.230375 
L 79.80776 153.230375 
L 80.964371 152.849337 
L 84.434203 149.936623 
L 104.096584 133.141701 
L 105.253194 133.115897 
L 107.566416 135.715458 
L 128.385407 160.1523 
L 129.542018 160.372111 
L 131.855239 157.975246 
L 152.674231 135.298954 
L 153.830841 135.021687 
L 156.144062 136.686153 
L 176.963054 152.522711 
L 178.119665 152.454129 
L 180.432886 149.65924 
L 201.251877 123.460506 
L 202.408488 121.688057 
L 210.504762 106.381993 
L 225.540701 77.891799 
L 226.697311 77.928603 
L 229.010533 83.118069 
L 249.829524 131.800712 
L 250.986135 133.246958 
L 252.142746 132.978392 
L 274.118348 124.895545 
L 275.274958 125.203481 
L 277.58818 127.7093 
L 298.407171 150.999701 
L 299.563782 151.223405 
L 301.877003 149.173148 
L 322.695994 129.753916 
L 323.852605 129.965853 
L 326.165826 134.131613 
L 346.984818 173.09812 
L 348.141429 172.410228 
L 353.924482 165.669843 
L 371.273641 145.344802 
L 372.430252 144.700578 
L 375.900084 144.649046 
L 433 144.649046 
L 433 144.649046 
" clip-path="url(#p62216efa0c)" style="fill: none; stroke: #808080; stroke-opacity: 0.4; stroke-width: 0.5; stroke-linecap: round"/>
   </g>
   <g id="line2d_76">
    <path d="M -1 137.31462 
L 105.253194 137.235901 
L 115.66269 135.119235 
L 128.385407 132.515724 
L 129.542018 133.097211 
L 148.047788 145.213083 
L 152.674231 148.244196 
L 153.830841 148.409657 
L 157.300673 147.413444 
L 176.963054 141.538017 
L 178.119665 140.837781 
L 181.589497 135.652652 
L 205.87832 98.898265 
L 225.540701 69.838322 
L 226.697311 70.255848 
L 229.010533 75.973915 
L 249.829524 129.323957 
L 250.986135 131.681479 
L 252.142746 131.32373 
L 274.118348 119.55169 
L 275.274958 120.111463 
L 279.901401 124.74357 
L 298.407171 143.449 
L 299.563782 144.078043 
L 301.877003 143.600448 
L 322.695994 138.613179 
L 323.852605 139.207809 
L 346.984818 153.85012 
L 348.141429 154.159423 
L 353.924482 154.18344 
L 433 154.18344 
L 433 154.18344 
" clip-path="url(#p62216efa0c)" style="fill: none; stroke: #808080; stroke-opacity: 0.4; stroke-width: 0.5; stroke-linecap: round"/>
   </g>
   <g id="line2d_77">
    <path d="M -1 146.233689 
L 80.964371 146.233689 
L 82.120982 145.488808 
L 93.687088 135.608179 
L 104.096584 126.701778 
L 105.253194 126.220562 
L 107.566416 127.211406 
L 129.542018 137.423677 
L 133.01185 137.30397 
L 153.830841 136.281366 
L 154.987452 136.974863 
L 161.927116 143.316599 
L 176.963054 157.114173 
L 178.119665 157.663402 
L 180.432886 155.836558 
L 202.408488 137.220939 
L 203.565099 133.370297 
L 225.540701 52.444165 
L 226.697311 52.027636 
L 229.010533 60.018105 
L 249.829524 135.342903 
L 250.986135 138.994035 
L 252.142746 140.255849 
L 275.274958 160.884107 
L 276.431569 160.152326 
L 284.527843 151.844434 
L 298.407171 137.558505 
L 299.563782 136.848326 
L 301.877003 136.971671 
L 322.695994 138.694501 
L 323.852605 138.669918 
L 326.165826 136.223971 
L 348.141429 111.928249 
L 349.298039 112.057639 
L 353.924482 114.816359 
L 371.273641 125.306662 
L 372.430252 125.801983 
L 375.900084 125.844634 
L 433 125.844634 
L 433 125.844634 
" clip-path="url(#p62216efa0c)" style="fill: none; stroke: #808080; stroke-opacity: 0.4; stroke-width: 0.5; stroke-linecap: round"/>
   </g>
   <g id="line2d_78">
    <path d="M -1 125.844634 
L 79.80776 125.844634 
L 80.964371 126.177552 
L 90.217256 130.468166 
L 104.096584 136.927313 
L 105.253194 137.689723 
L 111.036248 143.712351 
L 129.542018 162.984591 
L 130.698628 161.786122 
L 152.674231 134.752316 
L 153.830841 133.984819 
L 157.300673 133.333729 
L 176.963054 129.898928 
L 178.119665 130.037121 
L 180.432886 132.257004 
L 201.251877 153.029379 
L 202.408488 150.162364 
L 208.191541 128.891862 
L 225.540701 64.808757 
L 226.697311 62.741768 
L 227.853922 63.097429 
L 249.829524 73.986239 
L 250.986135 75.082746 
L 253.299356 82.189354 
L 274.118348 148.182915 
L 275.274958 148.846748 
L 277.58818 147.184596 
L 300.720392 129.553079 
L 322.695994 114.369576 
L 323.852605 113.75465 
L 325.009216 114.889425 
L 346.984818 139.694091 
L 348.141429 140.50024 
L 353.924482 142.733844 
L 371.273641 149.349609 
L 372.430252 149.661986 
L 378.213305 149.688884 
L 433 149.688884 
L 433 149.688884 
" clip-path="url(#p62216efa0c)" style="fill: none; stroke: #808080; stroke-opacity: 0.4; stroke-width: 0.5; stroke-linecap: round"/>
   </g>
   <g id="line2d_79">
    <path d="M -1 130.893825 
L 79.80776 130.893825 
L 80.964371 131.464123 
L 87.904035 136.969951 
L 104.096584 149.878769 
L 105.253194 150.448416 
L 107.566416 150.233704 
L 129.542018 147.60635 
L 135.325071 145.416437 
L 152.674231 138.768624 
L 153.830841 137.785198 
L 159.613894 130.574421 
L 176.963054 108.830926 
L 178.119665 108.159043 
L 179.276275 109.607521 
L 202.408488 142.60715 
L 203.565099 139.008003 
L 225.540701 56.428592 
L 226.697311 55.557048 
L 227.853922 58.50405 
L 249.829524 121.008712 
L 250.986135 123.881857 
L 252.142746 124.889621 
L 274.118348 140.619452 
L 275.274958 140.077027 
L 279.901401 135.126847 
L 298.407171 115.120463 
L 299.563782 114.921693 
L 301.877003 117.904031 
L 322.695994 146.086596 
L 323.852605 147.391866 
L 325.009216 146.223429 
L 346.984818 119.436879 
L 348.141429 119.437921 
L 350.45465 121.422962 
L 371.273641 140.009197 
L 372.430252 140.740518 
L 374.743473 140.803491 
L 433 140.803491 
L 433 140.803491 
" clip-path="url(#p62216efa0c)" style="fill: none; stroke: #808080; stroke-opacity: 0.4; stroke-width: 0.5; stroke-linecap: round"/>
   </g>
   <g id="line2d_80">
    <path d="M -1 154.845942 
L 80.964371 154.845942 
L 83.277592 154.33335 
L 104.096584 149.022056 
L 105.253194 149.036247 
L 108.723026 150.887638 
L 129.542018 162.251371 
L 131.855239 160.962222 
L 153.830841 147.634431 
L 154.987452 147.409006 
L 163.083726 147.448012 
L 176.963054 147.543565 
L 178.119665 147.435238 
L 182.746107 145.643277 
L 202.408488 137.89938 
L 203.565099 133.125473 
L 225.540701 30.742703 
L 226.697311 30.099705 
L 227.853922 34.671173 
L 249.829524 130.421078 
L 250.986135 134.601358 
L 252.142746 134.934269 
L 275.274958 134.172482 
L 277.58818 134.853219 
L 298.407171 141.813035 
L 299.563782 141.91017 
L 303.033614 140.785297 
L 323.852605 133.749936 
L 328.479048 130.40867 
L 348.141429 116.051098 
L 349.298039 116.343123 
L 355.081092 120.072312 
L 371.273641 130.601493 
L 372.430252 131.13416 
L 375.900084 131.180027 
L 433 131.180027 
L 433 131.180027 
" clip-path="url(#p62216efa0c)" style="fill: none; stroke: #808080; stroke-opacity: 0.4; stroke-width: 0.5; stroke-linecap: round"/>
   </g>
   <g id="line2d_81">
    <path d="M -1 131.180027 
L 55.518937 131.180027 
L 58.988769 129.504009 
L 79.80776 119.114903 
L 80.964371 118.904065 
L 89.060645 118.992857 
L 102.939973 119.174278 
L 104.096584 119.312488 
L 107.566416 121.175658 
L 128.385407 132.615966 
L 130.698628 132.713215 
L 153.830841 132.558799 
L 176.963054 135.115888 
L 182.746107 134.031753 
L 201.251877 130.474261 
L 202.408488 128.502947 
L 210.504762 110.464754 
L 225.540701 76.892123 
L 226.697311 75.557569 
L 227.853922 75.594019 
L 249.829524 78.730952 
L 252.142746 84.869248 
L 274.118348 145.676076 
L 275.274958 146.678164 
L 277.58818 146.493334 
L 297.25056 144.221191 
L 298.407171 143.942245 
L 303.033614 141.018513 
L 322.695994 128.421876 
L 326.165826 127.159073 
L 346.984818 119.866436 
L 348.141429 119.762472 
L 356.237703 120.559056 
L 371.273641 121.989937 
L 375.900084 120.455311 
L 395.562465 113.772484 
L 397.875686 113.681763 
L 433 113.681763 
L 433 113.681763 
" clip-path="url(#p62216efa0c)" style="fill: none; stroke: #808080; stroke-opacity: 0.4; stroke-width: 0.5; stroke-linecap: round"/>
   </g>
   <g id="line2d_82">
    <path d="M -1 135.965885 
L 32.386724 136.846379 
L 56.675547 135.508303 
L 74.024707 137.108346 
L 80.964371 137.69438 
L 87.904035 137.320318 
L 105.253194 136.415557 
L 119.132522 138.600568 
L 129.542018 140.150615 
L 135.325071 138.986429 
L 153.830841 135.258072 
L 157.300673 135.390024 
L 176.963054 136.421943 
L 178.119665 136.190176 
L 181.589497 134.305168 
L 201.251877 123.307168 
L 202.408488 121.714427 
L 204.721709 115.881217 
L 225.540701 61.769299 
L 226.697311 61.503382 
L 227.853922 63.821495 
L 249.829524 116.113964 
L 250.986135 117.988279 
L 253.299356 119.877884 
L 274.118348 135.552099 
L 275.274958 136.013641 
L 277.58818 136.13166 
L 313.443109 136.969336 
L 322.695994 137.22412 
L 327.322437 136.764848 
L 348.141429 134.645165 
L 352.767871 134.887603 
L 373.586863 136.045981 
L 396.719075 136.318146 
L 417.538067 133.596099 
L 421.007899 133.221136 
L 433 133.355165 
L 433 133.355165 
" clip-path="url(#p62216efa0c)" style="fill: none; stroke: #000000; stroke-width: 2; stroke-linecap: round"/>
   </g>
   <g id="patch_3">
    <path d="M 29.005865 188.799135 
L 29.005865 3.00024 
" style="fill: none; stroke: #000000; stroke-width: 0.8; stroke-linejoin: miter; stroke-linecap: square"/>
   </g>
   <g id="patch_4">
    <path d="M 29.005865 188.799135 
L 423.43976 188.799135 
" style="fill: none; stroke: #000000; stroke-width: 0.8; stroke-linejoin: miter; stroke-linecap: square"/>
   </g>
  </g>
 </g>
 <defs>
  <clipPath id="p62216efa0c">
   <rect x="29.005865" y="3.00024" width="394.433895" height="185.798895"/>
  </clipPath>
 </defs>
</svg>
