<?xml version="1.0" encoding="utf-8" standalone="no"?>
<!DOCTYPE svg PUBLIC "-//W3C//DTD SVG 1.1//EN"
  "http://www.w3.org/Graphics/SVG/1.1/DTD/svg11.dtd">
<svg xmlns:xlink="http://www.w3.org/1999/xlink" width="432pt" height="432pt" viewBox="0 0 432 432" xmlns="http://www.w3.org/2000/svg" version="1.1">
 <metadata>
  <rdf:RDF xmlns:dc="http://purl.org/dc/elements/1.1/" xmlns:cc="http://creativecommons.org/ns#" xmlns:rdf="http://www.w3.org/1999/02/22-rdf-syntax-ns#">
   <cc:Work>
    <dc:type rdf:resource="http://purl.org/dc/dcmitype/StillImage"/>
    <dc:date>2025-12-09T15:52:42.865051</dc:date>
    <dc:format>image/svg+xml</dc:format>
    <dc:creator>
     <cc:Agent>
      <dc:title>Matplotlib v3.10.0, https://matplotlib.org/</dc:title>
     </cc:Agent>
    </dc:creator>
   </cc:Work>
  </rdf:RDF>
 </metadata>
 <defs>
  <style type="text/css">*{stroke-linejoin: round; stroke-linecap: butt}</style>
 </defs>
 <g id="figure_1">
  <g id="patch_1">
   <path d="M 0 432 
L 432 432 
L 432 0 
L 0 0 
z
" style="fill: #ffffff"/>
  </g>
  <g id="axes_1">
   <g id="patch_2">
    <path d="M 28.894928 132.932885 
L 428.99976 132.932885 
L 428.99976 3.00024 
L 28.894928 3.00024 
z
" style="fill: #ffffff"/>
   </g>
   <g id="matplotlib.axis_1">
    <g id="xtick_1">
     <g id="line2d_1"/>
    </g>
    <g id="xtick_2">
     <g id="line2d_2"/>
    </g>
    <g id="xtick_3">
     <g id="line2d_3"/>
    </g>
    <g id="xtick_4">
     <g id="line2d_4"/>
    </g>
    <g id="xtick_5">
     <g id="line2d_5"/>
    </g>
    <g id="xtick_6">
     <g id="line2d_6"/>
    </g>
    <g id="xtick_7">
     <g id="line2d_7"/>
    </g>
   </g>
   <g id="matplotlib.axis_2">
    <g id="ytick_1">
     <g id="line2d_8"/>
     <g id="text_1">
      <text style="font-size: 8px; font-family: 'Arial', 'Liberation Sans', 'DejaVu Sans', 'Bitstream Vera Sans', sans-serif; text-anchor: end" x="25.394928" y="124.124765" transform="rotate(-0 25.394928 124.124765)">−2</text>
     </g>
    </g>
    <g id="ytick_2">
     <g id="line2d_9"/>
     <g id="text_2">
      <text style="font-size: 8px; font-family: 'Arial', 'Liberation Sans', 'DejaVu Sans', 'Bitstream Vera Sans', sans-serif; text-anchor: end" x="25.394928" y="106.394399" transform="rotate(-0 25.394928 106.394399)">−1</text>
     </g>
    </g>
    <g id="ytick_3">
     <g id="line2d_10"/>
     <g id="text_3">
      <text style="font-size: 8px; font-family: 'Arial', 'Liberation Sans', 'DejaVu Sans', 'Bitstream Vera Sans', sans-serif; text-anchor: end" x="25.394928" y="88.664034" transform="rotate(-0 25.394928 88.664034)">0</text>
     </g>
    </g>
    <g id="ytick_4">
     <g id="line2d_11"/>
     <g id="text_4">
      <text style="font-size: 8px; font-family: 'Arial', 'Liberation Sans', 'DejaVu Sans', 'Bitstream Vera Sans', sans-serif; text-anchor: end" x="25.394928" y="70.933668" transform="rotate(-0 25.394928 70.933668)">1</text>
     </g>
    </g>
    <g id="ytick_5">
     <g id="line2d_12"/>
     <g id="text_5">
      <text style="font-size: 8px; font-family: 'Arial', 'Liberation Sans', 'DejaVu Sans', 'Bitstream Vera Sans', sans-serif; text-anchor: end" x="25.394928" y="53.203303" transform="rotate(-0 25.394928 53.203303)">2</text>
     </g>
    </g>
    <g id="ytick_6">
     <g id="line2d_13"/>
     <g id="text_6">
      <text style="font-size: 8px; font-family: 'Arial', 'Liberation Sans', 'DejaVu Sans', 'Bitstream Vera Sans', sans-serif; text-anchor: end" x="25.394928" y="35.472937" transform="rotate(-0 25.394928 35.472937)">3</text>
     </g>
    </g>
    <g id="ytick_7">
     <g id="line2d_14"/>
     <g id="text_7">
      <text style="font-size: 8px; font-family: 'Arial', 'Liberation Sans', 'DejaVu Sans', 'Bitstream Vera Sans', sans-serif; text-anchor: end" x="25.394928" y="17.742572" transform="rotate(-0 25.394928 17.742572)">4</text>
     </g>
    </g>
    <g id="text_8">
     <text style="font-size: 10px; font-family: 'Arial', 'Liberation Sans', 'DejaVu Sans', 'Bitstream Vera Sans', sans-serif; text-anchor: middle" x="10.286178" y="67.966563" transform="rotate(-90 10.286178 67.966563)">ΔRLU/RLUo_Zscore_ROI1</text>
    </g>
   </g>
   <g id="line2d_15">
    <path d="M 47.081511 90.024364 
L 47.810454 88.308796 
L 48.539397 66.528664 
L 49.26837 87.381972 
L 49.997313 78.313685 
L 50.726226 99.017841 
L 51.45517 95.907849 
L 52.184113 86.173424 
L 52.913056 96.267341 
L 53.641999 67.899999 
L 54.370942 92.899824 
L 55.099885 85.910333 
L 55.828828 84.269262 
L 56.557771 82.287358 
L 57.286714 96.205177 
L 58.015658 65.882892 
L 58.744601 85.998628 
L 59.473544 95.12711 
L 60.202487 101.578237 
L 60.93143 112.558587 
L 61.660373 67.608351 
L 62.389316 96.095922 
L 63.118259 79.298673 
L 63.847203 83.814457 
L 64.576146 93.252947 
L 65.305089 83.14943 
L 66.034328 96.787113 
L 66.763271 76.034178 
L 67.492214 86.055792 
L 68.221157 79.703414 
L 69.679043 57.123577 
L 70.407987 94.320144 
L 71.13693 95.605681 
L 71.865873 91.158342 
L 72.594816 88.458717 
L 73.323759 64.816529 
L 74.781645 99.995742 
L 75.510588 108.252284 
L 76.239532 79.904298 
L 76.967291 100.264898 
L 77.698306 109.686737 
L 78.426361 97.750675 
L 79.154416 73.457726 
L 79.885431 83.069192 
L 80.613486 88.351347 
L 81.341541 74.898767 
L 82.069597 81.147115 
L 82.800611 52.918205 
L 83.528667 81.305737 
L 84.256722 75.743875 
L 84.987737 75.908145 
L 85.715792 104.59248 
L 86.443847 83.014159 
L 87.174862 84.640627 
L 87.902917 72.654028 
L 88.630973 81.153842 
L 89.361987 68.776278 
L 90.090043 81.445292 
L 90.818098 99.712314 
L 91.546153 81.674184 
L 92.277168 89.040463 
L 93.005223 99.43 
L 93.733278 94.978814 
L 94.464293 75.329063 
L 95.192349 81.166763 
L 95.920404 100.900556 
L 96.651419 89.923597 
L 98.107529 109.651558 
L 98.835584 83.699367 
L 99.566599 91.21226 
L 100.294654 90.230647 
L 101.02271 108.363243 
L 101.753725 108.82031 
L 102.48178 74.56268 
L 103.209835 71.145615 
L 103.94085 93.020648 
L 104.668905 78.185809 
L 105.39696 89.587752 
L 106.125016 77.815393 
L 106.85603 101.114056 
L 107.584086 103.878945 
L 108.312141 81.06078 
L 109.043156 87.983086 
L 109.771211 98.615121 
L 110.499266 62.319508 
L 111.230281 109.463364 
L 111.958336 102.782567 
L 112.686391 100.958238 
L 113.414447 86.417442 
L 114.145462 80.647869 
L 114.873517 69.225623 
L 115.601572 88.759897 
L 116.332587 81.394897 
L 117.060642 72.864641 
L 117.788697 83.871255 
L 118.519712 82.937052 
L 119.247767 93.868639 
L 119.975823 62.810481 
L 120.706838 79.012633 
L 121.434893 112.151601 
L 122.891003 82.694057 
L 123.622018 92.21797 
L 124.350073 80.211954 
L 125.078129 77.067864 
L 125.809143 88.694251 
L 126.537199 97.769461 
L 127.996269 77.15762 
L 128.724324 74.107995 
L 129.452379 82.235221 
L 130.180434 105.125047 
L 130.911449 65.279094 
L 131.639505 90.573052 
L 132.36756 75.960554 
L 133.098575 52.754027 
L 133.82663 84.075218 
L 134.554685 78.313337 
L 135.2857 75.61153 
L 136.013755 92.037815 
L 136.74181 67.616072 
L 137.469866 79.642315 
L 138.20088 74.085065 
L 138.928936 89.283052 
L 139.656991 70.406295 
L 140.388006 99.238565 
L 141.116061 72.433982 
L 141.844116 71.909793 
L 142.575131 94.162833 
L 143.303186 76.116629 
L 144.031242 66.765124 
L 144.759297 65.190933 
L 145.490312 83.800383 
L 146.218367 78.822558 
L 146.946422 79.480436 
L 147.677437 77.283822 
L 148.405492 79.202739 
L 149.133547 92.46653 
L 149.864562 59.278013 
L 150.592618 105.6856 
L 151.320673 75.095232 
L 152.048728 91.745654 
L 152.779743 101.290893 
L 153.507798 74.003662 
L 154.235853 76.154768 
L 154.966868 93.568955 
L 155.694923 65.637622 
L 156.422979 69.819626 
L 157.153993 80.644625 
L 157.882049 76.615225 
L 158.610104 46.412952 
L 159.341119 74.13774 
L 160.069174 82.632998 
L 160.797229 79.920206 
L 161.525285 96.995092 
L 162.256299 57.011002 
L 162.984355 55.903816 
L 163.71241 86.931904 
L 164.443425 78.299886 
L 165.17148 81.202562 
L 165.899535 85.850488 
L 166.63055 67.529697 
L 167.358605 75.602262 
L 168.08666 96.41941 
L 168.814716 77.096225 
L 169.545731 78.42011 
L 170.273786 76.478406 
L 171.001841 88.40548 
L 171.732856 82.548068 
L 172.460911 93.362644 
L 173.188966 90.652565 
L 173.919981 102.490557 
L 174.648036 90.894512 
L 175.376092 82.331385 
L 176.104147 53.969586 
L 176.835162 75.084634 
L 177.563217 77.569187 
L 178.291272 103.726986 
L 179.022287 73.02648 
L 179.750342 97.035958 
L 180.478398 110.573857 
L 181.209412 85.656158 
L 181.937468 86.886161 
L 182.665523 105.45539 
L 183.393578 92.418448 
L 184.852648 79.850256 
L 185.580703 92.493695 
L 186.311718 100.966863 
L 187.039773 105.065023 
L 187.767829 71.131095 
L 188.498844 84.209687 
L 189.226899 106.794408 
L 189.954954 94.436128 
L 190.683009 115.96443 
L 191.414024 79.081457 
L 192.142079 98.265217 
L 192.870135 100.498605 
L 193.601149 102.095571 
L 194.329205 87.903167 
L 195.05726 116.248526 
L 195.788275 107.093839 
L 196.51633 103.751117 
L 197.244385 102.676086 
L 197.9754 96.558384 
L 198.703455 104.59378 
L 199.431511 90.675226 
L 200.159566 82.590856 
L 200.890581 91.97011 
L 201.618636 68.903051 
L 202.346691 95.336722 
L 203.077706 103.649049 
L 203.805761 82.450351 
L 204.533816 98.11779 
L 205.264831 97.647556 
L 205.992886 110.752165 
L 206.720942 78.950693 
L 207.448997 71.06159 
L 208.180012 85.088332 
L 208.908067 91.809913 
L 209.636122 109.765619 
L 210.367137 123.523013 
L 211.095192 100.474458 
L 211.823248 111.834571 
L 212.554262 87.714367 
L 213.282318 89.551517 
L 214.010373 106.842514 
L 214.738428 91.770176 
L 215.469443 101.942238 
L 216.197498 108.050613 
L 216.925553 78.472857 
L 217.656568 103.94404 
L 218.384624 86.677886 
L 219.112679 102.209036 
L 219.843694 79.830796 
L 220.571749 43.354657 
L 221.299804 75.036826 
L 222.027859 67.780329 
L 222.758874 77.509088 
L 223.486929 90.152128 
L 224.214985 107.996009 
L 224.945999 79.328921 
L 225.674055 95.585656 
L 226.40211 102.394797 
L 227.133125 115.494205 
L 227.86118 50.034029 
L 228.589235 93.35587 
L 229.317291 113.461682 
L 230.048305 94.018751 
L 230.776361 91.310853 
L 231.504416 85.076548 
L 232.235431 98.422718 
L 232.963486 84.642933 
L 233.691541 93.15298 
L 234.422556 81.936665 
L 235.150611 37.656327 
L 235.878666 108.601611 
L 237.337737 84.322943 
L 238.065792 105.941574 
L 238.793847 92.701794 
L 239.524862 101.822817 
L 240.252917 96.773355 
L 240.980972 115.268635 
L 241.711987 57.194757 
L 242.440042 33.832805 
L 243.168098 75.087084 
L 243.899112 127.026856 
L 244.627168 77.007824 
L 245.355223 121.058725 
L 246.083278 112.746858 
L 246.814293 59.021938 
L 247.542348 86.377543 
L 248.270404 108.30411 
L 249.001418 51.401833 
L 249.729474 41.463049 
L 250.457529 86.587233 
L 251.188544 86.240881 
L 251.916599 111.16672 
L 252.644654 70.176991 
L 253.372709 89.347501 
L 254.103724 69.897819 
L 254.831779 72.235485 
L 255.559835 107.937362 
L 256.29085 34.420422 
L 257.018905 55.545071 
L 257.74696 81.608165 
L 258.477975 85.837166 
L 259.20603 119.195676 
L 259.934085 78.927367 
L 260.662141 63.4566 
L 261.393155 82.899894 
L 262.121211 26.010502 
L 262.849266 53.219581 
L 263.580281 97.315898 
L 264.308336 95.048464 
L 265.036391 81.630022 
L 265.767406 99.31733 
L 266.495461 95.322253 
L 267.223517 90.416175 
L 267.954531 77.571138 
L 268.682587 86.955888 
L 269.410642 32.800893 
L 270.138697 48.379927 
L 270.869712 86.317578 
L 271.597767 104.902584 
L 272.325822 102.810926 
L 273.056837 81.287565 
L 273.784892 69.16093 
L 274.512948 100.509121 
L 275.243963 82.500895 
L 275.972018 83.081012 
L 276.700073 58.734038 
L 277.428128 61.539148 
L 278.159143 73.278382 
L 278.887198 108.002595 
L 279.615254 83.683344 
L 280.346268 90.124789 
L 281.074324 101.017286 
L 281.802379 86.048311 
L 282.533394 105.433981 
L 283.261449 101.467556 
L 283.989504 38.435065 
L 285.448574 79.180754 
L 286.17663 92.280654 
L 286.904685 89.645303 
L 287.6357 71.544607 
L 288.363755 89.693031 
L 289.09181 103.21515 
L 289.822825 85.440366 
L 290.55088 88.449976 
L 291.278935 95.809002 
L 292.006991 45.03087 
L 292.738005 77.558106 
L 293.466061 99.754578 
L 294.194116 89.522321 
L 294.925131 95.498879 
L 295.653186 81.715116 
L 296.381241 103.977527 
L 297.112256 101.457294 
L 297.840311 90.767718 
L 298.568367 82.062214 
L 299.296422 57.700021 
L 300.027437 68.825455 
L 301.483547 111.882847 
L 302.214562 88.631236 
L 302.942617 92.863338 
L 303.670672 64.092884 
L 304.401687 91.205185 
L 305.129743 109.490351 
L 305.857798 105.40514 
L 306.588813 67.742604 
L 307.316868 55.359948 
L 308.044923 103.382101 
L 308.772978 90.549389 
L 309.503993 71.983115 
L 310.232048 107.674817 
L 310.960104 80.44717 
L 311.691118 95.898624 
L 312.419174 113.754576 
L 313.147229 79.536733 
L 313.878244 89.695454 
L 314.606299 56.121369 
L 315.334354 15.167979 
L 316.06241 84.105394 
L 316.793424 100.879912 
L 317.52148 95.473949 
L 318.249535 66.49354 
L 318.98055 70.690385 
L 319.708605 98.580318 
L 320.43666 92.015563 
L 321.167675 118.043771 
L 321.89573 102.185247 
L 322.623785 75.279516 
L 323.351841 41.250048 
L 324.082856 91.708302 
L 324.810911 73.103076 
L 325.538966 88.62919 
L 326.269981 84.565269 
L 326.998036 110.556837 
L 327.726091 101.825025 
L 328.457106 95.995673 
L 329.185161 87.129785 
L 329.913217 100.214441 
L 330.641272 109.343032 
L 331.372287 66.169219 
L 332.100342 35.385184 
L 332.828397 101.68198 
L 333.559412 82.037066 
L 334.287467 74.380532 
L 335.015523 78.84978 
L 335.746537 81.346951 
L 336.474593 86.29738 
L 337.202648 71.749047 
L 337.930703 88.021793 
L 338.661718 96.882717 
L 339.389773 100.303614 
L 340.117828 52.481329 
L 340.848843 63.708306 
L 341.576898 106.063221 
L 342.304954 94.792005 
L 343.035969 97.076503 
L 343.749226 78.974763 
L 344.489119 76.866433 
L 345.229013 113.101835 
L 345.939311 86.602476 
L 346.679204 81.108916 
L 347.419098 97.618938 
L 348.129396 79.183343 
L 348.869289 36.415456 
L 349.609183 65.501436 
L 350.319481 102.32464 
L 351.059374 104.050356 
L 351.769672 107.117362 
L 352.509565 70.183638 
L 353.249459 95.304657 
L 353.959757 102.237057 
L 354.69965 92.001403 
L 355.439544 76.516472 
L 356.149842 94.79166 
L 356.889735 126.168968 
L 357.600033 70.037093 
L 358.339927 79.192522 
L 359.07982 77.970523 
L 359.790118 113.403804 
L 360.530011 84.293445 
L 361.269905 102.014511 
L 361.980203 107.211026 
L 362.720096 102.608668 
L 363.45999 70.709243 
L 364.170288 125.236979 
L 364.910181 90.731691 
L 365.620479 99.899625 
L 366.360373 66.807461 
L 367.100266 8.906269 
L 367.810564 70.952282 
L 368.550458 94.431527 
L 369.290351 80.563043 
L 370.000649 85.596316 
L 370.740542 78.702097 
L 371.45084 89.59526 
L 372.930627 98.722454 
L 373.640925 75.384331 
L 375.120712 100.151985 
L 375.83101 76.011642 
L 376.570904 44.908312 
L 377.281201 109.498942 
L 378.021095 61.997984 
L 378.760988 82.22152 
L 379.471286 93.598606 
L 380.21118 86.128596 
L 380.951073 96.77881 
L 381.661371 81.032796 
L 382.401265 82.633402 
L 383.141158 66.418494 
L 383.851456 81.13634 
L 384.59135 84.727998 
L 385.301647 58.866797 
L 386.041541 63.457761 
L 387.491732 111.952791 
L 388.231626 90.706595 
L 388.971519 85.880629 
L 389.681817 102.938902 
L 390.421711 105.700344 
L 391.132008 118.613859 
L 391.871902 81.054749 
L 392.611796 123.53842 
L 393.322093 87.490449 
L 394.061987 117.498437 
L 394.80188 84.258099 
L 395.512178 26.927652 
L 396.252072 101.406346 
L 396.96237 64.592421 
L 397.702263 109.071434 
L 398.442157 111.811127 
L 399.152454 95.876277 
L 399.892348 83.482568 
L 400.632242 103.962672 
L 401.342539 76.998274 
L 402.082433 77.422554 
L 402.822326 86.376862 
L 403.532624 77.82744 
L 404.272518 85.522166 
L 404.982816 77.30774 
L 405.722709 35.407578 
L 406.462603 88.332721 
L 407.1729 90.995679 
L 407.912794 89.407995 
L 408.652688 82.191985 
L 409.362985 86.092564 
L 410.102879 93.710027 
L 410.813177 92.803403 
L 410.813177 92.803403 
" clip-path="url(#p0ddd43beb7)" style="fill: none; stroke: #000000; stroke-linecap: round"/>
   </g>
   <g id="patch_3">
    <path d="M 28.894928 132.932885 
L 28.894928 3.00024 
" style="fill: none; stroke: #000000; stroke-width: 0.8; stroke-linejoin: miter; stroke-linecap: square"/>
   </g>
   <g id="patch_4">
    <path d="M 28.894928 132.932885 
L 428.99976 132.932885 
" style="fill: none; stroke: #000000; stroke-width: 0.8; stroke-linejoin: miter; stroke-linecap: square"/>
   </g>
  </g>
  <g id="axes_2">
   <g id="patch_5">
    <path d="M 28.894928 268.86601 
L 428.99976 268.86601 
L 428.99976 138.933365 
L 28.894928 138.933365 
z
" style="fill: #ffffff"/>
   </g>
   <g id="matplotlib.axis_3">
    <g id="xtick_8">
     <g id="line2d_16"/>
    </g>
    <g id="xtick_9">
     <g id="line2d_17"/>
    </g>
    <g id="xtick_10">
     <g id="line2d_18"/>
    </g>
    <g id="xtick_11">
     <g id="line2d_19"/>
    </g>
    <g id="xtick_12">
     <g id="line2d_20"/>
    </g>
    <g id="xtick_13">
     <g id="line2d_21"/>
    </g>
    <g id="xtick_14">
     <g id="line2d_22"/>
    </g>
   </g>
   <g id="matplotlib.axis_4">
    <g id="ytick_8">
     <g id="line2d_23"/>
     <g id="text_9">
      <text style="font-size: 8px; font-family: 'Arial', 'Liberation Sans', 'DejaVu Sans', 'Bitstream Vera Sans', sans-serif; text-anchor: end" x="25.394928" y="261.410847" transform="rotate(-0 25.394928 261.410847)">−2</text>
     </g>
    </g>
    <g id="ytick_9">
     <g id="line2d_24"/>
     <g id="text_10">
      <text style="font-size: 8px; font-family: 'Arial', 'Liberation Sans', 'DejaVu Sans', 'Bitstream Vera Sans', sans-serif; text-anchor: end" x="25.394928" y="229.56863" transform="rotate(-0 25.394928 229.56863)">0</text>
     </g>
    </g>
    <g id="ytick_10">
     <g id="line2d_25"/>
     <g id="text_11">
      <text style="font-size: 8px; font-family: 'Arial', 'Liberation Sans', 'DejaVu Sans', 'Bitstream Vera Sans', sans-serif; text-anchor: end" x="25.394928" y="197.726414" transform="rotate(-0 25.394928 197.726414)">2</text>
     </g>
    </g>
    <g id="ytick_11">
     <g id="line2d_26"/>
     <g id="text_12">
      <text style="font-size: 8px; font-family: 'Arial', 'Liberation Sans', 'DejaVu Sans', 'Bitstream Vera Sans', sans-serif; text-anchor: end" x="25.394928" y="165.884197" transform="rotate(-0 25.394928 165.884197)">4</text>
     </g>
    </g>
    <g id="text_13">
     <text style="font-size: 10px; font-family: 'Arial', 'Liberation Sans', 'DejaVu Sans', 'Bitstream Vera Sans', sans-serif; text-anchor: middle" x="10.286178" y="203.899688" transform="rotate(-90 10.286178 203.899688)">ΔRLU/RLUo_Zscore_ROI2</text>
    </g>
   </g>
   <g id="line2d_27">
    <path d="M 47.081511 226.083329 
L 47.810454 225.803711 
L 48.539397 223.763722 
L 49.26837 242.443838 
L 49.997313 220.115442 
L 50.726226 241.825652 
L 51.45517 236.039114 
L 52.184113 229.201366 
L 52.913056 231.150124 
L 53.641999 227.933999 
L 54.370942 225.998973 
L 55.099885 222.540156 
L 55.828828 240.938678 
L 56.557771 219.276338 
L 57.286714 220.475709 
L 58.015658 216.670355 
L 58.744601 222.639311 
L 59.473544 222.112688 
L 60.202487 216.429851 
L 60.93143 214.07922 
L 61.660373 224.905367 
L 62.389316 210.424694 
L 63.118259 207.200946 
L 63.847203 220.938729 
L 64.576146 230.533936 
L 65.305089 213.983063 
L 66.034328 242.606149 
L 66.763271 231.360204 
L 67.492214 223.750483 
L 68.221157 228.706405 
L 68.9501 220.878378 
L 69.679043 201.620207 
L 70.407987 235.534045 
L 71.865873 226.134895 
L 72.594816 231.771861 
L 73.323759 232.229576 
L 74.052702 220.054617 
L 74.781645 221.994705 
L 75.510588 239.460677 
L 76.239532 229.711765 
L 76.967291 236.610135 
L 77.698306 227.491478 
L 78.426361 227.961858 
L 79.154416 217.910197 
L 79.885431 235.69522 
L 80.613486 227.442044 
L 81.341541 234.217391 
L 82.069597 228.553737 
L 82.800611 221.693608 
L 83.528667 227.624729 
L 84.256722 219.115294 
L 84.987737 217.561362 
L 85.715792 244.030881 
L 86.443847 226.172509 
L 87.174862 250.548884 
L 87.902917 238.07967 
L 88.630973 219.546688 
L 89.361987 221.066363 
L 90.090043 216.97424 
L 90.818098 245.067304 
L 91.546153 233.238198 
L 92.277168 242.232103 
L 93.005223 233.319371 
L 93.733278 228.410586 
L 94.464293 235.124707 
L 95.192349 217.718929 
L 95.920404 244.661528 
L 96.651419 216.481711 
L 97.379474 234.646142 
L 98.107529 245.508395 
L 98.835584 225.330703 
L 99.566599 208.316594 
L 100.294654 245.502606 
L 101.02271 231.052437 
L 101.753725 232.001427 
L 102.48178 190.537617 
L 103.94085 230.249038 
L 104.668905 226.160073 
L 105.39696 220.94139 
L 106.125016 218.094732 
L 106.85603 249.027792 
L 107.584086 231.924015 
L 108.312141 239.160677 
L 109.043156 238.762776 
L 109.771211 233.921031 
L 110.499266 216.889646 
L 111.230281 232.348382 
L 111.958336 230.799487 
L 112.686391 236.740957 
L 113.414447 240.429284 
L 114.145462 215.583709 
L 114.873517 222.854253 
L 115.601572 226.611075 
L 116.332587 234.883373 
L 117.060642 227.284849 
L 117.788697 233.106069 
L 118.519712 222.099774 
L 119.247767 235.138137 
L 119.975823 232.179127 
L 120.706838 218.077321 
L 121.434893 234.494558 
L 122.162948 218.726901 
L 122.891003 219.765393 
L 123.622018 231.933211 
L 124.350073 217.020905 
L 125.078129 219.459795 
L 125.809143 225.944955 
L 126.537199 214.85182 
L 127.265254 236.482219 
L 127.996269 212.770164 
L 128.724324 208.514464 
L 129.452379 224.774017 
L 130.180434 236.016143 
L 130.911449 227.028136 
L 131.639505 241.839759 
L 132.36756 228.983579 
L 133.098575 219.691542 
L 133.82663 222.752904 
L 134.554685 211.230835 
L 135.2857 246.283913 
L 136.013755 225.992364 
L 136.74181 218.392818 
L 137.469866 241.521079 
L 138.20088 215.799238 
L 138.928936 225.858986 
L 139.656991 221.286435 
L 140.388006 235.821831 
L 141.116061 213.180018 
L 141.844116 219.748982 
L 142.575131 231.117408 
L 143.303186 230.859478 
L 144.031242 225.213767 
L 144.759297 208.268731 
L 145.490312 230.793107 
L 146.218367 211.732576 
L 146.946422 220.432561 
L 147.677437 225.025591 
L 148.405492 218.489144 
L 149.133547 236.034735 
L 149.864562 221.378937 
L 150.592618 223.54957 
L 151.320673 213.064092 
L 152.048728 238.861828 
L 152.779743 229.52634 
L 153.507798 215.992162 
L 154.235853 232.428013 
L 154.966868 207.096632 
L 155.694923 209.934426 
L 156.422979 231.075224 
L 157.153993 221.985848 
L 157.882049 219.015181 
L 158.610104 217.055456 
L 159.341119 224.010738 
L 160.069174 225.195643 
L 160.797229 222.424201 
L 161.525285 234.832368 
L 162.256299 220.24734 
L 162.984355 221.495577 
L 163.71241 220.260991 
L 164.443425 229.411423 
L 165.17148 207.519059 
L 165.899535 223.487319 
L 166.63055 236.064325 
L 167.358605 224.863348 
L 168.08666 231.932151 
L 168.814716 201.450016 
L 169.545731 228.547306 
L 170.273786 239.207455 
L 171.001841 213.144585 
L 171.732856 229.951677 
L 172.460911 214.596375 
L 173.188966 230.192078 
L 173.919981 231.351769 
L 174.648036 256.103902 
L 175.376092 213.768126 
L 176.104147 222.90298 
L 176.835162 207.84045 
L 177.563217 219.862427 
L 178.291272 236.407867 
L 179.750342 220.060696 
L 180.478398 240.149366 
L 181.209412 219.46611 
L 181.937468 235.28317 
L 182.665523 211.459636 
L 183.393578 236.477727 
L 184.124593 232.599225 
L 184.852648 236.144622 
L 185.580703 222.74923 
L 186.311718 231.261065 
L 187.039773 231.058016 
L 187.767829 230.20496 
L 188.498844 231.332788 
L 189.226899 227.637887 
L 189.954954 219.706153 
L 190.683009 234.70943 
L 191.414024 231.106767 
L 192.142079 240.16565 
L 192.870135 222.871313 
L 193.601149 233.714075 
L 194.329205 214.418547 
L 195.05726 217.733531 
L 195.788275 237.759949 
L 196.51633 235.656872 
L 197.244385 216.612971 
L 197.9754 227.797408 
L 198.703455 219.75847 
L 199.431511 242.770217 
L 200.159566 224.09753 
L 200.890581 233.026886 
L 201.618636 218.668045 
L 202.346691 226.752538 
L 203.077706 229.030416 
L 203.805761 239.27196 
L 204.533816 230.709182 
L 205.264831 240.705487 
L 205.992886 236.282879 
L 206.720942 228.698078 
L 207.448997 233.189578 
L 208.180012 215.730245 
L 208.908067 222.634122 
L 209.636122 233.542416 
L 210.367137 248.357632 
L 211.095192 237.013475 
L 211.823248 221.875216 
L 212.554262 188.553181 
L 214.010373 221.87259 
L 214.738428 249.153446 
L 215.469443 237.766307 
L 216.197498 223.468132 
L 216.925553 237.588534 
L 217.656568 226.184439 
L 218.384624 229.989609 
L 219.112679 220.297197 
L 219.843694 206.585757 
L 220.571749 202.149128 
L 221.299804 226.321959 
L 222.027859 224.214379 
L 222.758874 235.291438 
L 223.486929 225.634889 
L 224.214985 224.361088 
L 224.945999 225.133042 
L 225.674055 223.854989 
L 226.40211 213.098495 
L 227.133125 221.591408 
L 227.86118 180.651293 
L 228.589235 224.856314 
L 229.317291 233.575244 
L 230.048305 233.06841 
L 230.776361 251.458225 
L 231.504416 237.714183 
L 232.235431 240.93573 
L 232.963486 222.989222 
L 233.691541 231.992852 
L 234.422556 216.507338 
L 235.150611 188.007415 
L 235.878666 232.744666 
L 236.609681 237.258261 
L 237.337737 248.431495 
L 238.065792 223.323837 
L 239.524862 245.721645 
L 240.252917 252.86342 
L 240.980972 252.000714 
L 241.711987 203.925541 
L 242.440042 206.822127 
L 243.168098 238.654151 
L 243.899112 236.442518 
L 244.627168 226.894205 
L 245.355223 230.669028 
L 246.083278 254.105857 
L 246.814293 232.046212 
L 247.542348 235.033909 
L 248.270404 250.12241 
L 249.001418 174.608104 
L 249.729474 214.677778 
L 251.188544 243.806019 
L 251.916599 222.383317 
L 252.644654 231.922734 
L 253.372709 232.126287 
L 254.103724 207.848038 
L 254.831779 234.187852 
L 255.559835 232.266534 
L 256.29085 165.127122 
L 257.018905 240.117743 
L 257.74696 241.26114 
L 258.477975 215.325387 
L 259.20603 235.603595 
L 259.934085 235.181283 
L 260.662141 237.969156 
L 261.393155 237.08671 
L 262.121211 173.854743 
L 262.849266 215.66173 
L 263.580281 242.482171 
L 264.308336 221.493745 
L 265.036391 225.397265 
L 265.767406 239.446494 
L 266.495461 242.12147 
L 267.223517 261.886808 
L 267.954531 219.406456 
L 268.682587 261.296504 
L 269.410642 164.827454 
L 270.138697 220.955994 
L 270.869712 252.149711 
L 271.597767 220.200594 
L 272.325822 237.80777 
L 273.056837 246.861663 
L 273.784892 237.626918 
L 274.512948 244.262496 
L 275.243963 242.823951 
L 275.972018 232.356879 
L 276.700073 177.992959 
L 277.428128 217.50156 
L 278.159143 228.193719 
L 278.887198 227.981474 
L 279.615254 246.173781 
L 280.346268 248.679447 
L 281.074324 241.13649 
L 281.802379 262.959981 
L 282.533394 233.86671 
L 283.261449 245.932426 
L 283.989504 175.064655 
L 284.717559 214.4394 
L 285.448574 243.774161 
L 286.17663 235.360795 
L 286.904685 229.640722 
L 287.6357 245.824656 
L 288.363755 215.782297 
L 289.09181 228.531889 
L 289.822825 219.719028 
L 290.55088 241.57393 
L 291.278935 217.96985 
L 292.006991 208.473903 
L 292.738005 224.544268 
L 293.466061 237.872006 
L 294.194116 222.236148 
L 294.925131 238.662021 
L 295.653186 230.900144 
L 296.381241 241.607173 
L 297.112256 233.929035 
L 297.840311 230.022513 
L 298.568367 217.221924 
L 299.296422 187.465346 
L 300.755492 239.895923 
L 301.483547 228.467316 
L 302.214562 230.768223 
L 303.670672 249.230291 
L 304.401687 236.958717 
L 305.129743 227.39071 
L 305.857798 241.833504 
L 307.316868 169.647401 
L 308.044923 228.756888 
L 308.772978 251.303649 
L 309.503993 233.10987 
L 310.232048 244.625337 
L 310.960104 227.788427 
L 311.691118 231.500835 
L 312.419174 245.112634 
L 313.147229 237.197439 
L 313.878244 223.509498 
L 314.606299 202.679262 
L 315.334354 188.721944 
L 316.06241 236.101972 
L 316.793424 235.813519 
L 317.52148 227.7191 
L 318.249535 247.406566 
L 318.98055 239.900346 
L 319.708605 221.228794 
L 320.43666 235.337487 
L 321.167675 240.489263 
L 322.623785 220.804469 
L 323.351841 187.941315 
L 324.082856 226.68156 
L 324.810911 228.543326 
L 325.538966 223.045867 
L 326.269981 243.163154 
L 326.998036 227.620454 
L 327.726091 244.975517 
L 328.457106 231.335181 
L 329.185161 227.570646 
L 329.913217 239.877583 
L 330.641272 231.458707 
L 331.372287 173.973952 
L 332.100342 197.268496 
L 332.828397 230.756294 
L 333.559412 232.2339 
L 334.287467 247.109351 
L 335.746537 235.81669 
L 336.474593 222.714207 
L 337.202648 217.729262 
L 337.930703 236.26537 
L 338.661718 225.704765 
L 339.389773 206.712387 
L 340.117828 199.97131 
L 340.848843 216.2082 
L 341.576898 228.410694 
L 342.304954 233.192011 
L 343.035969 241.360226 
L 343.749226 224.027751 
L 344.489119 232.044769 
L 345.229013 230.560014 
L 345.939311 226.366834 
L 346.679204 218.489307 
L 347.419098 252.873192 
L 348.129396 216.798033 
L 348.869289 167.354584 
L 349.609183 215.363605 
L 350.319481 224.073181 
L 351.059374 212.372904 
L 351.769672 227.14867 
L 352.509565 226.192253 
L 353.959757 234.223019 
L 354.69965 232.7979 
L 355.439544 217.026458 
L 356.149842 231.611846 
L 356.889735 210.337359 
L 357.600033 177.707958 
L 358.339927 197.102948 
L 359.07982 225.274213 
L 359.790118 240.089154 
L 360.530011 220.837121 
L 361.269905 224.541901 
L 361.980203 229.765218 
L 362.720096 225.945438 
L 363.45999 222.925897 
L 364.170288 224.677061 
L 364.910181 234.658574 
L 365.620479 228.023078 
L 366.360373 183.007784 
L 367.100266 190.046008 
L 368.550458 236.361301 
L 369.290351 239.389249 
L 370.000649 235.084357 
L 370.740542 249.48236 
L 371.45084 231.986789 
L 372.190734 207.888256 
L 372.930627 240.993049 
L 373.640925 220.162617 
L 374.380819 212.692527 
L 375.120712 238.090471 
L 375.83101 144.839394 
L 376.570904 204.084567 
L 377.281201 248.389495 
L 378.021095 226.799641 
L 378.760988 223.499273 
L 379.471286 253.8929 
L 380.21118 224.975287 
L 380.951073 242.817856 
L 381.661371 235.881786 
L 382.401265 246.983258 
L 383.141158 209.757682 
L 383.851456 225.599724 
L 384.59135 223.406838 
L 385.301647 180.460139 
L 386.041541 206.892187 
L 386.781434 239.897728 
L 387.491732 257.733029 
L 388.231626 228.585683 
L 388.971519 244.411727 
L 389.681817 247.254515 
L 390.421711 227.449236 
L 391.871902 258.434974 
L 392.611796 234.190149 
L 393.322093 238.372274 
L 394.80188 206.101402 
L 395.512178 175.705459 
L 396.252072 239.042666 
L 396.96237 229.724928 
L 397.702263 252.655405 
L 398.442157 234.810759 
L 399.152454 232.002652 
L 399.892348 254.524426 
L 400.632242 239.872791 
L 401.342539 221.127355 
L 402.082433 226.388732 
L 402.822326 252.535816 
L 403.532624 223.076898 
L 404.272518 248.329661 
L 404.982816 230.2064 
L 405.722709 167.5385 
L 406.462603 231.415953 
L 407.1729 227.278542 
L 407.912794 229.948223 
L 408.652688 218.984909 
L 409.362985 244.175116 
L 410.102879 229.179488 
L 410.813177 240.212551 
L 410.813177 240.212551 
" clip-path="url(#p78b223396f)" style="fill: none; stroke: #000000; stroke-linecap: round"/>
   </g>
   <g id="patch_6">
    <path d="M 28.894928 268.86601 
L 28.894928 138.933365 
" style="fill: none; stroke: #000000; stroke-width: 0.8; stroke-linejoin: miter; stroke-linecap: square"/>
   </g>
   <g id="patch_7">
    <path d="M 28.894928 268.86601 
L 428.99976 268.86601 
" style="fill: none; stroke: #000000; stroke-width: 0.8; stroke-linejoin: miter; stroke-linecap: square"/>
   </g>
  </g>
  <g id="axes_3">
   <g id="patch_8">
    <path d="M 28.894928 404.799135 
L 428.99976 404.799135 
L 428.99976 274.86649 
L 28.894928 274.86649 
z
" style="fill: #ffffff"/>
   </g>
   <g id="matplotlib.axis_5">
    <g id="xtick_15">
     <g id="line2d_28"/>
     <g id="text_14">
      <text style="font-size: 8px; font-family: 'Arial', 'Liberation Sans', 'DejaVu Sans', 'Bitstream Vera Sans', sans-serif; text-anchor: middle" x="47.081511" y="414.025385" transform="rotate(-0 47.081511 414.025385)">0</text>
     </g>
    </g>
    <g id="xtick_16">
     <g id="line2d_29"/>
     <g id="text_15">
      <text style="font-size: 8px; font-family: 'Arial', 'Liberation Sans', 'DejaVu Sans', 'Bitstream Vera Sans', sans-serif; text-anchor: middle" x="106.272994" y="414.025385" transform="rotate(-0 106.272994 414.025385)">20</text>
     </g>
    </g>
    <g id="xtick_17">
     <g id="line2d_30"/>
     <g id="text_16">
      <text style="font-size: 8px; font-family: 'Arial', 'Liberation Sans', 'DejaVu Sans', 'Bitstream Vera Sans', sans-serif; text-anchor: middle" x="165.464478" y="414.025385" transform="rotate(-0 165.464478 414.025385)">40</text>
     </g>
    </g>
    <g id="xtick_18">
     <g id="line2d_31"/>
     <g id="text_17">
      <text style="font-size: 8px; font-family: 'Arial', 'Liberation Sans', 'DejaVu Sans', 'Bitstream Vera Sans', sans-serif; text-anchor: middle" x="224.655961" y="414.025385" transform="rotate(-0 224.655961 414.025385)">60</text>
     </g>
    </g>
    <g id="xtick_19">
     <g id="line2d_32"/>
     <g id="text_18">
      <text style="font-size: 8px; font-family: 'Arial', 'Liberation Sans', 'DejaVu Sans', 'Bitstream Vera Sans', sans-serif; text-anchor: middle" x="283.847445" y="414.025385" transform="rotate(-0 283.847445 414.025385)">80</text>
     </g>
    </g>
    <g id="xtick_20">
     <g id="line2d_33"/>
     <g id="text_19">
      <text style="font-size: 8px; font-family: 'Arial', 'Liberation Sans', 'DejaVu Sans', 'Bitstream Vera Sans', sans-serif; text-anchor: middle" x="343.038928" y="414.025385" transform="rotate(-0 343.038928 414.025385)">100</text>
     </g>
    </g>
    <g id="xtick_21">
     <g id="line2d_34"/>
     <g id="text_20">
      <text style="font-size: 8px; font-family: 'Arial', 'Liberation Sans', 'DejaVu Sans', 'Bitstream Vera Sans', sans-serif; text-anchor: middle" x="402.230412" y="414.025385" transform="rotate(-0 402.230412 414.025385)">120</text>
     </g>
    </g>
    <g id="text_21">
     <text style="font-size: 10px; font-family: 'Arial', 'Liberation Sans', 'DejaVu Sans', 'Bitstream Vera Sans', sans-serif; text-anchor: middle" x="228.947344" y="426.895072" transform="rotate(-0 228.947344 426.895072)">Time (s)</text>
    </g>
   </g>
   <g id="matplotlib.axis_6">
    <g id="ytick_12">
     <g id="line2d_35"/>
     <g id="text_22">
      <text style="font-size: 8px; font-family: 'Arial', 'Liberation Sans', 'DejaVu Sans', 'Bitstream Vera Sans', sans-serif; text-anchor: end" x="25.394928" y="401.267236" transform="rotate(-0 25.394928 401.267236)">−2</text>
     </g>
    </g>
    <g id="ytick_13">
     <g id="line2d_36"/>
     <g id="text_23">
      <text style="font-size: 8px; font-family: 'Arial', 'Liberation Sans', 'DejaVu Sans', 'Bitstream Vera Sans', sans-serif; text-anchor: end" x="25.394928" y="383.614386" transform="rotate(-0 25.394928 383.614386)">−1</text>
     </g>
    </g>
    <g id="ytick_14">
     <g id="line2d_37"/>
     <g id="text_24">
      <text style="font-size: 8px; font-family: 'Arial', 'Liberation Sans', 'DejaVu Sans', 'Bitstream Vera Sans', sans-serif; text-anchor: end" x="25.394928" y="365.961537" transform="rotate(-0 25.394928 365.961537)">0</text>
     </g>
    </g>
    <g id="ytick_15">
     <g id="line2d_38"/>
     <g id="text_25">
      <text style="font-size: 8px; font-family: 'Arial', 'Liberation Sans', 'DejaVu Sans', 'Bitstream Vera Sans', sans-serif; text-anchor: end" x="25.394928" y="348.308688" transform="rotate(-0 25.394928 348.308688)">1</text>
     </g>
    </g>
    <g id="ytick_16">
     <g id="line2d_39"/>
     <g id="text_26">
      <text style="font-size: 8px; font-family: 'Arial', 'Liberation Sans', 'DejaVu Sans', 'Bitstream Vera Sans', sans-serif; text-anchor: end" x="25.394928" y="330.655838" transform="rotate(-0 25.394928 330.655838)">2</text>
     </g>
    </g>
    <g id="ytick_17">
     <g id="line2d_40"/>
     <g id="text_27">
      <text style="font-size: 8px; font-family: 'Arial', 'Liberation Sans', 'DejaVu Sans', 'Bitstream Vera Sans', sans-serif; text-anchor: end" x="25.394928" y="313.002989" transform="rotate(-0 25.394928 313.002989)">3</text>
     </g>
    </g>
    <g id="ytick_18">
     <g id="line2d_41"/>
     <g id="text_28">
      <text style="font-size: 8px; font-family: 'Arial', 'Liberation Sans', 'DejaVu Sans', 'Bitstream Vera Sans', sans-serif; text-anchor: end" x="25.394928" y="295.35014" transform="rotate(-0 25.394928 295.35014)">4</text>
     </g>
    </g>
    <g id="text_29">
     <text style="font-size: 10px; font-family: 'Arial', 'Liberation Sans', 'DejaVu Sans', 'Bitstream Vera Sans', sans-serif; text-anchor: middle" x="10.286178" y="339.832812" transform="rotate(-90 10.286178 339.832812)">ΔRLU/RLUo_Zscore_ROI3</text>
    </g>
   </g>
   <g id="line2d_42">
    <path d="M 47.081511 370.308466 
L 47.810454 376.663069 
L 49.26837 357.261413 
L 49.997313 344.19829 
L 50.726226 363.365455 
L 51.45517 366.791662 
L 52.184113 359.895796 
L 52.913056 379.687649 
L 53.641999 375.48137 
L 54.370942 364.245799 
L 55.099885 369.019028 
L 55.828828 357.441403 
L 56.557771 358.057927 
L 57.286714 360.654136 
L 58.015658 355.595345 
L 58.744601 367.087651 
L 59.473544 381.826855 
L 60.202487 362.926285 
L 60.93143 339.008532 
L 61.660373 363.826828 
L 62.389316 359.592175 
L 63.118259 356.846459 
L 63.847203 360.033835 
L 64.576146 360.841754 
L 65.305089 355.497459 
L 66.034328 355.554406 
L 66.763271 358.918395 
L 67.492214 358.750982 
L 68.221157 350.022558 
L 68.9501 357.692476 
L 69.679043 342.335393 
L 70.407987 372.989427 
L 71.13693 364.172369 
L 71.865873 361.403808 
L 72.594816 353.297327 
L 73.323759 371.027585 
L 74.052702 361.5532 
L 74.781645 369.411403 
L 75.510588 349.580881 
L 76.967291 366.833773 
L 77.698306 367.115471 
L 78.426361 345.567843 
L 79.154416 373.555869 
L 79.885431 352.802684 
L 80.613486 352.803596 
L 81.341541 357.822097 
L 82.069597 373.013053 
L 82.800611 358.519704 
L 83.528667 380.43741 
L 84.256722 371.004798 
L 84.987737 354.308088 
L 85.715792 364.278328 
L 86.443847 368.142832 
L 87.174862 362.126143 
L 87.902917 369.132855 
L 88.630973 366.371052 
L 89.361987 358.496106 
L 90.090043 394.628127 
L 90.818098 362.642563 
L 91.546153 359.438671 
L 92.277168 365.546593 
L 93.005223 377.368891 
L 93.733278 361.803357 
L 94.464293 368.145498 
L 95.192349 377.478425 
L 95.920404 351.600935 
L 96.651419 365.887008 
L 97.379474 364.249494 
L 98.107529 390.745864 
L 98.835584 353.207776 
L 100.294654 377.467697 
L 101.02271 381.308607 
L 101.753725 362.611875 
L 102.48178 297.818112 
L 103.209835 357.024258 
L 103.94085 352.871282 
L 104.668905 371.294128 
L 105.39696 369.391507 
L 106.125016 371.859179 
L 106.85603 379.421573 
L 107.584086 367.487888 
L 108.312141 382.922257 
L 109.043156 379.745755 
L 109.771211 380.22672 
L 110.499266 359.911936 
L 111.230281 360.324257 
L 111.958336 363.849184 
L 112.686391 355.695656 
L 113.414447 365.424725 
L 114.145462 360.310988 
L 114.873517 364.349022 
L 115.601572 352.747337 
L 116.332587 355.32699 
L 117.788697 372.62282 
L 118.519712 350.003158 
L 119.247767 364.31605 
L 119.975823 364.89111 
L 120.706838 360.299998 
L 121.434893 373.750746 
L 122.162948 356.764762 
L 122.891003 368.731325 
L 123.622018 363.207527 
L 124.350073 366.971614 
L 125.078129 365.299776 
L 125.809143 361.821143 
L 126.537199 370.920382 
L 127.265254 346.167813 
L 127.996269 372.244833 
L 128.724324 365.577092 
L 129.452379 370.066403 
L 130.180434 371.106737 
L 130.911449 366.37582 
L 131.639505 352.206004 
L 132.36756 360.204747 
L 133.098575 348.65358 
L 133.82663 368.811866 
L 135.2857 352.89453 
L 136.013755 373.697205 
L 136.74181 351.237032 
L 137.469866 356.646892 
L 138.20088 370.869253 
L 138.928936 374.81087 
L 139.656991 365.558581 
L 140.388006 363.913135 
L 141.116061 354.949239 
L 141.844116 356.389251 
L 142.575131 351.30575 
L 143.303186 365.083308 
L 144.031242 356.285331 
L 144.759297 356.336364 
L 145.490312 377.404773 
L 146.218367 330.827196 
L 146.946422 347.415559 
L 147.677437 357.296004 
L 148.405492 358.082089 
L 149.133547 363.824605 
L 149.864562 359.821339 
L 150.592618 367.200146 
L 151.320673 347.488715 
L 152.048728 363.766059 
L 152.779743 367.392606 
L 153.507798 365.851663 
L 154.235853 355.718699 
L 154.966868 354.88113 
L 155.694923 370.613344 
L 156.422979 350.312906 
L 157.153993 348.659847 
L 157.882049 374.968762 
L 159.341119 367.008663 
L 160.069174 361.464724 
L 160.797229 362.354731 
L 161.525285 359.141696 
L 162.256299 361.853742 
L 162.984355 370.844851 
L 163.71241 350.370691 
L 164.443425 360.503682 
L 165.17148 355.870299 
L 165.899535 347.916679 
L 166.63055 345.943538 
L 167.358605 372.861661 
L 168.08666 359.63758 
L 168.814716 351.817271 
L 169.545731 379.841163 
L 170.273786 342.53607 
L 171.001841 367.092811 
L 171.732856 366.300879 
L 172.460911 371.982079 
L 173.188966 373.379357 
L 173.919981 361.871613 
L 174.648036 363.870195 
L 175.376092 358.148278 
L 176.104147 358.334401 
L 176.835162 365.850391 
L 177.563217 376.355393 
L 178.291272 363.765103 
L 179.022287 359.497344 
L 179.750342 365.887146 
L 180.478398 348.207191 
L 181.209412 377.936563 
L 181.937468 354.764801 
L 182.665523 374.163786 
L 183.393578 372.484818 
L 184.124593 354.38815 
L 184.852648 369.580544 
L 185.580703 369.507485 
L 186.311718 378.567404 
L 187.039773 369.123776 
L 187.767829 335.562972 
L 188.498844 361.577282 
L 189.226899 374.097599 
L 189.954954 360.9006 
L 190.683009 374.362404 
L 191.414024 381.986248 
L 192.142079 370.136393 
L 192.870135 348.953385 
L 193.601149 364.260214 
L 194.329205 357.914581 
L 195.05726 364.210515 
L 195.788275 355.667349 
L 196.51633 366.289845 
L 197.244385 359.336615 
L 197.9754 383.95954 
L 198.703455 375.663618 
L 199.431511 388.017895 
L 200.159566 367.826998 
L 200.890581 364.795734 
L 201.618636 360.721613 
L 202.346691 366.113274 
L 203.077706 372.65308 
L 203.805761 374.063706 
L 205.264831 364.622543 
L 205.992886 367.104749 
L 206.720942 391.050868 
L 207.448997 357.066992 
L 208.180012 373.462805 
L 208.908067 380.266383 
L 209.636122 384.825782 
L 210.367137 379.754486 
L 211.095192 376.15536 
L 211.823248 360.629223 
L 212.554262 310.509172 
L 213.282318 380.082169 
L 214.010373 367.215788 
L 214.738428 369.196246 
L 215.469443 385.485987 
L 216.197498 385.601239 
L 216.925553 375.088493 
L 217.656568 375.221029 
L 218.384624 377.938902 
L 219.112679 371.703161 
L 219.843694 311.456047 
L 220.571749 352.299648 
L 221.299804 371.877341 
L 222.027859 381.189427 
L 222.758874 372.972155 
L 223.486929 376.488587 
L 224.214985 384.478689 
L 224.945999 382.86509 
L 225.674055 365.308143 
L 226.40211 358.222107 
L 227.133125 358.025192 
L 227.86118 309.001064 
L 228.589235 369.445253 
L 229.317291 374.85292 
L 230.048305 373.676405 
L 230.776361 390.364383 
L 231.504416 355.121044 
L 232.235431 388.922211 
L 232.963486 370.470058 
L 233.691541 363.195827 
L 234.422556 309.424966 
L 235.150611 322.418885 
L 235.878666 377.936655 
L 236.609681 374.726979 
L 237.337737 359.587306 
L 238.065792 372.883041 
L 238.793847 358.797326 
L 239.524862 369.3293 
L 240.252917 386.627091 
L 240.980972 363.917916 
L 241.711987 303.870509 
L 242.440042 354.878525 
L 243.168098 362.578113 
L 243.899112 368.618722 
L 244.627168 351.640041 
L 245.355223 382.123019 
L 246.083278 368.25007 
L 246.814293 365.978124 
L 247.542348 371.469953 
L 248.270404 378.856149 
L 249.001418 283.373748 
L 249.729474 355.90534 
L 250.457529 378.271046 
L 251.188544 371.308453 
L 251.916599 369.622989 
L 252.644654 362.245191 
L 253.372709 363.364574 
L 254.103724 363.267391 
L 254.831779 365.483137 
L 255.559835 370.601354 
L 256.29085 280.772519 
L 257.018905 371.963324 
L 257.74696 376.860823 
L 258.477975 351.166343 
L 259.20603 370.935305 
L 259.934085 371.886059 
L 260.662141 362.373665 
L 261.393155 375.054944 
L 262.121211 281.043852 
L 262.849266 346.3579 
L 263.580281 362.420742 
L 264.308336 364.494641 
L 265.036391 365.788942 
L 265.767406 366.143687 
L 266.495461 376.386154 
L 267.223517 371.069147 
L 267.954531 361.430211 
L 268.682587 355.9104 
L 269.410642 296.909835 
L 270.138697 361.272724 
L 270.869712 379.057948 
L 271.597767 370.089993 
L 272.325822 365.329675 
L 273.056837 370.881158 
L 273.784892 375.065059 
L 274.512948 368.010817 
L 275.243963 353.992985 
L 275.972018 353.443121 
L 276.700073 297.759967 
L 277.428128 349.776269 
L 278.159143 381.329021 
L 278.887198 374.8114 
L 279.615254 361.278063 
L 280.346268 374.08155 
L 281.074324 375.499666 
L 281.802379 384.766159 
L 282.533394 364.475776 
L 283.261449 360.198383 
L 283.989504 291.75396 
L 284.717559 340.33441 
L 285.448574 351.601707 
L 286.17663 359.811234 
L 286.904685 371.64352 
L 287.6357 350.079607 
L 288.363755 356.275791 
L 289.09181 379.809703 
L 289.822825 360.410432 
L 290.55088 375.118951 
L 291.278935 336.187791 
L 292.006991 327.030071 
L 292.738005 370.769079 
L 293.466061 380.462711 
L 294.194116 359.742036 
L 294.925131 380.251347 
L 295.653186 362.322944 
L 296.381241 369.533914 
L 297.112256 369.507809 
L 298.568367 358.084317 
L 299.296422 285.444568 
L 300.027437 358.939672 
L 300.755492 379.968284 
L 301.483547 384.438983 
L 302.214562 356.444827 
L 302.942617 374.972771 
L 303.670672 359.330788 
L 304.401687 378.969762 
L 305.129743 377.160653 
L 305.857798 370.925094 
L 306.588813 338.92228 
L 307.316868 312.838329 
L 308.044923 366.006766 
L 308.772978 374.66966 
L 309.503993 368.400693 
L 310.232048 383.304385 
L 310.960104 386.730564 
L 311.691118 358.615523 
L 312.419174 379.32237 
L 313.147229 369.728959 
L 313.878244 374.936266 
L 314.606299 323.265219 
L 315.334354 339.196116 
L 316.06241 372.815573 
L 316.793424 358.259601 
L 317.52148 363.662289 
L 318.249535 362.447664 
L 318.98055 360.681569 
L 319.708605 361.671686 
L 320.43666 374.10795 
L 321.167675 382.174268 
L 321.89573 359.426663 
L 322.623785 356.705398 
L 323.351841 316.110536 
L 324.082856 369.214314 
L 324.810911 370.974056 
L 325.538966 379.666156 
L 326.269981 372.272641 
L 326.998036 353.972239 
L 328.457106 376.174093 
L 329.185161 359.292393 
L 329.913217 382.288084 
L 330.641272 377.195917 
L 331.372287 331.944733 
L 332.100342 363.8374 
L 332.828397 363.566899 
L 333.559412 365.253867 
L 334.287467 383.106678 
L 335.015523 373.558423 
L 335.746537 383.272957 
L 336.474593 367.32906 
L 337.202648 389.238838 
L 337.930703 368.907547 
L 338.661718 383.164133 
L 339.389773 359.674664 
L 340.117828 324.306097 
L 340.848843 368.1318 
L 341.576898 361.266237 
L 342.304954 382.148131 
L 343.035969 364.666304 
L 343.749226 398.893106 
L 344.489119 376.669706 
L 345.229013 371.025935 
L 345.939311 367.299373 
L 346.679204 379.727695 
L 347.419098 374.05929 
L 348.869289 318.327824 
L 349.609183 366.938603 
L 350.319481 357.183324 
L 351.059374 376.357559 
L 351.769672 371.995094 
L 352.509565 384.006331 
L 353.249459 377.889074 
L 353.959757 362.30786 
L 354.69965 371.147206 
L 355.439544 370.215443 
L 356.149842 386.926385 
L 356.889735 370.857187 
L 357.600033 303.785769 
L 358.339927 372.419212 
L 359.07982 389.335415 
L 359.790118 370.591134 
L 360.530011 372.160919 
L 361.269905 351.188596 
L 361.980203 362.19989 
L 362.720096 371.027928 
L 363.45999 390.909263 
L 364.170288 368.506833 
L 364.910181 365.193058 
L 365.620479 383.36307 
L 366.360373 313.294604 
L 367.100266 322.69394 
L 367.810564 380.419826 
L 369.290351 352.758954 
L 370.000649 373.314136 
L 370.740542 380.547813 
L 371.45084 366.085195 
L 372.190734 381.207875 
L 372.930627 378.952231 
L 373.640925 371.974261 
L 374.380819 348.199924 
L 375.120712 375.26127 
L 375.83101 306.812035 
L 376.570904 360.766716 
L 377.281201 373.801745 
L 378.021095 353.293952 
L 378.760988 378.972965 
L 379.471286 356.775431 
L 380.21118 373.710588 
L 380.951073 384.516121 
L 381.661371 379.870226 
L 382.401265 390.281314 
L 383.141158 378.776626 
L 383.851456 378.901999 
L 384.59135 371.430962 
L 385.301647 286.574081 
L 386.041541 369.226405 
L 386.781434 368.601702 
L 387.491732 374.689592 
L 388.231626 368.315565 
L 388.971519 354.463887 
L 389.681817 366.305424 
L 390.421711 356.839218 
L 391.132008 357.077257 
L 391.871902 367.501284 
L 392.611796 367.312279 
L 393.322093 369.361835 
L 394.061987 365.715183 
L 394.80188 323.359436 
L 395.512178 325.870736 
L 396.252072 378.359829 
L 396.96237 376.255429 
L 397.702263 364.102639 
L 398.442157 357.457832 
L 399.152454 359.288032 
L 399.892348 352.840676 
L 401.342539 370.634291 
L 402.082433 363.255394 
L 402.822326 359.473377 
L 403.532624 360.199015 
L 404.272518 352.394864 
L 404.982816 360.62868 
L 405.722709 296.7933 
L 406.462603 361.858193 
L 407.1729 373.561223 
L 407.912794 348.717461 
L 409.362985 387.206043 
L 410.102879 370.518144 
L 410.813177 361.078967 
L 410.813177 361.078967 
" clip-path="url(#pf4ca75b582)" style="fill: none; stroke: #000000; stroke-linecap: round"/>
   </g>
   <g id="LineCollection_1">
    <path d="M 48.900169 391.805871 
L 78.495911 391.805871 
" clip-path="url(#pf4ca75b582)" style="fill: none; stroke: #000000; stroke-width: 1.5"/>
   </g>
   <g id="LineCollection_2">
    <path d="M 48.900169 391.805871 
L 48.900169 374.153021 
" clip-path="url(#pf4ca75b582)" style="fill: none; stroke: #000000; stroke-width: 1.5"/>
   </g>
   <g id="patch_9">
    <path d="M 28.894928 404.799135 
L 28.894928 274.86649 
" style="fill: none; stroke: #000000; stroke-width: 0.8; stroke-linejoin: miter; stroke-linecap: square"/>
   </g>
   <g id="patch_10">
    <path d="M 28.894928 404.799135 
L 428.99976 404.799135 
" style="fill: none; stroke: #000000; stroke-width: 0.8; stroke-linejoin: miter; stroke-linecap: square"/>
   </g>
   <g id="text_30">
    <text style="font-size: 8px; font-family: 'Arial', 'Liberation Sans', 'DejaVu Sans', 'Bitstream Vera Sans', sans-serif; text-anchor: middle" x="63.69804" y="402.729426" transform="rotate(-0 63.69804 402.729426)">10 s</text>
   </g>
   <g id="text_31">
    <text style="font-size: 8px; font-family: 'Arial', 'Liberation Sans', 'DejaVu Sans', 'Bitstream Vera Sans', sans-serif" transform="translate(39.308072 402.763196) rotate(-90)">1.0 z-score</text>
   </g>
  </g>
 </g>
 <defs>
  <clipPath id="p0ddd43beb7">
   <rect x="28.894928" y="3.00024" width="400.104833" height="129.932645"/>
  </clipPath>
  <clipPath id="p78b223396f">
   <rect x="28.894928" y="138.933365" width="400.104833" height="129.932645"/>
  </clipPath>
  <clipPath id="pf4ca75b582">
   <rect x="28.894928" y="274.86649" width="400.104833" height="129.932645"/>
  </clipPath>
 </defs>
</svg>
